<svg width="257" height="592" viewBox="0 0 257 592" fill="none" xmlns="http://www.w3.org/2000/svg">
<path d="M19.6149 552.937C19.8352 552.688 20.0504 552.459 20.4552 552.085C20.6261 551.923 20.6001 551.909 20.517 552.15C20.1515 552.557 19.8693 552.725 19.5869 552.892C19.5869 552.892 19.5909 552.941 19.6149 552.937Z" fill="#656771"/>
<path d="M86.999 562.911C92.2981 561.543 98.0403 560.197 104.193 558.848C98.8831 560.208 93.1627 561.57 86.999 562.911Z" fill="#7F818D"/>
<path d="M233.883 569.844C234.03 569.492 234.517 569.09 235.297 568.54C235.135 568.859 234.679 569.327 233.883 569.844Z" fill="#858B96"/>
<path d="M231.858 570.866C232.025 570.531 232.499 570.178 233.29 569.835C233.126 570.18 232.646 570.515 231.858 570.866Z" fill="#858B96"/>
<path d="M173.576 521.041C171.045 517.936 168.515 514.832 165.902 511.409C172.172 510.132 178.525 509.174 185.251 508.096C186.001 508.077 186.376 508.178 187.046 508.254C187.363 510.483 187.916 512.92 187.229 514.933C186.734 516.383 184.587 517.269 182.521 518.652C179.854 519.631 177.844 520.366 175.458 521.071C174.58 521.041 174.078 521.041 173.576 521.041Z" fill="#182041"/>
<path d="M73.8037 327.973C73.9702 327.951 74.2273 328.167 74.5701 328.621C74.402 328.643 74.1482 328.427 73.8037 327.973Z" fill="#151F2F"/>
<path d="M107.69 333.686C112.259 333.578 117.021 333.792 122.21 334.137C117.719 334.18 112.801 334.094 107.69 333.686Z" fill="#5C3A30"/>
<path d="M132.935 334.472C137.004 333.874 141.421 333.492 146.283 333.197C142.246 333.751 137.765 334.219 132.935 334.472Z" fill="#5C3A30"/>
<path d="M144.494 195.801C144.341 195.832 144.058 195.646 143.665 195.227C143.825 195.191 144.094 195.387 144.494 195.801Z" fill="#4F352F"/>
<path d="M27.6089 384.934C27.8162 385.169 28.0448 385.389 28.2211 385.645C28.2615 385.704 28.1212 385.887 28.0641 386.013C27.9121 385.794 27.7601 385.575 27.6121 385.14C27.6162 384.924 27.6113 384.932 27.6089 384.934Z" fill="#845F4E"/>
<path d="M31.6576 379.561C30.9442 377.859 30.2561 375.771 29.5854 373.285C30.2963 374.983 30.9895 377.079 31.6576 379.561Z" fill="#D19275"/>
<path d="M29.6168 372.604C29.2949 372.171 28.9475 371.38 28.5986 370.246C28.597 369.903 29.0664 369.988 29.2975 370.044C29.5496 370.816 29.5704 371.531 29.6168 372.604Z" fill="#D19275"/>
<path d="M32.6208 381.638C32.3018 381.468 31.969 380.993 31.623 380.212C31.9421 380.382 32.2747 380.857 32.6208 381.638Z" fill="#D19275"/>
<path d="M102.524 197.041C102.675 196.963 102.626 197.424 102.621 197.655C102.476 197.724 102.319 197.574 102.208 197.394C102.182 197.352 102.314 197.213 102.524 197.041Z" fill="#4F352F"/>
<path d="M130.602 168.916C130.954 168.734 131.321 168.573 131.689 168.411C131.486 168.587 131.283 168.763 130.866 168.956C130.652 168.973 130.617 168.936 130.602 168.916Z" fill="#6B4131"/>
<path d="M117.579 167.956C117.553 167.979 117.171 167.686 117.171 167.686C117.171 167.686 117.525 167.664 117.588 167.773C117.651 167.882 117.605 167.933 117.579 167.956Z" fill="#6B4131"/>
<path d="M115.142 166.477C115.094 166.502 115.189 166.451 115.142 166.477V166.477Z" fill="#6B4131"/>
<path d="M38.0457 540.095C42.7213 537.483 47.3969 534.87 52.2871 532.528C58.3879 535.845 66.5698 536.378 68.1969 533.857C65.6766 533.172 63.146 532.485 60.6904 531.495C62.0333 530.624 63.301 530.054 64.946 529.378C67.0109 529.702 68.6975 530.137 70.3862 530.563C73.6565 531.39 76.9281 532.212 80.1991 533.036C80.3213 532.451 80.4434 531.867 80.5656 531.283C76.0226 530.815 73.1439 525.033 67.6105 527.453C69.2642 524.179 70.7815 521.452 75.1213 523.15C76.6823 523.761 78.8099 522.923 81.0417 522.764C83.0308 523.065 84.6571 523.348 86.5811 523.817C87.3326 524.657 88.2371 525.361 88.1693 525.955C87.6211 530.757 75.4237 540.456 70.7587 540.104C69.7882 540.031 67.9009 540.747 67.8826 541.164C67.6802 545.748 64.5681 545.746 61.1625 545.235C61.9244 547.386 62.547 549.143 63.2745 551.198C61.1533 551.732 59.6372 552.113 57.7603 552.586C58.4716 554.253 59.0425 555.591 59.2574 556.882C57.7533 556.513 56.605 556.19 55.527 555.488C54.7288 548.859 48.8922 543.63 41.0249 541.864C39.9535 541.623 39.0349 540.702 38.0457 540.095ZM51.6622 537.704C49.4729 537.704 47.2836 537.704 45.0942 537.704C45.1246 538.022 45.155 538.34 45.1854 538.658C50.0474 539.73 54.9093 540.801 59.8101 541.882C59.5835 536.563 55.1627 538.779 51.6622 537.704Z" fill="#01060F"/>
<path d="M196.041 527.538C198.56 529.153 201.08 530.767 203.287 532.564C202.173 532.617 201.317 532.237 200.578 532.398C196.652 533.251 192.711 534.102 188.899 535.338C188.365 535.511 188.518 537.8 188.353 539.11C189.39 539.067 190.948 539.445 191.381 538.911C194.05 535.621 195.018 535.716 197.344 539.483C197.941 540.451 199.444 541.679 200.301 541.523C203.951 540.86 207.515 539.723 211.385 538.685C207.065 534.901 202.959 538.321 198.665 538.986C198.001 537.717 197.369 536.509 196.895 535.604C199.278 534.677 201.48 533.82 203.683 532.964C208.089 535.239 212.495 537.515 217.247 540.2C217.582 541 217.571 541.389 217.174 541.862C209.973 542.145 205.214 545.506 202.337 551.554C201.665 552.965 201.508 554.62 200.578 556.347C197.551 556.658 195.06 556.784 192.873 556.714C194.647 556.05 196.117 555.581 198.109 554.946C195.401 551.821 193.491 548.833 190.859 546.765C187.111 543.822 182.648 541.797 178.843 538.915C176.183 536.9 174.113 534.107 172.121 531.7C174.187 531.371 175.913 531.002 177.994 530.586C180.825 530.516 183.634 526.835 185.667 530.988C189.111 529.843 192.576 528.69 196.041 527.538ZM180.82 534.87C182.648 534.398 184.475 533.927 186.303 533.455C186.25 533.066 186.196 532.677 186.142 532.288C183.74 532.651 181.337 533.014 178.934 533.376C179.295 533.885 179.656 534.394 180.82 534.87Z" fill="#01050F"/>
<path d="M86.2833 523.63C84.6571 523.348 83.0308 523.065 80.8634 522.445C79.6559 521.672 79.0439 521.015 78.3149 520.837C69.1827 518.607 69.032 518.455 68.3298 509.214C68.5789 508.92 68.8279 508.626 69.3037 508.154C75.9136 508.945 82.2965 509.914 89.1632 511.168C89.6783 511.618 89.7098 511.784 89.4589 512.202C88.212 516.18 87.2477 519.905 86.2833 523.63Z" fill="#182041"/>
<path d="M68.0155 509.372C69.032 518.456 69.1827 518.607 78.3149 520.837C79.0439 521.015 79.6559 521.672 80.5006 522.426C78.8099 522.923 76.6823 523.761 75.1213 523.15C70.7815 521.452 69.2642 524.179 67.1874 527.516C66.0172 528.446 65.2931 528.966 64.5688 529.485C63.301 530.054 62.0333 530.624 60.2595 531.643C57.6539 532.066 55.5544 532.038 53.4548 532.011C54.5356 531.029 55.6166 530.047 57.2374 528.958C58.0282 528.531 58.2789 528.21 58.5295 527.889C63.9275 524.032 67.6522 519.307 66.9436 512.15C66.8605 511.31 67.4327 510.405 68.0155 509.372Z" fill="#01050F"/>
<path d="M187.922 507.604C188.496 508.682 189.669 509.833 189.547 510.826C188.815 516.803 192.353 520.888 195.215 525.585C193.36 526.002 191.769 526.029 189.832 525.897C187.186 523.454 184.885 521.168 182.881 518.644C184.587 517.269 186.734 516.383 187.229 514.933C187.916 512.919 187.363 510.483 187.486 508.072C187.631 507.916 187.922 507.604 187.922 507.604Z" fill="#01050F"/>
<path d="M37.8191 539.995C37.4105 540.84 36.7603 541.991 35.774 542.557C31.6239 544.936 27.3734 547.141 23.1598 549.41C23.3018 550.084 23.4437 550.759 23.5858 551.433C27.116 552.56 30.6461 553.688 34.4009 555.435C34.6171 556.366 34.6085 556.677 34.2053 557.03C29.4005 555.344 23.4003 555.217 19 553.5C17.5 561 17 553.5 17 553.5C18.6199 548.063 27.141 544.806 31.4875 542.549C33.389 541.562 35.4399 540.862 37.8191 539.995Z" fill="#01050F"/>
<path d="M217.561 541.779C217.571 541.389 217.582 541 217.571 540.319C224.827 541.659 231.606 544.2 236.446 550.927C236.483 551.502 236.598 551.967 236.33 551.809C235.468 551.787 234.875 551.922 233.818 552.003C233.047 551.91 232.739 551.871 232.622 551.48C231.797 549.67 231.101 547.591 229.705 546.873C225.812 544.873 221.629 543.437 217.561 541.779Z" fill="#01050F"/>
<path d="M53.3966 532.067C55.5546 532.038 57.6541 532.066 60.1846 531.945C63.1461 532.485 65.6768 533.172 68.197 533.857C66.5699 536.378 58.3881 535.845 52.7349 532.444C52.968 532.089 53.3383 532.123 53.3966 532.067Z" fill="#182041"/>
<path d="M190.178 526.055C191.769 526.029 193.36 526.002 195.268 525.936C195.655 526.172 195.725 526.447 195.918 527.13C192.576 528.691 189.111 529.843 185.667 530.988C183.634 526.835 180.825 530.517 178.09 530.371C178.078 529.635 178.325 529.065 178.995 528.384C183.005 527.533 186.592 526.794 190.178 526.055Z" fill="#182041"/>
<path d="M236.598 551.967C236.598 551.967 236.483 551.502 236.496 551.265C237.445 552.457 238.38 553.886 239.484 555.609C239.553 559.588 242.782 563.751 237.888 566.463C237.319 561.419 236.959 556.693 236.598 551.967Z" fill="#01050F"/>
<path d="M19.7859 567.858C15.2594 564.92 16.1539 556.469 17 552C17.5818 550.734 18.5846 554.141 19.3621 553.109C19.5911 552.941 19.587 552.892 19.6494 553.314C19.7366 558.443 19.7612 563.151 19.7859 567.858Z" fill="#01050F"/>
<path d="M185.625 507.976C185.594 507.51 185.563 507.044 185.603 506.236C186.297 506.318 186.921 506.744 187.733 507.387C187.921 507.604 187.631 507.916 187.191 508.097C186.376 508.178 186.001 508.077 185.625 507.976Z" fill="#565659"/>
<path d="M58.2842 527.985C58.2789 528.21 58.0282 528.531 57.5444 528.84C57.5538 528.579 57.7964 528.33 58.2842 527.985Z" fill="#364056"/>
<path d="M236.33 551.809C236.958 556.693 237.319 561.419 237.511 566.52C236.839 567.258 236.336 567.622 235.418 568.336C234.517 569.09 234.03 569.492 233.544 569.895C233.544 569.895 233.609 569.913 233.291 569.869C232.499 570.178 232.025 570.531 231.551 570.883C231.551 570.883 231.613 570.911 231.191 570.836C216.404 574.272 202.037 575.006 187.663 570.815C187.663 570.815 187.616 570.866 187.5 570.597C186.803 570.172 186.221 570.016 185.64 569.86C185.64 569.86 185.615 569.923 185.549 569.587C184.862 569.119 184.242 568.986 183.621 568.853C183.621 568.853 183.62 568.92 183.566 568.561C180.884 567.087 178.258 565.973 175.631 564.859C175.631 564.859 175.61 564.921 175.431 564.597C167.052 562.463 158.851 560.652 150.651 558.841C150.651 558.841 150.633 558.914 150.735 558.577C150.443 558.111 150.049 557.984 149.655 557.856C149.655 557.856 149.62 557.928 149.616 557.593C148.956 556.791 148.299 556.325 147.642 555.858C147.642 555.858 147.622 555.922 147.669 555.581C147.851 554.588 147.986 553.936 148.349 552.9C147.925 551.908 147.274 551.3 146.622 550.693C146.622 550.693 146.747 550.436 146.992 550.222C147.237 550.007 147.662 549.806 148.072 549.87C149.777 550.128 151.086 550.252 152.363 550.527C162.121 552.625 171.873 554.752 182.021 557.014C191.467 557.407 200.52 557.655 210.028 558.001C212.296 558.052 214.123 558.14 215.917 557.934C222.417 557.185 229.169 557.159 234.282 552.057C234.875 551.922 235.468 551.786 236.33 551.809ZM182.901 564.216C184.406 564.413 185.912 564.61 187.417 564.807C187.523 564.147 187.628 563.488 187.734 562.828C174.741 559.35 161.748 555.871 148.755 552.393C148.629 552.814 148.504 553.234 148.378 553.655C159.635 557.094 170.892 560.532 182.901 564.216Z" fill="#0E1E38"/>
<path d="M19.6493 553.313C19.8693 552.725 20.1515 552.557 20.5072 552.138C24.9907 553.615 29.4006 555.344 34.5709 557.243C36.2869 557.599 37.2351 557.857 38.1997 557.961C62.36 560.551 87.0105 552.653 110 546C109.997 546.168 108.562 549.37 108.467 550.095C105.238 552.026 102.201 553.727 98.9459 554.71C90.6761 557.206 82.2985 559.343 73.9908 561.718C72.3998 562.173 70.9323 563.06 69.4077 563.748C69.5771 564.23 69.7466 564.712 69.9161 565.194C72.0112 564.627 74.1069 564.063 76.2013 563.494C87.0331 560.552 98.49 556.645 109 554C108.507 554.85 107.711 556.364 107.54 556.916C107.54 556.916 107.604 556.929 107.314 556.933C106.864 557.265 106.702 557.594 106.541 557.923C106.541 557.923 106.61 557.93 106.3 557.885C105.509 558.193 105.027 558.547 104.546 558.901C104.546 558.901 104.612 558.912 104.197 558.882C98.0404 560.197 92.2982 561.543 86.5559 562.89C86.5559 562.89 86.6132 562.919 86.2689 562.825C85.1367 563.116 84.3488 563.501 83.5608 563.886C83.5608 563.886 83.6212 563.909 83.2384 563.835C80.7585 564.796 78.6616 565.83 76.5646 566.865C76.5646 566.865 76.6066 566.913 76.2419 566.825C74.772 567.446 73.6665 568.154 72.5612 568.862C72.5612 568.862 72.6044 568.932 72.2745 568.84C71.4818 569.125 71.0192 569.503 70.5565 569.882C70.5565 569.882 70.6221 569.903 70.2164 569.89C65.8571 570.945 61.9628 572.433 57.9386 573.002C45.1901 574.805 32.74 573.204 20.636 568.849C20.636 568.849 20.6226 568.916 20.7275 568.568C20.4344 568.099 20.0365 567.977 19.6384 567.856C19.6384 567.856 19.7118 567.919 19.7488 567.888C19.7611 563.15 19.7364 558.443 19.6493 553.313Z" fill="#0E1E38"/>
<path d="M108.804 548.749C85.5774 555.688 62.36 560.551 38.1997 557.961C37.2351 557.857 34.3213 557.27 33.0001 556.871C32.6431 556.348 27.7955 552.906 29.5 554C36.1643 553.79 47.9541 555.636 54.9981 555.877C56.605 556.19 57.7533 556.513 59.6991 556.871C69.9473 555.295 79.4057 553.728 88.8453 552.054C93.2065 551.28 97.8327 550.833 99.1418 545.245C99.3308 544.439 100.398 543.444 101.228 543.246C106.982 541.874 107.311 538.226 105.854 533.424C105.341 531.736 105.654 529.798 105.598 527.582C105.589 526.405 105.572 525.619 105.528 524.522C105.495 523.792 105.49 523.374 105.745 522.95C106.179 522.941 106.353 522.939 106.526 522.937C107.587 529.969 108.647 537.001 109.786 544.464C109.59 546.085 109.315 547.274 108.804 548.749Z" fill="#01050F"/>
<path d="M181.627 556.87C171.873 554.752 162.121 552.625 152.363 550.527C151.086 550.252 149.777 550.128 147.991 549.596C147.161 548.817 146.823 548.377 146.486 547.937C146.459 547.48 146.432 547.023 146.33 546.231C147.1 540.167 147.945 534.438 149.169 528.867C149.661 529.361 149.774 529.697 149.849 530.454C149.763 532.565 149.713 534.256 149.44 536.143C149.111 536.908 149.005 537.475 148.867 538.42C148.83 539.805 148.827 540.814 148.776 542.176C149.222 543.229 149.714 543.928 150.207 544.627C150.668 544.042 151.13 543.457 151.983 542.875C154.068 543.946 156.944 544.774 157.218 546.129C157.884 549.422 160.053 549.838 162.466 550.438C169.842 552.273 177.219 554.109 184.27 555.957C183.172 556.27 182.399 556.57 181.627 556.87Z" fill="#01050F"/>
<path d="M108.696 554.665C97.8644 557.608 87.0331 560.552 76.2013 563.494C74.1069 564.063 72.0112 564.627 69.9161 565.194C69.7466 564.712 69.5771 564.23 69.4077 563.748C70.9323 563.06 72.3998 562.173 73.9908 561.718C82.2985 559.343 90.6761 557.206 98.9459 554.71C102.201 553.727 105.238 552.026 108.535 550.338C108.896 551.306 109.097 552.588 109.181 554.236C109.064 554.601 108.696 554.665 108.696 554.665Z" fill="#01050F"/>
<path d="M20.791 569.165C32.7401 573.204 45.1902 574.805 57.9387 573.002C61.9629 572.433 65.8572 570.945 70.1896 569.868C67.0183 571.508 63.588 574.182 59.8958 574.613C49.0553 575.88 38.11 575.918 27.464 572.845C25.1594 572.18 23.1118 570.626 20.791 569.165Z" fill="#01050F"/>
<path d="M187.715 571.181C202.037 575.006 216.404 574.272 231.179 570.804C228.319 572.028 225.136 573.679 221.762 574.301C211.999 576.1 202.174 575.819 192.444 573.864C190.797 573.534 189.322 572.341 187.715 571.181Z" fill="#01050F"/>
<path d="M150.795 559.185C158.851 560.652 167.052 562.463 175.459 564.58C167.424 563.101 159.182 561.315 150.795 559.185Z" fill="#747680"/>
<path d="M175.717 565.201C178.258 565.973 180.884 567.087 183.594 568.542C181.052 567.77 178.427 566.657 175.717 565.201Z" fill="#747680"/>
<path d="M76.9458 566.927C78.6617 565.83 80.7587 564.796 83.2234 563.807C81.5031 564.898 79.415 565.943 76.9458 566.927Z" fill="#7F818D"/>
<path d="M72.9341 568.931C73.6665 568.154 74.772 567.446 76.2196 566.797C75.4771 567.571 74.392 568.286 72.9341 568.931Z" fill="#7F818D"/>
<path d="M148.122 553.284C147.986 553.936 147.851 554.588 147.702 555.58C147.132 555.072 146.576 554.223 146.613 553.232C147.512 553.155 147.816 553.219 148.122 553.284Z" fill="#747680"/>
<path d="M146.31 548.149C146.823 548.377 147.161 548.817 147.58 549.532C147.662 549.806 147.237 550.007 147.014 550.081C146.571 549.557 146.352 548.959 146.31 548.149Z" fill="#747680"/>
<path d="M83.9072 563.908C84.3489 563.501 85.1368 563.115 86.2686 562.792C85.8262 563.213 85.0398 563.571 83.9072 563.908Z" fill="#7F818D"/>
<path d="M147.666 556.196C148.299 556.325 148.956 556.791 149.646 557.567C149.017 557.428 148.354 556.981 147.666 556.196Z" fill="#747680"/>
<path d="M70.873 569.903C71.0193 569.503 71.4819 569.125 72.261 568.801C72.1146 569.211 71.652 569.568 70.873 569.903Z" fill="#7F818D"/>
<path d="M183.774 569.125C184.242 568.986 184.862 569.119 185.579 569.572C185.092 569.727 184.51 569.562 183.774 569.125Z" fill="#747680"/>
<path d="M148.349 552.9C147.816 553.219 147.512 553.155 146.747 552.992C146.341 552.401 146.394 551.909 146.535 551.054C147.274 551.3 147.925 551.908 148.349 552.9Z" fill="#565659"/>
<path d="M185.793 570.129C186.221 570.016 186.802 570.172 187.533 570.606C187.104 570.722 186.525 570.559 185.793 570.129Z" fill="#858B96"/>
<path d="M19.7515 568.086C20.0364 567.977 20.4343 568.099 20.7609 568.562C20.4144 568.708 20.1395 568.512 19.7515 568.086Z" fill="#7F818D"/>
<path d="M149.694 558.132C150.049 557.984 150.443 558.111 150.768 558.558C150.377 558.721 150.055 558.565 149.694 558.132Z" fill="#747680"/>
<path d="M105.724 522.776C105.729 523.194 105.735 523.612 105.58 524.577C105.556 526.014 105.693 526.904 105.829 527.793C105.893 529.618 105.581 531.556 106.093 533.244C107.551 538.045 107.222 541.694 101.468 543.065C100.638 543.263 99.5706 544.258 99.3815 545.065C98.0724 550.652 93.4462 551.1 89.085 551.874C79.6454 553.547 67.8923 555.377 58 557C56.9875 555.673 58.7113 554.073 58 552.406C59.877 551.933 60.8788 551.534 63 551C62.2725 548.946 61.762 547.151 61 545C64.4056 545.512 67.2976 545.084 67.5 540.5C67.5183 540.084 70.028 539.851 70.9984 539.924C75.6635 540.276 87.8608 530.577 88.4091 525.774C88.4768 525.181 87.5724 524.477 86.8208 523.637C87.4874 519.725 88.4518 516 90.085 512C92.7786 512.072 94.8032 512.418 96.7655 513.016C96.9404 513.697 97.178 514.127 97.4157 514.556C97.9534 514.07 98.4911 513.584 99.4331 513.071C101.182 512.899 102.526 512.753 103.87 512.606C103.87 512.606 104.311 512.749 104.567 513.219C104.427 516.215 106.281 520.724 100.646 518.762C97.2083 517.565 95.4804 519.521 94.5562 522.073C94.1769 523.121 95.525 524.794 96.0873 526.183C97.9929 525.388 100.106 524.88 101.74 523.706C103.085 522.74 103.661 520.21 105.724 522.776Z" fill="#0E1E38"/>
<path d="M149.61 522.944C149.655 521.806 149.7 520.668 150.232 519.018C151.039 516.705 151.358 514.906 151.677 513.106C156.109 512.441 160.54 511.775 165.478 511.418C168.515 514.832 171.046 517.936 173.466 521.36C172.797 523.623 167.248 521.256 169.546 526.052C169.735 527.492 170.131 528.73 170.137 529.943C165.399 529.263 167.041 525.848 166.605 523.306C166.17 520.766 166.047 516.688 164.639 516.117C161.982 515.039 158.5 515.995 155.361 516.105C155.394 516.569 155.427 517.032 155.459 517.496C156.076 517.642 156.851 517.601 157.279 517.967C158.761 519.232 160.645 520.418 161.342 522.071C161.788 523.128 160.676 525.986 159.799 526.209C158.202 526.614 156.245 525.715 154.466 525.254C153.238 524.935 152.057 524.437 150.676 523.807C150.201 523.377 149.906 523.161 149.61 522.944Z" fill="#182041"/>
<path d="M105.745 522.95C103.421 520.39 102.845 522.92 101.5 523.887C99.8658 525.061 97.753 525.568 95.8474 526.363C95.2851 524.975 93.937 523.301 94.3163 522.253C95.2405 519.701 96.9684 517.746 100.406 518.942C106.041 520.904 104.188 516.395 104.547 513.471C104.918 513.009 105.325 512.944 106.039 512.863C106.416 515.956 106.485 519.065 106.54 522.556C106.352 522.94 106.179 522.942 105.745 522.95Z" fill="#182041"/>
<path d="M151.418 513.058C151.358 514.906 151.039 516.705 150.371 518.704C150.162 517.188 150.302 515.473 150.541 513.339C150.812 512.951 150.985 512.98 151.418 513.058Z" fill="#364056"/>
<path d="M52.0782 537.787C55.1627 538.779 59.5835 536.563 59.8101 541.882C54.9093 540.801 50.0474 539.73 45.1854 538.658C45.155 538.34 45.1246 538.022 45.0942 537.704C47.2836 537.704 49.4729 537.704 52.0782 537.787Z" fill="#182041"/>
<path d="M64.946 529.378C65.2931 528.966 66.0172 528.446 67.1646 527.864C73.1439 525.033 76.0226 530.815 80.5656 531.283C80.4434 531.867 80.3213 532.451 80.1991 533.036C76.9281 532.212 73.6565 531.39 70.3862 530.563C68.6975 530.137 67.0109 529.703 64.946 529.378Z" fill="#182041"/>
<path d="M150.855 524.019C152.057 524.437 153.238 524.935 154.466 525.253C156.245 525.715 158.202 526.614 159.799 526.209C160.676 525.986 161.788 523.128 161.342 522.071C160.645 520.418 158.761 519.232 157.279 517.967C156.851 517.601 156.076 517.642 155.459 517.496C155.427 517.032 155.394 516.569 155.361 516.105C158.5 515.994 161.982 515.039 164.639 516.117C166.047 516.688 166.17 520.765 166.606 523.306C167.041 525.848 165.399 529.263 170.322 530.2C171.232 530.736 171.567 530.991 171.888 531.355C171.875 531.464 171.78 531.661 171.78 531.661C174.113 534.107 176.183 536.9 178.843 538.915C182.648 541.797 187.111 543.822 190.859 546.765C193.491 548.833 195.401 551.821 198.109 554.946C196.117 555.581 194.647 556.05 192.468 556.696C189.37 556.564 186.983 556.254 184.595 555.945C177.219 554.109 169.842 552.273 162.466 550.438C160.053 549.838 157.884 549.422 157.218 546.129C156.944 544.774 154.068 543.946 151.77 542.656C150.384 542.229 149.604 542.026 148.823 541.822C148.827 540.814 148.83 539.805 149.102 538.335C149.467 537.232 149.565 536.589 149.663 535.946C149.713 534.256 149.763 532.565 150.084 530.376C150.468 529.239 150.581 528.599 150.698 527.563C150.753 526.119 150.804 525.069 150.855 524.019Z" fill="#0E1E38"/>
<path d="M203.717 532.974C201.48 533.821 199.278 534.678 196.895 535.605C197.368 536.509 198.001 537.717 198.665 538.986C202.959 538.321 207.065 534.901 211.385 538.685C207.515 539.723 203.951 540.86 200.301 541.523C199.444 541.679 197.941 540.451 197.343 539.484C195.017 535.716 194.05 535.621 191.38 538.911C190.947 539.445 189.39 539.067 188.353 539.11C188.518 537.8 188.365 535.511 188.899 535.338C192.71 534.102 196.652 533.251 200.578 532.398C201.317 532.238 202.173 532.617 203.373 532.899C203.77 533.052 203.751 532.984 203.717 532.974Z" fill="#182041"/>
<path d="M200.578 556.348C203.665 556.089 206.216 556.016 209.183 556.462C209.589 557.29 209.581 557.597 209.572 557.904C200.52 557.655 191.467 557.407 182.021 557.015C182.399 556.57 183.172 556.27 184.269 555.957C186.982 556.254 189.37 556.564 192.163 556.892C195.059 556.784 197.551 556.658 200.578 556.348Z" fill="#01050F"/>
<path d="M172.121 531.701C171.78 531.662 171.875 531.464 172.228 531.325C173.759 530.652 175.58 530.424 176.006 529.531C177.981 525.385 177.843 525.319 182.093 525.229C180.819 526.412 179.695 527.454 178.573 528.496C178.325 529.065 178.078 529.635 177.735 530.419C175.913 531.003 174.187 531.371 172.121 531.701Z" fill="#182041"/>
<path d="M180.419 534.886C179.656 534.394 179.295 533.885 178.934 533.376C181.337 533.014 183.739 532.651 186.142 532.288C186.196 532.677 186.249 533.066 186.303 533.455C184.475 533.927 182.648 534.398 180.419 534.886Z" fill="#182041"/>
<path d="M178.995 528.384C179.695 527.454 180.818 526.411 182.093 525.229C177.842 525.319 177.981 525.385 176.005 529.531C175.58 530.424 173.759 530.652 172.241 531.216C171.566 530.991 171.232 530.736 170.713 530.224C170.131 528.73 169.735 527.492 169.922 526.044C173.072 525.174 175.638 524.513 178.638 523.74C177.391 522.566 176.612 521.834 175.834 521.102C177.844 520.366 179.854 519.631 182.225 518.889C184.885 521.168 187.186 523.454 189.832 525.898C186.592 526.794 183.005 527.533 178.995 528.384Z" fill="#182041"/>
<path d="M207 558C206.553 557.595 205.484 556.768 205.5 556C212.877 554.202 224.353 553.387 232.077 551.941C232.739 551.871 233.047 551.91 233.818 552.003C229.169 557.159 222.417 557.185 215.917 557.934C214.124 558.14 209.268 558.051 207 558Z" fill="#01050F"/>
<path d="M150.676 523.806C150.804 525.069 150.753 526.119 150.331 527.58C149.715 527.985 149.471 527.978 149.226 527.97C149.299 526.571 149.372 525.172 149.527 523.358C149.906 523.161 150.201 523.377 150.676 523.806Z" fill="#01050F"/>
<path d="M149.251 527.99C149.471 527.978 149.715 527.985 150.327 527.975C150.581 528.599 150.468 529.239 150.12 529.956C149.773 529.697 149.661 529.361 149.395 528.513C149.242 528.001 149.277 528.01 149.251 527.99Z" fill="#3B5173"/>
<path d="M182.525 564.093C170.892 560.532 159.635 557.094 148.378 553.655C148.504 553.234 148.629 552.813 148.755 552.393C161.748 555.871 174.741 559.35 187.734 562.828C187.628 563.488 187.523 564.147 187.417 564.806C185.912 564.609 184.406 564.413 182.525 564.093Z" fill="#01050F"/>
<path d="M105.598 527.582C105.453 527.084 105.317 526.194 105.368 525.069C105.572 525.62 105.589 526.405 105.598 527.582Z" fill="#364056"/>
<path d="M148.776 542.176C149.604 542.026 150.384 542.23 151.378 542.653C151.13 543.457 150.668 544.042 150.206 544.627C149.714 543.928 149.221 543.229 148.776 542.176Z" fill="#3B5173"/>
<path d="M149.44 536.144C149.565 536.589 149.467 537.232 149.135 537.959C149.005 537.475 149.111 536.908 149.44 536.144Z" fill="#3B5173"/>
<path d="M96.5259 513.197C97.0824 512.987 97.5763 513.028 98.4297 513.174C98.2515 513.764 97.7137 514.25 97.176 514.736C96.9384 514.307 96.7008 513.878 96.5259 513.197Z" fill="#182041"/>
<path d="M175.458 521.071C176.612 521.834 177.391 522.566 178.638 523.74C175.638 524.513 173.072 525.174 170.13 525.842C167.248 521.256 172.797 523.623 173.466 521.36C174.078 521.041 174.58 521.041 175.458 521.071Z" fill="#182041"/>
<path d="M36.7341 539.86C41.4098 537.247 46.0853 534.634 50.9756 532.292C57.0764 535.609 65.2583 536.142 66.8854 533.621C64.3651 532.936 61.8345 532.249 59.3789 531.26C60.7218 530.388 61.9895 529.818 63.6345 529.142C65.6993 529.467 67.386 529.901 69.0747 530.328C72.345 531.154 75.6166 531.976 78.8876 532.8C79.0098 532.216 79.1318 531.631 79.254 531.047C74.7111 530.579 71.8324 524.797 66.299 527.217C67.9526 523.943 69.47 521.216 73.8098 522.914C75.3707 523.525 77.4984 522.687 79.7302 522.529C81.7192 522.83 83.3456 523.112 85.2695 523.581C86.0211 524.421 86.9255 525.125 86.8578 525.719C86.3096 530.521 74.1122 540.22 69.4471 539.868C68.4767 539.795 66.5894 540.511 66.571 540.928C66.3687 545.512 63.2566 545.51 59.851 544.999C60.6129 547.15 61.2355 548.908 61.963 550.962C59.8418 551.496 58.3257 551.877 56.4487 552.35C57.16 554.017 57.731 555.355 57.9459 556.647C56.4418 556.277 55.2935 555.954 54.2155 555.252C53.4172 548.623 47.5807 543.394 39.7134 541.628C38.642 541.387 37.7234 540.466 36.7341 539.86ZM50.3507 537.468C48.1614 537.468 45.972 537.468 43.7827 537.468C43.8131 537.786 43.8435 538.104 43.8739 538.422C48.7358 539.494 53.5978 540.566 58.4985 541.646C58.272 536.327 53.8512 538.543 50.3507 537.468Z" fill="#01060F"/>
<path d="M194.73 527.302C197.249 528.917 199.768 530.531 201.976 532.328C200.862 532.381 200.006 532.002 199.266 532.162C195.34 533.015 191.399 533.866 187.588 535.102C187.054 535.275 187.206 537.564 187.041 538.874C188.079 538.831 189.636 539.209 190.069 538.675C192.738 535.385 193.706 535.48 196.032 539.247C196.629 540.215 198.132 541.443 198.99 541.287C202.64 540.624 206.203 539.487 210.074 538.449C205.754 534.665 201.648 538.085 197.354 538.75C196.689 537.481 196.057 536.273 195.583 535.369C197.966 534.442 200.169 533.585 202.372 532.728C206.778 535.003 211.184 537.279 215.935 539.964C216.27 540.764 216.26 541.153 215.863 541.626C208.662 541.909 203.903 545.27 201.025 551.318C200.354 552.729 200.197 554.384 199.267 556.112C196.24 556.422 193.748 556.548 191.562 556.479C193.336 555.814 194.806 555.346 196.797 554.71C194.09 551.585 192.18 548.597 189.547 546.529C185.799 543.586 181.336 541.561 177.531 538.679C174.871 536.664 172.802 533.871 170.809 531.464C172.876 531.135 174.601 530.767 176.682 530.35C179.514 530.281 182.323 526.599 184.355 530.752C187.799 529.607 191.264 528.455 194.73 527.302ZM179.509 534.634C181.336 534.162 183.164 533.691 184.992 533.219C184.938 532.83 184.884 532.441 184.831 532.052C182.428 532.415 180.025 532.778 177.623 533.14C177.984 533.649 178.345 534.158 179.509 534.634Z" fill="#01050F"/>
<path d="M84.9718 523.394C83.3456 523.112 81.7192 522.83 79.5519 522.209C78.3444 521.437 77.7324 520.779 77.0034 520.601C67.8712 518.371 67.7205 518.22 67.0183 508.978C67.2673 508.684 67.5164 508.39 67.9922 507.918C74.6021 508.709 80.985 509.678 87.8517 510.932C88.3668 511.382 88.3983 511.548 88.1473 511.966C86.9005 515.944 85.9362 519.669 84.9718 523.394Z" fill="#182041"/>
<path d="M66.704 509.136C67.7205 518.22 67.8712 518.372 77.0034 520.601C77.7324 520.779 78.3444 521.437 79.1891 522.191C77.4984 522.687 75.3707 523.525 73.8098 522.914C69.47 521.216 67.9526 523.943 65.8759 527.28C64.7057 528.211 63.9816 528.73 63.2573 529.249C61.9895 529.819 60.7218 530.388 58.948 531.407C56.3424 531.83 54.2429 531.803 52.1433 531.775C53.2241 530.793 54.3051 529.811 55.9259 528.722C56.7167 528.295 56.9674 527.974 57.218 527.653C62.616 523.796 66.3407 519.071 65.6321 511.914C65.549 511.074 66.1212 510.17 66.704 509.136Z" fill="#01050F"/>
<path d="M186.61 507.368C187.185 508.446 188.357 509.597 188.236 510.59C187.504 516.567 191.041 520.653 193.903 525.349C192.049 525.766 190.458 525.793 188.521 525.662C185.874 523.218 183.574 520.932 181.569 518.409C183.275 517.033 185.422 516.147 185.917 514.697C186.604 512.684 186.051 510.247 186.174 507.836C186.319 507.68 186.61 507.368 186.61 507.368Z" fill="#01050F"/>
<path d="M36.5076 539.759C36.099 540.604 35.4487 541.755 34.4625 542.321C30.3124 544.7 26.0619 546.905 21.8483 549.174C21.9902 549.848 22.1322 550.523 22.2743 551.197C25.8044 552.325 29.3346 553.452 33.0894 555.199C33.3055 556.131 33.297 556.442 32.8938 556.794C28.089 555.108 22.0887 554.981 17.6885 553.264C16.1885 560.764 15.6885 553.264 15.6885 553.264C17.3083 547.827 25.8295 544.57 30.176 542.313C32.0775 541.326 34.1284 540.626 36.5076 539.759Z" fill="#01050F"/>
<path d="M216.25 541.543C216.26 541.153 216.27 540.764 216.26 540.083C223.515 541.423 230.294 543.964 235.134 550.691C235.172 551.266 235.286 551.731 235.018 551.573C234.157 551.551 233.563 551.686 232.507 551.767C231.735 551.675 231.427 551.635 231.31 551.244C230.486 549.434 229.79 547.355 228.394 546.638C224.501 544.637 220.318 543.202 216.25 541.543Z" fill="#01050F"/>
<path d="M52.0851 531.831C54.243 531.803 56.3425 531.83 58.873 531.709C61.8346 532.249 64.3652 532.936 66.8855 533.621C65.2584 536.142 57.0765 535.609 51.4233 532.208C51.6565 531.853 52.0267 531.888 52.0851 531.831Z" fill="#182041"/>
<path d="M188.867 525.819C190.458 525.793 192.049 525.766 193.956 525.7C194.343 525.936 194.413 526.211 194.606 526.894C191.264 528.455 187.799 529.607 184.355 530.752C182.322 526.599 179.514 530.281 176.778 530.135C176.767 529.399 177.014 528.83 177.684 528.148C181.693 527.297 185.28 526.558 188.867 525.819Z" fill="#182041"/>
<path d="M235.286 551.731C235.286 551.731 235.172 551.266 235.185 551.029C236.133 552.221 237.069 553.65 238.172 555.373C238.241 559.353 241.471 563.515 236.576 566.227C236.008 561.183 235.647 556.457 235.286 551.731Z" fill="#01050F"/>
<path d="M18.4744 567.622C13.9479 564.684 14.8424 556.234 15.6885 551.764C16.2703 550.498 17.2731 553.905 18.0505 552.873C18.2796 552.705 18.2755 552.656 18.3379 553.078C18.4251 558.207 18.4497 562.915 18.4744 567.622Z" fill="#01050F"/>
<path d="M184.314 507.74C184.283 507.274 184.251 506.809 184.291 506C184.986 506.083 185.609 506.508 186.421 507.151C186.61 507.368 186.319 507.68 185.879 507.862C185.065 507.942 184.689 507.841 184.314 507.74Z" fill="#565659"/>
<path d="M56.9727 527.749C56.9674 527.974 56.7167 528.295 56.2329 528.604C56.2423 528.343 56.4849 528.094 56.9727 527.749Z" fill="#364056"/>
<path d="M235.018 551.573C235.647 556.457 236.007 561.183 236.199 566.284C235.527 567.022 235.025 567.386 234.107 568.1C233.205 568.854 232.719 569.256 232.232 569.659C232.232 569.659 232.297 569.677 231.98 569.633C231.188 569.942 230.713 570.295 230.239 570.647C230.239 570.647 230.302 570.676 229.879 570.6C215.092 574.036 200.725 574.77 186.352 570.579C186.352 570.579 186.305 570.63 186.189 570.361C185.491 569.936 184.91 569.78 184.329 569.624C184.329 569.624 184.303 569.687 184.237 569.351C183.551 568.883 182.93 568.75 182.309 568.617C182.309 568.617 182.309 568.684 182.254 568.325C179.573 566.852 176.946 565.738 174.32 564.623C174.32 564.623 174.299 564.685 174.12 564.361C165.74 562.227 157.54 560.416 149.339 558.605C149.339 558.605 149.321 558.678 149.423 558.341C149.131 557.875 148.737 557.748 148.343 557.62C148.343 557.62 148.308 557.693 148.305 557.357C147.644 556.555 146.987 556.089 146.33 555.623C146.33 555.623 146.31 555.686 146.357 555.345C146.54 554.352 146.675 553.7 147.038 552.664C146.614 551.672 145.962 551.064 145.311 550.457C145.311 550.457 145.435 550.201 145.68 549.986C145.926 549.771 146.35 549.57 146.761 549.634C148.465 549.892 149.775 550.016 151.052 550.291C160.81 552.389 170.561 554.516 180.709 556.779C190.156 557.171 199.208 557.419 208.716 557.765C210.984 557.816 212.812 557.904 214.605 557.698C221.105 556.95 227.857 556.923 232.97 551.821C233.563 551.686 234.157 551.551 235.018 551.573ZM181.59 563.98C183.095 564.177 184.6 564.374 186.106 564.571C186.211 563.911 186.317 563.252 186.422 562.592C173.429 559.114 160.436 555.635 147.443 552.157C147.318 552.578 147.192 552.999 147.067 553.419C158.324 556.858 169.58 560.296 181.59 563.98Z" fill="#0E1E38"/>
<path d="M18.3378 553.078C18.5577 552.489 18.84 552.321 19.1957 551.902C23.6792 553.379 28.0891 555.108 33.2594 557.007C34.9753 557.364 35.9236 557.621 36.8882 557.725C61.0485 560.316 85.699 552.417 108.688 545.764C108.686 545.932 107.25 549.135 107.155 549.86C103.927 551.79 100.889 553.491 97.6344 554.474C89.3646 556.971 80.9869 559.107 72.6793 561.483C71.0883 561.938 69.6207 562.824 68.0962 563.512C68.2656 563.994 68.4351 564.476 68.6046 564.958C70.6997 564.391 72.7954 563.827 74.8898 563.258C85.7216 560.316 97.1785 556.409 107.688 553.764C107.196 554.614 106.399 556.128 106.229 556.68C106.229 556.68 106.292 556.694 106.003 556.697C105.552 557.03 105.391 557.359 105.23 557.688C105.23 557.688 105.299 557.694 104.989 557.649C104.197 557.957 103.716 558.311 103.234 558.665C103.234 558.665 103.3 558.677 102.886 558.646C96.7289 559.961 90.9867 561.308 85.2444 562.654C85.2444 562.654 85.3016 562.683 84.9574 562.589C83.8252 562.88 83.0372 563.265 82.2493 563.651C82.2493 563.651 82.3097 563.673 81.9269 563.6C79.447 564.56 77.3501 565.594 75.2531 566.629C75.2531 566.629 75.295 566.677 74.9304 566.59C73.4604 567.21 72.355 567.918 71.2496 568.626C71.2496 568.626 71.2928 568.697 70.963 568.604C70.1703 568.889 69.7076 569.268 69.245 569.646C69.245 569.646 69.3105 569.667 68.9049 569.654C64.5455 570.709 60.6512 572.197 56.6271 572.766C43.8785 574.57 31.4285 572.968 19.3245 568.613C19.3245 568.613 19.311 568.68 19.416 568.332C19.1229 567.863 18.725 567.742 18.3269 567.62C18.3269 567.62 18.4003 567.683 18.4373 567.653C18.4496 562.915 18.4249 558.207 18.3378 553.078Z" fill="#0E1E38"/>
<path d="M107.493 548.513C84.2659 555.452 61.0485 560.315 36.8882 557.725C35.9236 557.621 33.0098 557.034 31.6886 556.635C31.3315 556.112 26.4839 552.67 28.1885 553.764C34.8528 553.554 46.6426 555.4 53.6866 555.641C55.2935 555.954 56.4418 556.277 58.3876 556.635C68.6358 555.06 78.0942 553.492 87.5337 551.818C91.8949 551.045 96.5212 550.597 97.8302 545.009C98.0193 544.203 99.0868 543.208 99.9169 543.01C105.67 541.639 105.999 537.99 104.542 533.188C104.03 531.5 104.342 529.562 104.286 527.346C104.278 526.169 104.261 525.384 104.216 524.286C104.184 523.556 104.178 523.138 104.434 522.714C104.867 522.706 105.041 522.704 105.215 522.701C106.275 529.733 107.336 536.765 108.474 544.228C108.278 545.849 108.004 547.038 107.493 548.513Z" fill="#01050F"/>
<path d="M180.315 556.634C170.562 554.516 160.81 552.389 151.052 550.291C149.775 550.016 148.466 549.892 146.679 549.36C145.85 548.582 145.512 548.141 145.174 547.701C145.147 547.244 145.12 546.787 145.019 545.995C145.788 539.931 146.633 534.202 147.857 528.631C148.35 529.125 148.462 529.461 148.538 530.218C148.452 532.329 148.402 534.02 148.128 535.908C147.799 536.672 147.694 537.24 147.555 538.184C147.519 539.569 147.515 540.578 147.465 541.94C147.91 542.993 148.402 543.692 148.895 544.391C149.357 543.806 149.818 543.221 150.672 542.639C152.756 543.71 155.632 544.538 155.906 545.893C156.573 549.186 158.742 549.603 161.154 550.203C168.531 552.038 175.907 553.873 182.958 555.721C181.86 556.034 181.088 556.334 180.315 556.634Z" fill="#01050F"/>
<path d="M107.384 554.429C96.5529 557.372 85.7216 560.316 74.8898 563.258C72.7954 563.827 70.6997 564.391 68.6046 564.958C68.4351 564.476 68.2656 563.994 68.0962 563.512C69.6207 562.824 71.0883 561.937 72.6793 561.482C80.9869 559.107 89.3646 556.97 97.6344 554.474C100.889 553.491 103.927 551.79 107.223 550.102C107.584 551.07 107.785 552.353 107.869 554C107.753 554.365 107.384 554.429 107.384 554.429Z" fill="#01050F"/>
<path d="M19.4795 568.929C31.4286 572.968 43.8787 574.57 56.6272 572.766C60.6514 572.197 64.5457 570.709 68.8781 569.632C65.7068 571.272 62.2765 573.946 58.5842 574.377C47.7438 575.644 36.7985 575.682 26.1525 572.609C23.8479 571.944 21.8003 570.39 19.4795 568.929Z" fill="#01050F"/>
<path d="M186.404 570.945C200.725 574.77 215.093 574.036 229.867 570.568C227.008 571.792 223.824 573.443 220.451 574.065C210.688 575.864 200.862 575.583 191.133 573.629C189.485 573.298 188.01 572.105 186.404 570.945Z" fill="#01050F"/>
<path d="M149.483 558.949C157.54 560.416 165.74 562.227 174.148 564.344C166.112 562.865 157.87 561.079 149.483 558.949Z" fill="#747680"/>
<path d="M174.406 564.966C176.946 565.737 179.573 566.852 182.282 568.307C179.74 567.534 177.116 566.421 174.406 564.966Z" fill="#747680"/>
<path d="M75.6343 566.691C77.3502 565.594 79.4471 564.56 81.9119 563.571C80.1915 564.662 78.1035 565.707 75.6343 566.691Z" fill="#7F818D"/>
<path d="M71.6226 568.695C72.355 567.918 73.4604 567.21 74.9081 566.561C74.1655 567.335 73.0804 568.05 71.6226 568.695Z" fill="#7F818D"/>
<path d="M146.81 553.048C146.675 553.7 146.539 554.352 146.391 555.345C145.821 554.836 145.264 553.987 145.302 552.996C146.2 552.919 146.505 552.983 146.81 553.048Z" fill="#747680"/>
<path d="M144.998 547.913C145.512 548.141 145.849 548.582 146.269 549.296C146.35 549.57 145.925 549.771 145.702 549.845C145.26 549.321 145.041 548.723 144.998 547.913Z" fill="#747680"/>
<path d="M82.5957 563.672C83.0374 563.265 83.8253 562.88 84.957 562.556C84.5146 562.977 83.7283 563.335 82.5957 563.672Z" fill="#7F818D"/>
<path d="M146.354 555.96C146.987 556.089 147.644 556.555 148.335 557.331C147.705 557.192 147.042 556.745 146.354 555.96Z" fill="#747680"/>
<path d="M69.5615 569.667C69.7078 569.268 70.1704 568.889 70.9495 568.565C70.8031 568.975 70.3405 569.332 69.5615 569.667Z" fill="#7F818D"/>
<path d="M182.463 568.889C182.93 568.75 183.551 568.883 184.267 569.336C183.781 569.491 183.198 569.326 182.463 568.889Z" fill="#747680"/>
<path d="M147.038 552.664C146.505 552.984 146.2 552.919 145.436 552.756C145.03 552.165 145.083 551.673 145.223 550.819C145.962 551.065 146.614 551.672 147.038 552.664Z" fill="#565659"/>
<path d="M184.481 569.893C184.91 569.78 185.491 569.936 186.222 570.37C185.792 570.486 185.213 570.324 184.481 569.893Z" fill="#858B96"/>
<path d="M18.4399 567.85C18.7249 567.741 19.1228 567.863 19.4493 568.327C19.1029 568.473 18.828 568.277 18.4399 567.85Z" fill="#7F818D"/>
<path d="M148.383 557.897C148.737 557.748 149.131 557.876 149.456 558.322C149.066 558.485 148.744 558.329 148.383 557.897Z" fill="#747680"/>
<path d="M104.413 522.54C104.418 522.958 104.423 523.376 104.268 524.341C104.245 525.778 104.381 526.668 104.518 527.558C104.582 529.382 104.269 531.32 104.782 533.008C106.239 537.81 105.91 541.458 100.157 542.83C99.3265 543.028 98.259 544.023 98.07 544.829C96.7609 550.417 92.1346 550.864 87.7734 551.638C78.3339 553.312 66.5808 555.142 56.6885 556.764C55.676 555.438 57.3998 553.837 56.6885 552.17C58.5654 551.697 59.5673 551.298 61.6885 550.764C60.9609 548.71 60.4504 546.915 59.6885 544.764C63.0941 545.276 65.9861 544.848 66.1885 540.264C66.2068 539.848 68.7164 539.615 69.6869 539.688C74.3519 540.04 86.5493 530.341 87.0975 525.539C87.1653 524.945 86.2609 524.241 85.5093 523.401C86.1759 519.489 87.1403 515.764 88.7734 511.764C91.467 511.836 93.4917 512.182 95.454 512.781C95.6289 513.461 95.8665 513.891 96.1041 514.32C96.6418 513.834 97.1796 513.348 98.1216 512.835C99.8702 512.663 101.215 512.517 102.559 512.371C102.559 512.371 103 512.513 103.255 512.983C103.116 515.979 104.969 520.488 99.3342 518.526C95.8967 517.329 94.1688 519.285 93.2446 521.837C92.8654 522.885 94.2135 524.558 94.7758 525.947C96.6814 525.152 98.7942 524.645 100.428 523.471C101.774 522.504 102.35 519.974 104.413 522.54Z" fill="#0E1E38"/>
<path d="M148.299 522.708C148.344 521.57 148.388 520.432 148.921 518.782C149.727 516.47 150.046 514.67 150.365 512.871C154.797 512.205 159.229 511.539 164.167 511.182C167.204 514.596 169.734 517.701 172.155 521.124C171.486 523.387 165.936 521.02 168.234 525.816C168.423 527.256 168.82 528.494 168.825 529.708C164.087 529.028 165.73 525.612 165.294 523.07C164.858 520.53 164.736 516.452 163.327 515.881C160.67 514.803 157.188 515.759 154.049 515.869C154.082 516.333 154.115 516.797 154.148 517.26C154.764 517.406 155.539 517.365 155.968 517.731C157.45 518.996 159.333 520.183 160.03 521.835C160.476 522.892 159.365 525.75 158.487 525.973C156.89 526.378 154.933 525.479 153.154 525.018C151.927 524.699 150.746 524.201 149.364 523.571C148.89 523.141 148.594 522.925 148.299 522.708Z" fill="#182041"/>
<path d="M104.433 522.714C102.11 520.154 101.534 522.684 100.188 523.651C98.5543 524.825 96.4415 525.332 94.5359 526.128C93.9736 524.739 92.6255 523.066 93.0047 522.018C93.9289 519.465 95.6568 517.51 99.0943 518.707C104.729 520.668 102.876 516.159 103.235 513.235C103.607 512.773 104.013 512.708 104.728 512.627C105.105 515.72 105.174 518.829 105.229 522.32C105.041 522.704 104.867 522.706 104.433 522.714Z" fill="#182041"/>
<path d="M150.106 512.822C150.046 514.67 149.727 516.47 149.059 518.469C148.851 516.952 148.991 515.237 149.229 513.103C149.501 512.715 149.674 512.744 150.106 512.822Z" fill="#364056"/>
<path d="M50.7667 537.551C53.8512 538.543 58.272 536.327 58.4985 541.646C53.5978 540.566 48.7358 539.494 43.8739 538.422C43.8435 538.104 43.8131 537.786 43.7827 537.468C45.972 537.468 48.1614 537.468 50.7667 537.551Z" fill="#182041"/>
<path d="M63.6345 529.142C63.9816 528.73 64.7057 528.211 65.853 527.628C71.8324 524.797 74.7111 530.579 79.254 531.047C79.1318 531.631 79.0098 532.216 78.8876 532.8C75.6166 531.976 72.345 531.154 69.0747 530.328C67.386 529.901 65.6993 529.467 63.6345 529.142Z" fill="#182041"/>
<path d="M149.544 523.783C150.746 524.201 151.927 524.699 153.154 525.018C154.933 525.479 156.89 526.378 158.487 525.973C159.365 525.75 160.476 522.892 160.03 521.835C159.333 520.182 157.45 518.996 155.968 517.731C155.539 517.365 154.764 517.406 154.148 517.26C154.115 516.796 154.082 516.333 154.049 515.869C157.188 515.759 160.67 514.803 163.327 515.881C164.736 516.452 164.859 520.53 165.294 523.07C165.73 525.612 164.087 529.028 169.01 529.964C169.921 530.5 170.255 530.755 170.576 531.119C170.564 531.228 170.468 531.426 170.468 531.426C172.802 533.871 174.871 536.664 177.531 538.679C181.336 541.561 185.799 543.586 189.547 546.529C192.18 548.597 194.09 551.585 196.797 554.71C194.806 555.346 193.336 555.814 191.156 556.46C188.059 556.328 185.671 556.018 183.283 555.709C175.907 553.873 168.531 552.038 161.154 550.203C158.742 549.603 156.573 549.186 155.906 545.893C155.632 544.538 152.756 543.71 150.458 542.42C149.073 541.994 148.292 541.79 147.512 541.586C147.515 540.578 147.519 539.569 147.79 538.1C148.156 536.996 148.254 536.353 148.352 535.71C148.402 534.02 148.452 532.329 148.772 530.141C149.156 529.003 149.27 528.363 149.387 527.328C149.442 525.883 149.493 524.833 149.544 523.783Z" fill="#0E1E38"/>
<path d="M202.405 532.738C200.169 533.585 197.966 534.442 195.583 535.369C196.057 536.274 196.689 537.481 197.354 538.75C201.648 538.085 205.754 534.665 210.073 538.449C206.203 539.487 202.639 540.624 198.99 541.287C198.132 541.443 196.629 540.215 196.032 539.248C193.706 535.48 192.738 535.386 190.069 538.676C189.636 539.209 188.079 538.831 187.041 538.874C187.206 537.565 187.054 535.275 187.587 535.102C191.399 533.866 195.34 533.015 199.266 532.162C200.005 532.002 200.862 532.381 202.061 532.664C202.458 532.816 202.439 532.748 202.405 532.738Z" fill="#182041"/>
<path d="M199.267 556.112C202.354 555.854 204.905 555.78 207.871 556.227C208.278 557.054 208.269 557.361 208.26 557.668C199.208 557.42 190.155 557.171 180.709 556.779C181.088 556.334 181.86 556.034 182.958 555.721C185.671 556.018 188.059 556.328 190.852 556.656C193.748 556.548 196.239 556.422 199.267 556.112Z" fill="#01050F"/>
<path d="M170.809 531.465C170.468 531.426 170.564 531.228 170.916 531.09C172.448 530.416 174.269 530.188 174.694 529.295C176.669 525.149 176.531 525.083 180.781 524.993C179.507 526.176 178.384 527.218 177.261 528.26C177.014 528.83 176.767 529.399 176.423 530.183C174.601 530.767 172.876 531.135 170.809 531.465Z" fill="#182041"/>
<path d="M179.107 534.65C178.345 534.158 177.984 533.649 177.623 533.141C180.025 532.778 182.428 532.415 184.83 532.052C184.884 532.441 184.938 532.83 184.991 533.219C183.164 533.691 181.336 534.162 179.107 534.65Z" fill="#182041"/>
<path d="M177.684 528.148C178.384 527.218 179.507 526.176 180.781 524.993C176.531 525.083 176.669 525.149 174.694 529.295C174.268 530.188 172.447 530.416 170.929 530.981C170.255 530.755 169.92 530.5 169.401 529.988C168.82 528.494 168.423 527.256 168.611 525.809C171.761 524.938 174.326 524.277 177.327 523.504C176.079 522.33 175.301 521.598 174.522 520.866C176.533 520.13 178.543 519.395 180.913 518.653C183.574 520.932 185.874 523.218 188.521 525.662C185.28 526.558 181.693 527.297 177.684 528.148Z" fill="#182041"/>
<path d="M205.688 557.764C205.241 557.36 204.173 556.532 204.188 555.764C211.566 553.966 223.041 553.151 230.765 551.705C231.427 551.635 231.735 551.674 232.507 551.767C227.857 556.923 221.105 556.95 214.606 557.698C212.812 557.904 207.956 557.815 205.688 557.764Z" fill="#01050F"/>
<path d="M149.364 523.571C149.493 524.833 149.442 525.883 149.019 527.344C148.404 527.749 148.159 527.742 147.915 527.734C147.987 526.335 148.06 524.936 148.216 523.122C148.594 522.925 148.89 523.141 149.364 523.571Z" fill="#01050F"/>
<path d="M147.94 527.755C148.159 527.742 148.404 527.749 149.016 527.74C149.27 528.363 149.156 529.003 148.809 529.72C148.462 529.462 148.349 529.125 148.084 528.277C147.93 527.766 147.965 527.774 147.94 527.755Z" fill="#3B5173"/>
<path d="M181.214 563.857C169.58 560.296 158.324 556.858 147.067 553.419C147.192 552.999 147.318 552.578 147.443 552.157C160.436 555.635 173.429 559.114 186.422 562.592C186.317 563.252 186.211 563.911 186.106 564.571C184.6 564.374 183.095 564.177 181.214 563.857Z" fill="#01050F"/>
<path d="M104.286 527.346C104.142 526.848 104.005 525.958 104.056 524.833C104.261 525.384 104.278 526.169 104.286 527.346Z" fill="#364056"/>
<path d="M147.464 541.94C148.292 541.79 149.073 541.994 150.067 542.417C149.818 543.221 149.356 543.806 148.895 544.391C148.402 543.692 147.91 542.993 147.464 541.94Z" fill="#3B5173"/>
<path d="M148.128 535.908C148.254 536.353 148.156 536.996 147.823 537.723C147.694 537.24 147.799 536.672 148.128 535.908Z" fill="#3B5173"/>
<path d="M95.2144 512.961C95.7709 512.751 96.2648 512.792 97.1182 512.938C96.9399 513.528 96.4022 514.014 95.8645 514.5C95.6268 514.071 95.3893 513.642 95.2144 512.961Z" fill="#182041"/>
<path d="M174.146 520.835C175.301 521.598 176.079 522.33 177.326 523.504C174.326 524.277 171.761 524.938 168.819 525.606C165.936 521.02 171.486 523.387 172.155 521.124C172.766 520.805 173.268 520.805 174.146 520.835Z" fill="#182041"/>
<path d="M36.7648 539.81C37.7234 540.466 38.642 541.387 39.7134 541.628C47.5807 543.394 55.3488 549.625 55.6885 556.264C48.5741 556.401 40.0573 555.149 33.1683 554.738C29.3347 553.452 25.8046 552.324 22.2744 551.197C22.1323 550.523 21.9904 549.848 21.8484 549.174C26.062 546.905 30.3125 544.7 34.4626 542.321C35.4489 541.755 36.0991 540.604 36.9039 539.722C36.9039 539.722 36.7953 539.761 36.7648 539.81Z" fill="#182041"/>
<path d="M215.862 541.626C220.318 543.201 224.501 544.637 228.394 546.637C229.79 547.355 230.485 549.434 230.956 551.353C223.041 553.151 215.671 554.488 207.878 555.766C204.905 555.78 201.74 556.191 199.188 556.264C199.582 554.721 200.354 552.729 201.025 551.318C203.902 545.27 208.662 541.909 215.862 541.626Z" fill="#182041"/>
<path d="M164.612 303.934C164.614 303.936 164.38 304.305 164.38 304.305C164.38 304.305 164.395 304.019 164.501 303.974C164.608 303.929 164.611 303.932 164.612 303.934Z" fill="#CD9271"/>
<path d="M90.621 305.915L90.3374 305.747C90.3374 305.747 90.5034 305.788 90.5575 305.86C90.6115 305.932 90.621 305.915 90.621 305.915Z" fill="#C68263"/>
<path d="M88.6032 302.936C88.5948 302.942 88.9247 303.143 88.9247 303.143C88.9247 303.143 88.7051 303.103 88.6642 303.008C88.6235 302.914 88.6115 302.931 88.6032 302.936Z" fill="#C68263"/>
<path d="M93.1119 307.435C93.0955 307.435 93.1284 307.434 93.1119 307.435V307.435Z" fill="#C68263"/>
<path d="M90.6032 305.937C90.5948 305.942 90.8766 306.088 90.8766 306.088C90.8766 306.088 90.7205 306.056 90.6708 305.986C90.621 305.915 90.6115 305.932 90.6032 305.937Z" fill="#C68263"/>
<path d="M67.1179 232.435C67.1121 232.453 67.1236 232.417 67.1179 232.435V232.435Z" fill="#99603F"/>
<path d="M167.133 319.468C167.091 319.489 167.175 319.446 167.133 319.468V319.468Z" fill="#EDAE53"/>
<path d="M169.628 317.958C169.647 317.98 169.358 318.341 169.358 318.341C169.358 318.341 169.352 318.014 169.458 317.955C169.564 317.897 169.609 317.936 169.628 317.958Z" fill="#EDAE53"/>
<path d="M28.5204 369.76C28.3525 369.827 28.1124 369.637 27.8088 369.184C27.9736 369.124 28.2079 369.318 28.5204 369.76Z" fill="#D19275"/>
<path d="M26.2261 376.774C25.9348 376.343 25.8131 375.783 25.6914 375.223C25.8984 375.193 26.1055 375.164 26.3125 375.134C26.3402 375.638 26.368 376.141 26.2261 376.774Z" fill="#D19275"/>
<path d="M27.3579 379.926C27.1931 380.037 27.025 379.982 26.8569 379.926C27.0228 379.87 27.1888 379.815 27.3579 379.926Z" fill="#4F352F"/>
</svg>
