<svg width="257" height="592" viewBox="0 0 257 592" fill="none" xmlns="http://www.w3.org/2000/svg">
<path d="M37.9164 540.089C38.875 540.744 39 540 40.865 541.906C49.5 542.599 57.1603 549.861 57.5 556.5C50.3856 556.637 39.8889 555.952 33 555.541C29.1664 554.255 26.9562 552.603 23.426 551.475C23.2839 550.801 23.142 550.127 23 549.452C27.2136 547.183 31.4641 544.979 35.6143 542.599C36.6005 542.034 37.2507 540.882 38.0555 540C38.0555 540 37.9469 540.04 37.9164 540.089Z" fill="#382F2F"/>
<path d="M86.999 562.911C92.2981 561.543 98.0403 560.197 104.193 558.848C98.8831 560.208 93.1627 561.57 86.999 562.911Z" fill="#7F818D"/>
<path d="M173 521.5C170.47 518.395 166.598 515.024 164.5 511.5C170.77 510.223 178.525 509.174 185.251 508.096C186.001 508.077 186.83 507.925 187.5 508C187.817 510.23 187.916 512.92 187.229 514.933C186.734 516.383 184.587 517.269 182.521 518.652C179.854 519.631 177.844 520.366 175.458 521.071C174.58 521.041 173.502 521.5 173 521.5Z" fill="#1F2D65"/>
<path d="M73.8037 327.973C73.9702 327.951 74.2273 328.167 74.5701 328.621C74.402 328.643 74.1482 328.427 73.8037 327.973Z" fill="#151F2F"/>
<path d="M107.69 333.686C112.259 333.578 117.021 333.792 122.21 334.137C117.719 334.18 112.801 334.094 107.69 333.686Z" fill="#5C3A30"/>
<path d="M132.935 334.472C137.004 333.874 141.421 333.492 146.283 333.197C142.246 333.751 137.765 334.219 132.935 334.472Z" fill="#5C3A30"/>
<path d="M144.494 195.801C144.341 195.832 144.058 195.646 143.665 195.227C143.825 195.191 144.094 195.387 144.494 195.801Z" fill="#4F352F"/>
<path d="M217.5 542C221.955 543.575 226.5 544 229.705 546.873C232.5 548 233.03 550.081 233.5 552C225.585 553.798 217.792 555.222 210 556.5C207.027 556.514 203.051 556.426 200.5 556.5C200.894 554.957 201.665 552.965 202.337 551.554C205.214 545.506 210.299 542.283 217.5 542Z" fill="#382F2F"/>
<path d="M31.6576 379.561C30.9442 377.859 30.2561 375.771 29.5854 373.285C30.2963 374.983 30.9895 377.079 31.6576 379.561Z" fill="#D19275"/>
<path d="M32.6208 381.638C32.3018 381.468 31.969 380.993 31.623 380.212C31.9421 380.382 32.2747 380.857 32.6208 381.638Z" fill="#D19275"/>
<path d="M102.524 197.041C102.675 196.963 102.626 197.424 102.621 197.655C102.476 197.724 102.319 197.574 102.208 197.394C102.182 197.352 102.314 197.213 102.524 197.041Z" fill="#4F352F"/>
<path d="M130.602 168.916C130.954 168.734 131.321 168.573 131.689 168.411C131.486 168.587 131.283 168.763 130.866 168.956C130.652 168.973 130.617 168.936 130.602 168.916Z" fill="#6B4131"/>
<path d="M117.579 167.956C117.553 167.979 117.171 167.686 117.171 167.686C117.171 167.686 117.525 167.664 117.588 167.773C117.651 167.882 117.605 167.933 117.579 167.956Z" fill="#6B4131"/>
<path d="M115.142 166.477C115.094 166.502 115.189 166.451 115.142 166.477V166.477Z" fill="#6B4131"/>
<path d="M38.0457 540.095C42.7213 537.483 47.3969 534.87 52.2871 532.528C58.3879 535.845 66.5698 536.378 68.1969 533.857C65.6766 533.172 63.146 532.485 60.6904 531.495C62.0333 530.624 63.301 530.054 64.946 529.378C67.0109 529.702 68.6975 530.137 70.3862 530.563C73.6565 531.39 76.9281 532.212 80.1991 533.036C80.3213 532.451 80.4434 531.867 80.5656 531.283C76.0226 530.815 73.1439 525.033 67.6105 527.453C69.2642 524.179 70.7815 521.452 75.1213 523.15C76.6823 523.761 78.8099 522.923 81.0417 522.764C83.0308 523.065 84.6571 523.348 86.5811 523.817C87.3326 524.657 88.2371 525.361 88.1693 525.955C87.6211 530.757 75.4237 540.456 70.7587 540.104C69.7882 540.031 67.9009 540.747 67.8826 541.164C67.6802 545.748 64.5681 545.746 61.1625 545.235C61.9244 547.386 62.547 549.143 63.2745 551.198C61.1533 551.732 59.6372 552.113 57.7603 552.586C58.4716 554.253 59.0425 555.591 59.2574 556.882C57.7533 556.513 56.605 556.19 55.527 555.488C54.7288 548.859 48.8922 543.63 41.0249 541.864C39.9535 541.623 39.0349 540.702 38.0457 540.095ZM51.6622 537.704C49.4729 537.704 47.2836 537.704 45.0942 537.704C45.1246 538.022 45.155 538.34 45.1854 538.658C50.0474 539.73 54.9093 540.801 59.8101 541.882C59.5835 536.563 55.1627 538.779 51.6622 537.704Z" fill="#270D0B"/>
<path d="M196 527C198.519 528.614 201.08 530.767 203.287 532.564C202.173 532.617 201.317 532.237 200.578 532.398C196.652 533.251 192.711 534.102 188.899 535.338C188.365 535.511 188.518 537.8 188.353 539.11C189.39 539.067 190.948 539.445 191.381 538.911C194.05 535.621 195.018 535.716 197.344 539.483C197.941 540.451 199.444 541.679 200.301 541.523C203.951 540.86 207.515 539.723 211.385 538.685C207.065 534.901 202.959 538.321 198.665 538.986C198.001 537.717 197.369 536.509 196.895 535.604C199.278 534.677 201.48 533.82 203.683 532.964C208.089 535.239 212.495 537.515 217.247 540.2C217.582 541 217.571 541.389 217.174 541.862C209.973 542.145 205.214 545.506 202.337 551.554C201.665 552.965 201.508 554.62 200.578 556.347C197.551 556.658 195.06 556.784 192.873 556.714C194.647 556.05 196.117 555.581 198.109 554.946C195.401 551.821 193.491 548.833 190.859 546.765C187.111 543.822 182.648 541.797 178.843 538.915C176.183 536.9 172.992 533.907 171 531.5C173.067 531.17 175.913 531.002 177.994 530.586C180 528.5 183.634 526.835 185.667 530.988C189.111 529.843 192.535 528.152 196 527ZM180.82 534.87C182.648 534.398 184.475 533.927 186.303 533.455C186.25 533.066 186.196 532.677 186.142 532.288C183.74 532.651 181.337 533.014 178.934 533.376C179.295 533.885 179.656 534.394 180.82 534.87Z" fill="#270D0B"/>
<path d="M86.2833 523.63C84.6571 523.348 83.0308 523.065 80.8634 522.445C79.6559 521.672 79.0439 521.015 78.3149 520.837C69.1827 518.607 69.032 518.455 68.3298 509.214C68.5789 508.92 68.8279 508.626 69.3037 508.154C75.9136 508.945 82.2965 509.914 89.1632 511.168C89.6783 511.618 89.7098 511.784 89.4589 512.202C88.212 516.18 87.2477 519.905 86.2833 523.63Z" fill="#1F2D65"/>
<path d="M68.5 508.5C69.5165 517.583 69.1827 518.607 78.3149 520.837C79.0439 521.015 80.5 521.5 81 522.5C80 523.5 76.6823 523.761 75.1213 523.15C70.7815 521.452 70.0768 524.163 68 527.5C66.8298 528.431 65.2931 528.966 64.5688 529.485C63.301 530.054 62.0333 530.624 60.2595 531.643C57.6539 532.066 55.5544 532.038 53.4548 532.011C54.5356 531.029 55.6166 530.047 57.2374 528.958C58.0282 528.531 58.2789 528.21 58.5295 527.889C63.9275 524.032 67.6522 519.307 66.9436 512.15C66.8605 511.31 67.9172 509.533 68.5 508.5Z" fill="#382F2F"/>
<path d="M187.922 507.604C188.496 508.682 189.669 509.833 189.547 510.826C188.815 516.803 192.638 521.304 195.5 526C193.645 526.417 191.484 526.131 189.547 526C186.901 523.557 182.005 522.523 180 520C181.706 518.625 186.734 516.383 187.229 514.933C187.916 512.919 187.363 510.483 187.486 508.072C187.631 507.916 187.922 507.604 187.922 507.604Z" fill="#382F2F"/>
<path d="M37.8191 539.995C37.4105 540.84 36.7603 541.991 35.774 542.557C31.6239 544.936 27.3734 547.141 23.1598 549.41C23.3018 550.084 23.4437 550.759 23.5858 551.433C27.116 552.56 31.2452 553.252 35 555C35.2162 555.931 35.4032 557.647 35 558C30.1952 556.313 23.4003 555.717 19 554C20.6199 548.563 27.141 544.806 31.4875 542.549C33.389 541.562 35.4399 540.862 37.8191 539.995Z" fill="#382F2F"/>
<path d="M217.561 541.779C217.571 541.389 217.582 541 217.571 540.319C224.827 541.659 231.606 544.2 236.446 550.927C236.483 551.502 236.598 551.967 236.33 551.809C235.468 551.787 234.875 551.922 233.818 552.003C233.047 551.91 232.739 551.871 232.622 551.48C231.797 549.67 231.101 547.591 229.705 546.873C225.812 544.873 221.629 543.437 217.561 541.779Z" fill="#382F2F"/>
<path d="M53.3966 532.067C55.5545 532.038 57.9695 531.621 60.5 531.5C63.4615 532.04 65.6767 533.172 68.197 533.857C66.5699 536.378 57.6532 535.901 52 532.5C52.2332 532.145 53.3966 532.067 53.3966 532.067Z" fill="#382F2F"/>
<path d="M190.178 526.055C191.769 526.029 193.36 526.002 195.268 525.936C195.655 526.172 195.725 526.447 195.918 527.13C192.576 528.691 189.111 529.843 185.667 530.988C183.634 526.835 180.825 530.517 178.09 530.371C178.078 529.635 178.325 529.065 178.995 528.384C183.005 527.533 186.592 526.794 190.178 526.055Z" fill="#382F2F"/>
<path d="M236.598 551.967C236.598 551.967 236.483 551.502 236.496 551.265C237.445 552.457 238.38 553.886 239.484 555.609C239.553 559.588 242.782 563.751 237.888 566.463C237.319 561.419 236.959 556.693 236.598 551.967Z" fill="#382F2F"/>
<path d="M19.7858 567.858C15.2593 564.92 16.6079 560.74 17.454 556.271C18.0358 555.004 18.5845 554.141 19.362 553.109C19.591 552.941 19.5869 552.892 19.6493 553.314C19.7365 558.443 19.7611 563.15 19.7858 567.858Z" fill="#382F2F"/>
<path d="M185.625 507.976C185.594 507.51 185.563 507.044 185.603 506.236C186.297 506.318 186.921 506.744 187.733 507.387C187.921 507.604 187.631 507.916 187.191 508.097C186.376 508.178 186.001 508.077 185.625 507.976Z" fill="#565659"/>
<path d="M58.2842 527.985C58.2789 528.21 58.0282 528.531 57.5444 528.84C57.5538 528.579 57.7964 528.33 58.2842 527.985Z" fill="#364056"/>
<path d="M236.33 551.809C236.958 556.693 237.319 561.419 237.511 566.52C236.839 567.258 236.336 567.622 235.418 568.336C234.517 569.09 234.03 569.492 233.544 569.895C233.544 569.895 233.609 569.913 233.291 569.869C232.499 570.178 232.025 570.531 231.551 570.883C231.551 570.883 231.613 570.911 231.191 570.836C216.404 574.272 202.037 575.006 187.663 570.815C187.663 570.815 187.616 570.866 187.5 570.597C186.803 570.172 186.221 570.016 185.64 569.86C185.64 569.86 185.615 569.923 185.549 569.587C184.862 569.119 184.242 568.986 183.621 568.853C183.621 568.853 183.62 568.92 183.566 568.561C180.884 567.087 178.258 565.973 175.631 564.859C175.631 564.859 175.61 564.921 175.431 564.597C167.052 562.463 158.851 560.652 150.651 558.841C150.651 558.841 150.633 558.914 150.735 558.577C150.443 558.111 150.049 557.984 149.655 557.856C149.655 557.856 149.62 557.928 149.616 557.593C148.956 556.791 148.299 556.325 147.642 555.858C147.642 555.858 147.622 555.922 147.669 555.581C147.851 554.588 147.986 553.936 148.349 552.9C147.925 551.908 147.274 551.3 146.622 550.693C146.622 550.693 146.747 550.436 146.992 550.222C147.237 550.007 147.662 549.806 148.072 549.87C149.777 550.128 151.086 550.252 152.363 550.527C162.121 552.625 171.873 554.752 182.021 557.014C191.467 557.407 200.52 557.655 210.028 558.001C212.296 558.052 214.123 558.14 215.917 557.934C222.417 557.185 229.169 557.159 234.282 552.057C234.875 551.922 235.468 551.786 236.33 551.809ZM182.901 564.216C184.406 564.413 185.912 564.61 187.417 564.807C187.523 564.147 187.628 563.488 187.734 562.828C174.741 559.35 161.748 555.871 148.755 552.393C148.629 552.814 148.504 553.234 148.378 553.655C159.635 557.094 170.892 560.532 182.901 564.216Z" fill="#622521"/>
<path d="M19.6493 553.313C19.8693 552.725 20.1515 552.557 20.5072 552.138C24.9907 553.615 29.4006 555.344 34.5709 557.243C36.2869 557.599 37.2351 557.857 38.1997 557.961C62.36 560.551 86.0105 554.653 109 548C108.997 548.168 109 549.777 108.467 550.095C105.238 552.026 102.201 553.727 98.9459 554.71C90.6761 557.206 82.2985 559.343 73.9908 561.718C72.3998 562.173 70.9323 563.06 69.4077 563.748C69.5771 564.23 69.7466 564.712 69.9161 565.194C72.0112 564.627 74.1069 564.063 76.2013 563.494C87.0331 560.552 97.8644 557.608 108.374 554.963C107.882 555.813 107.711 556.364 107.54 556.916C107.54 556.916 107.604 556.929 107.314 556.933C106.864 557.265 106.702 557.594 106.541 557.923C106.541 557.923 106.61 557.93 106.3 557.885C105.509 558.193 105.027 558.547 104.546 558.901C104.546 558.901 104.612 558.912 104.197 558.882C98.0404 560.197 92.2982 561.543 86.5559 562.89C86.5559 562.89 86.6132 562.919 86.2689 562.825C85.1367 563.116 84.3488 563.501 83.5608 563.886C83.5608 563.886 83.6212 563.909 83.2384 563.835C80.7585 564.796 78.6616 565.83 76.5646 566.865C76.5646 566.865 76.6066 566.913 76.2419 566.825C74.772 567.446 73.6665 568.154 72.5612 568.862C72.5612 568.862 72.6044 568.932 72.2745 568.84C71.4818 569.125 71.0192 569.503 70.5565 569.882C70.5565 569.882 70.6221 569.903 70.2164 569.89C65.8571 570.945 61.9628 572.433 57.9386 573.002C45.1901 574.805 32.74 573.204 20.636 568.849C20.636 568.849 20.6226 568.916 20.7275 568.568C20.4344 568.099 20.0365 567.977 19.6384 567.856C19.6384 567.856 19.7118 567.919 19.7488 567.888C19.7611 563.15 19.7364 558.443 19.6493 553.313Z" fill="#622521"/>
<path d="M108.804 548.749C85.5774 555.688 62.1603 561.091 38 558.5C37.0354 558.396 36.8212 558.359 35.5 557.961C35.1429 557.437 34.6172 556.366 34.7044 555.594C41.3688 555.384 47.9541 555.636 54.998 555.877C56.605 556.19 57.7533 556.513 59.6991 556.871C69.9472 555.295 79.4056 553.728 88.8452 552.054C93.2064 551.28 97.8326 550.833 99.1417 545.245C99.3308 544.439 100.398 543.444 101.228 543.246C106.982 541.874 107.311 538.226 105.853 533.424C105.341 531.736 105.654 529.798 105.598 527.582C105.589 526.405 105.572 525.619 105.528 524.522C105.495 523.792 105.49 523.374 105.745 522.95C106.179 522.941 106.353 522.939 106.526 522.937C107.587 529.969 108.647 537.001 109.786 544.464C109.59 546.085 109.315 547.274 108.804 548.749Z" fill="#270D0B"/>
<path d="M181.627 556.87C171.873 554.752 162.121 552.625 152.363 550.527C151.086 550.252 149.777 550.128 147.991 549.596C147.161 548.817 146.823 548.377 146.486 547.937C146.459 547.48 146.432 547.023 146.33 546.231C147.1 540.167 147.945 534.438 149.169 528.867C149.661 529.361 149.774 529.697 149.849 530.454C149.763 532.565 149.713 534.256 149.44 536.143C149.111 536.908 149.005 537.475 148.867 538.42C148.83 539.805 148.827 540.814 148.776 542.176C149.222 543.229 148.306 540.801 148.798 541.5C149.26 540.915 151.51 543.082 152.363 542.5C154.447 543.571 156.944 544.774 157.218 546.129C157.884 549.422 160.053 549.838 162.466 550.438C169.842 552.273 177.219 554.109 184.27 555.957C183.172 556.27 182.399 556.57 181.627 556.87Z" fill="#270D0B"/>
<path d="M108.535 555.5C97.703 558.443 87.0331 560.552 76.2013 563.494C74.1069 564.063 72.0112 564.627 69.9161 565.194C69.7466 564.712 69.5771 564.23 69.4077 563.748C70.9323 563.06 72.3998 562.173 73.9908 561.718C82.2985 559.343 90.6761 557.206 98.9459 554.71C102.201 553.727 105.238 551.688 108.535 550C108.896 550.968 109.097 552.588 109.181 554.236C109.064 554.601 108.535 555.5 108.535 555.5Z" fill="#382F2F"/>
<path d="M18 567C29.9491 571.039 45.1902 574.805 57.9387 573.002C61.9629 572.433 65.8572 570.945 70.1896 569.868C67.0183 571.508 63.588 574.182 59.8958 574.613C49.0553 575.88 38.11 575.918 27.464 572.845C25.1594 572.18 20.3208 568.461 18 567Z" fill="#382F2F"/>
<path d="M177 565.5C191.322 569.325 216.404 574.272 231.179 570.804C228.319 572.028 225.136 573.679 221.762 574.301C211.999 576.1 202.174 575.819 192.444 573.864C190.797 573.534 178.607 566.66 177 565.5Z" fill="#382F2F"/>
<path d="M150.795 559.185C158.851 560.652 167.052 562.463 175.459 564.58C167.424 563.101 159.182 561.315 150.795 559.185Z" fill="#747680"/>
<path d="M175.717 565.201C178.258 565.973 180.884 567.087 183.594 568.542C181.052 567.77 178.427 566.657 175.717 565.201Z" fill="#747680"/>
<path d="M76.9458 566.927C78.6617 565.83 80.7587 564.796 83.2234 563.807C81.5031 564.898 79.415 565.943 76.9458 566.927Z" fill="#7F818D"/>
<path d="M72.9341 568.931C73.6665 568.154 74.772 567.446 76.2196 566.797C75.4771 567.571 74.392 568.286 72.9341 568.931Z" fill="#7F818D"/>
<path d="M148.122 553.284C147.986 553.936 147.851 554.588 147.702 555.58C147.132 555.072 146.576 554.223 146.613 553.232C147.512 553.155 147.816 553.219 148.122 553.284Z" fill="#622521"/>
<path d="M146.31 548.149C146.823 548.377 147.161 548.817 147.58 549.532C147.662 549.806 147.237 550.007 147.014 550.081C146.571 549.557 146.352 548.959 146.31 548.149Z" fill="#622521"/>
<path d="M83.9072 563.908C84.3489 563.501 85.1368 563.115 86.2686 562.792C85.8262 563.213 85.0398 563.571 83.9072 563.908Z" fill="#7F818D"/>
<path d="M147.666 556.196C148.299 556.325 148.956 556.791 149.646 557.567C149.017 557.428 148.354 556.981 147.666 556.196Z" fill="#747680"/>
<path d="M70.873 569.903C71.0193 569.503 71.4819 569.125 72.261 568.801C72.1146 569.211 71.652 569.568 70.873 569.903Z" fill="#7F818D"/>
<path d="M183.774 569.125C184.242 568.986 184.862 569.119 185.579 569.572C185.092 569.727 184.51 569.562 183.774 569.125Z" fill="#747680"/>
<path d="M148.349 552.9C147.816 553.219 147.512 553.155 146.747 552.992C146.341 552.401 146.394 551.909 146.535 551.054C147.274 551.3 147.925 551.908 148.349 552.9Z" fill="#622521"/>
<path d="M185.793 570.129C186.221 570.016 186.802 570.172 187.533 570.606C187.104 570.722 186.525 570.559 185.793 570.129Z" fill="#858B96"/>
<path d="M19.7515 568.086C20.0364 567.977 20.4343 568.099 20.7609 568.562C20.4144 568.708 20.1395 568.512 19.7515 568.086Z" fill="#7F818D"/>
<path d="M149.694 558.132C150.049 557.984 150.443 558.111 150.768 558.558C150.377 558.721 150.055 558.565 149.694 558.132Z" fill="#747680"/>
<path d="M105.854 522.253C105.859 522.671 106.008 523.281 105.854 524.246C105.83 525.683 105.453 527.084 105.589 527.974C105.654 529.798 105.341 531.736 105.854 533.424C107.311 538.226 106.982 541.874 101.228 543.246C100.398 543.444 99.3308 544.439 99.1417 545.245C97.8326 550.833 93.2064 551.28 88.8452 552.054C79.4056 553.728 68.8923 555.377 59 557C57.9875 555.673 58.4716 554.253 57.7603 552.586C59.6372 552.113 61.1533 551.732 63.2745 551.198C62.547 549.143 61.9244 547.386 61.1625 545.234C64.5681 545.746 67.6802 545.748 67.8826 541.164C67.9009 540.747 69.7882 540.031 70.7587 540.104C75.4237 540.456 87.6211 530.757 88.1693 525.955C88.2371 525.361 87.3326 524.657 86.5811 523.817C87.2477 519.905 88.212 516.18 89.8452 512.18C92.5388 512.252 94.5635 512.598 96.5258 513.197C96.7007 513.878 96.9382 514.307 97.1759 514.736C97.7136 514.25 98.2513 513.764 99.1934 513.251C100.942 513.079 102.286 512.933 103.631 512.787C103.631 512.787 104.072 512.929 104.327 513.399C104.188 516.395 106.041 520.904 100.406 518.942C96.9685 517.745 95.2406 519.701 94.3164 522.253C93.9371 523.301 95.2853 524.974 95.8475 526.363C97.7532 525.568 99.866 525.061 101.5 523.887C102.845 522.92 103.79 519.687 105.854 522.253Z" fill="#622521"/>
<path d="M149.61 522.944C149.655 521.806 149.7 520.668 150.232 519.018C151.039 516.705 151.358 514.906 151.677 513.106C156.109 512.441 160.54 511.775 165.478 511.418C168.515 514.832 171.046 517.936 173.466 521.36C172.797 523.623 167.248 521.256 169.546 526.052C169.735 527.492 170.131 528.73 170.137 529.943C165.399 529.263 167.041 525.848 166.605 523.306C166.17 520.766 166.047 516.688 164.639 516.117C161.982 515.039 158.5 515.995 155.361 516.105C155.394 516.569 155.427 517.032 155.459 517.496C156.076 517.642 156.851 517.601 157.279 517.967C158.761 519.232 160.645 520.418 161.342 522.071C161.788 523.128 160.676 525.986 159.799 526.209C158.202 526.614 156.245 525.715 154.466 525.254C153.238 524.935 152.057 524.437 150.676 523.807C150.201 523.377 149.906 523.161 149.61 522.944Z" fill="#622521"/>
<path d="M105.745 522.95C103.421 520.39 102.845 522.92 101.5 523.887C99.8658 525.061 97.753 525.568 95.8474 526.363C95.2851 524.975 93.937 523.301 94.3163 522.253C95.2405 519.701 96.9684 517.746 100.406 518.942C106.041 520.904 104.188 516.395 104.547 513.471C104.918 513.009 105.325 512.944 106.039 512.863C106.416 515.956 106.485 519.065 106.54 522.556C106.352 522.94 106.179 522.942 105.745 522.95Z" fill="#382F2F"/>
<path d="M151.418 513.058C151.358 514.906 151.039 516.705 150.371 518.704C150.162 517.188 150.302 515.473 150.541 513.339C150.812 512.951 150.985 512.98 151.418 513.058Z" fill="#270D0B"/>
<path d="M52.0782 537.787C55.1627 538.779 59.5835 536.563 59.8101 541.882C54.9093 540.801 50.0474 539.73 45.1854 538.658C45.155 538.34 45.1246 538.022 45.0942 537.704C47.2836 537.704 49.4729 537.704 52.0782 537.787Z" fill="#382F2F"/>
<path d="M64.946 529.378C65.2931 528.966 65.8527 528.082 67 527.5C72.9794 524.669 76.0226 530.815 80.5656 531.283C80.4434 531.867 80.3213 532.451 80.1991 533.036C76.9281 532.212 73.6565 531.39 70.3862 530.563C68.6975 530.137 67.0109 529.702 64.946 529.378Z" fill="#382F2F"/>
<path d="M150.855 524.019C152.057 524.437 153.238 524.935 154.466 525.253C156.245 525.715 158.202 526.614 159.799 526.209C160.676 525.986 161.788 523.128 161.342 522.071C160.645 520.418 158.761 519.232 157.279 517.967C156.851 517.601 156.076 517.642 155.459 517.496C155.427 517.032 155.394 516.569 155.361 516.105C158.5 515.994 161.982 515.039 164.639 516.117C166.047 516.688 166.17 520.765 166.606 523.306C167.041 525.848 166.077 528.564 171 529.5C171.911 530.036 171.567 530.991 171.888 531.355C171.875 531.464 171.78 531.661 171.78 531.661C174.113 534.107 176.183 536.9 178.843 538.915C182.648 541.797 187.111 543.822 190.859 546.765C193.491 548.833 195.401 551.821 198.109 554.946C196.117 555.581 194.647 556.05 192.468 556.696C189.37 556.564 186.983 556.254 184.595 555.945C177.219 554.109 169.842 552.273 162.466 550.438C160.053 549.838 157.884 549.422 157.218 546.129C156.944 544.774 154.068 543.946 151.77 542.656C150.384 542.229 149.604 542.026 148.823 541.822C148.827 540.814 148.83 539.805 149.102 538.335C149.467 537.232 149.565 536.589 149.663 535.946C149.713 534.256 149.763 532.565 150.084 530.376C150.468 529.239 150.581 528.599 150.698 527.563C150.753 526.119 150.804 525.069 150.855 524.019Z" fill="#622521"/>
<path d="M203.717 532.974C201.48 533.821 199.278 534.678 196.895 535.605C197.368 536.509 198.001 537.717 198.665 538.986C202.959 538.321 207.065 534.901 211.385 538.685C207.515 539.723 203.951 540.86 200.301 541.523C199.444 541.679 197.941 540.451 197.343 539.484C195.017 535.716 194.05 535.621 191.38 538.911C190.947 539.445 189.39 539.067 188.353 539.11C188.518 537.8 188.365 535.511 188.899 535.338C192.71 534.102 196.652 533.251 200.578 532.398C201.317 532.238 202.173 532.617 203.373 532.899C203.77 533.052 203.751 532.984 203.717 532.974Z" fill="#382F2F"/>
<path d="M200.578 556.348C203.665 556.089 207.034 556.053 210 556.5C210.406 557.327 210.5 557.929 209.572 557.904C200.52 557.655 191.467 557.407 182.021 557.015C182.399 556.57 183.172 556.27 184.269 555.957C186.982 556.254 189.207 556.172 192 556.5C194.896 556.392 197.551 556.658 200.578 556.348Z" fill="#382F2F"/>
<path d="M172.121 531.701C171.78 531.662 171.875 531.464 172.228 531.325C173.759 530.652 175.58 530.424 176.006 529.531C177.981 525.385 177.843 525.319 182.093 525.229C180.819 526.412 180.623 527.458 179.5 528.5C179.253 529.069 178.843 529.716 178.5 530.5C176.678 531.083 174.187 531.371 172.121 531.701Z" fill="#382F2F"/>
<path d="M180.5 535C179.738 534.508 179.295 533.885 178.934 533.376C181.337 533.014 183.739 532.651 186.142 532.288C186.196 532.677 186.249 533.066 186.303 533.455C184.475 533.927 182.729 534.512 180.5 535Z" fill="#382F2F"/>
<path d="M178.995 528.384C179.695 527.454 180.818 526.411 182.092 525.229C177.842 525.319 177.981 525.385 176.005 529.531C175.58 530.424 173.518 530.936 172 531.5C171.326 531.275 170.519 530.512 170 530C169.418 528.506 169.312 527.447 169.5 526C172.65 525.129 175.638 524.513 178.638 523.74C177.391 522.566 176.612 521.834 175.834 521.102C177.844 520.366 179.854 519.631 182.225 518.889C184.885 521.168 187.186 523.454 189.832 525.898C186.591 526.794 183.005 527.533 178.995 528.384Z" fill="#382F2F"/>
<path d="M210.028 558.001C209.581 557.596 209.589 557.289 209.605 556.522C216.982 554.724 224.353 553.387 232.077 551.941C232.739 551.871 233.047 551.91 233.818 552.003C229.169 557.159 222.417 557.185 215.917 557.934C214.123 558.14 212.296 558.052 210.028 558.001Z" fill="#382F2F"/>
<path d="M150.676 523.806C150.804 525.069 150.753 526.119 150.331 527.58C149.715 527.985 149.471 527.978 149.226 527.97C149.299 526.571 149.372 525.172 149.527 523.358C149.906 523.161 150.201 523.377 150.676 523.806Z" fill="#270D0B"/>
<path d="M149.251 527.99C149.471 527.978 149.715 527.985 150.327 527.975C150.581 528.599 150.468 529.239 150.12 529.956C149.773 529.697 149.661 529.361 149.395 528.513C149.242 528.001 149.277 528.01 149.251 527.99Z" fill="#270D0B"/>
<path d="M182.525 564.093C170.892 560.532 159.635 557.094 148.378 553.655C148.504 553.234 148.629 552.813 148.755 552.393C161.748 555.871 174.741 559.35 187.734 562.828C187.628 563.488 187.523 564.147 187.417 564.806C185.912 564.609 184.406 564.413 182.525 564.093Z" fill="#382F2F"/>
<path d="M105.598 527.582C105.453 527.084 105.317 526.194 105.368 525.069C105.572 525.62 105.589 526.405 105.598 527.582Z" fill="#364056"/>
<path d="M148.776 542.176C149.604 542.026 150.384 542.23 151.378 542.653C151.13 543.457 150.668 544.042 150.206 544.627C149.714 543.928 149.221 543.229 148.776 542.176Z" fill="#270D0B"/>
<path d="M149.44 536.144C149.565 536.589 149.467 537.232 149.135 537.959C149.005 537.475 149.111 536.908 149.44 536.144Z" fill="#3B5173"/>
<path d="M96.5259 513.197C97.0824 512.987 97.5763 513.028 98.4297 513.174C98.2515 513.764 97.7137 514.25 97.176 514.736C96.9384 514.307 96.7008 513.878 96.5259 513.197Z" fill="#364056"/>
<path d="M175.458 521.071C176.612 521.834 177.391 522.566 178.638 523.74C175.638 524.513 172.442 525.832 169.5 526.5C166.617 521.914 170.5 522 173.466 521.36C174.078 521.041 174.58 521.041 175.458 521.071Z" fill="#270D0B"/>
<path d="M164.612 303.934C164.614 303.936 164.38 304.305 164.38 304.305C164.38 304.305 164.395 304.019 164.501 303.974C164.608 303.929 164.611 303.932 164.612 303.934Z" fill="#CD9271"/>
<path d="M90.621 305.915L90.3374 305.747C90.3374 305.747 90.5034 305.788 90.5575 305.86C90.6115 305.932 90.621 305.915 90.621 305.915Z" fill="#C68263"/>
<path d="M88.6032 302.936C88.5948 302.942 88.9247 303.143 88.9247 303.143C88.9247 303.143 88.7051 303.103 88.6642 303.008C88.6235 302.914 88.6115 302.931 88.6032 302.936Z" fill="#C68263"/>
<path d="M93.1119 307.435C93.0955 307.435 93.1284 307.434 93.1119 307.435V307.435Z" fill="#C68263"/>
<path d="M90.6032 305.937C90.5948 305.942 90.8766 306.088 90.8766 306.088C90.8766 306.088 90.7205 306.056 90.6708 305.986C90.621 305.915 90.6115 305.932 90.6032 305.937Z" fill="#C68263"/>
<path d="M67.1179 232.435C67.1121 232.453 67.1236 232.417 67.1179 232.435V232.435Z" fill="#99603F"/>
<path d="M167.133 319.468C167.091 319.489 167.175 319.446 167.133 319.468V319.468Z" fill="#EDAE53"/>
<path d="M169.628 317.958C169.647 317.98 169.358 318.341 169.358 318.341C169.358 318.341 169.352 318.014 169.458 317.955C169.564 317.897 169.609 317.936 169.628 317.958Z" fill="#EDAE53"/>
</svg>
