<svg width="257" height="592" viewBox="0 0 257 592" fill="none" xmlns="http://www.w3.org/2000/svg">
<path d="M19.6149 552.937C19.8352 552.688 20.0504 552.459 20.4552 552.085C20.6261 551.923 20.6001 551.909 20.517 552.15C20.1515 552.557 19.8693 552.725 19.5869 552.892C19.5869 552.892 19.5909 552.941 19.6149 552.937Z" fill="#656771"/>
<path d="M86.999 562.911C92.2981 561.543 98.0403 560.197 104.193 558.848C98.8831 560.208 93.1627 561.57 86.999 562.911Z" fill="#7F818D"/>
<path d="M233.883 569.844C234.03 569.492 234.517 569.09 235.297 568.54C235.135 568.859 234.679 569.327 233.883 569.844Z" fill="#858B96"/>
<path d="M231.858 570.866C232.025 570.531 232.499 570.178 233.29 569.835C233.126 570.18 232.646 570.515 231.858 570.866Z" fill="#858B96"/>
<path d="M73.8037 327.973C73.9702 327.951 74.2273 328.167 74.5701 328.621C74.402 328.643 74.1482 328.427 73.8037 327.973Z" fill="#151F2F"/>
<path d="M107.69 333.686C112.259 333.578 117.021 333.792 122.21 334.136C117.719 334.18 112.801 334.094 107.69 333.686Z" fill="#5C3A30"/>
<path d="M132.935 334.472C137.004 333.874 141.421 333.492 146.283 333.197C142.246 333.751 137.765 334.219 132.935 334.472Z" fill="#5C3A30"/>
<path d="M144.494 195.801C144.341 195.832 144.058 195.646 143.665 195.227C143.825 195.191 144.094 195.387 144.494 195.801Z" fill="#4F352F"/>
<path d="M27.6089 384.934C27.8162 385.169 28.0448 385.389 28.2211 385.645C28.2615 385.704 28.1212 385.887 28.0641 386.013C27.9121 385.794 27.7601 385.575 27.6121 385.14C27.6162 384.924 27.6113 384.932 27.6089 384.934Z" fill="#845F4E"/>
<path d="M31.6576 379.561C30.9442 377.859 30.2561 375.771 29.5854 373.285C30.2963 374.983 30.9895 377.079 31.6576 379.561Z" fill="#D19275"/>
<path d="M29.6168 372.604C29.2949 372.171 28.9475 371.38 28.5986 370.246C28.597 369.903 29.0664 369.988 29.2975 370.044C29.5496 370.816 29.5704 371.531 29.6168 372.604Z" fill="#D19275"/>
<path d="M32.6208 381.638C32.3018 381.468 31.969 380.993 31.623 380.212C31.9421 380.382 32.2747 380.857 32.6208 381.638Z" fill="#D19275"/>
<path d="M102.524 197.041C102.675 196.963 102.626 197.424 102.621 197.654C102.476 197.724 102.319 197.574 102.208 197.394C102.182 197.352 102.314 197.213 102.524 197.041Z" fill="#4F352F"/>
<path d="M130.602 168.916C130.954 168.734 131.321 168.573 131.689 168.411C131.486 168.587 131.283 168.763 130.866 168.956C130.652 168.973 130.617 168.936 130.602 168.916Z" fill="#6B4131"/>
<path d="M117.579 167.956C117.553 167.979 117.171 167.686 117.171 167.686C117.171 167.686 117.525 167.664 117.588 167.773C117.651 167.882 117.605 167.933 117.579 167.956Z" fill="#6B4131"/>
<path d="M115.142 166.477C115.094 166.503 115.189 166.451 115.142 166.477V166.477Z" fill="#6B4131"/>
<path d="M164.612 303.934C164.614 303.936 164.38 304.305 164.38 304.305C164.38 304.305 164.395 304.019 164.501 303.974C164.608 303.929 164.611 303.932 164.612 303.934Z" fill="#CD9271"/>
<path d="M90.621 305.915L90.3374 305.747C90.3374 305.747 90.5034 305.789 90.5575 305.86C90.6115 305.932 90.621 305.915 90.621 305.915Z" fill="#C68263"/>
<path d="M88.6032 302.936C88.5948 302.942 88.9247 303.143 88.9247 303.143C88.9247 303.143 88.7051 303.103 88.6642 303.008C88.6235 302.914 88.6115 302.931 88.6032 302.936Z" fill="#C68263"/>
<path d="M143.471 195.019C143.533 194.731 143.594 194.443 143.753 193.723C151.506 195.418 159.079 197.936 166.836 199.582C179.267 202.218 188.89 208.45 195.161 219.604C199.067 226.55 202.965 233.5 206.821 240.474C207.975 242.56 209.132 244.593 205.931 246.28C205.179 246.677 205.313 248.753 205.128 250.435C204.489 250.327 203.761 249.84 202.407 249.182C195.204 252.85 188.608 256.655 182.079 260.575C181.35 261.013 181.009 262.099 180.488 262.884C180.039 262.902 179.589 262.919 178.802 262.945C178.181 262.514 177.898 262.075 177.554 261.049C176.89 259.958 176.289 259.453 175.644 258.691C175.206 257.908 174.812 257.381 174.309 256.511C174.266 255.461 174.331 254.753 174.587 253.988C175.044 253.646 175.309 253.363 175.951 253.138C177.088 253.186 177.848 253.174 178.677 253.459C178.812 253.948 178.88 254.14 178.893 254.662C179.292 256.248 179.745 257.503 180.452 259.462C188.039 254.618 194.969 250.376 201.695 245.833C205.957 242.954 205.838 241.653 201.793 237.435C200.415 234.399 198.982 231.769 197.793 229.032C190.408 212.026 177.941 201.911 159.094 200.641C157.368 200.525 154.97 201.343 153.854 202.593C141.508 216.417 110.373 219.363 99.0003 206C96.4994 204 91.794 197.285 98 202.593C106 205.593 104.627 207.135 106.597 208C120.986 214.316 134.644 213.903 147.848 204.756C150.011 203.257 151.715 201.097 153.632 199.243C153.251 198.675 152.871 198.108 152.49 197.54C150.419 198.417 148.345 199.287 146.277 200.173C140.57 202.618 135.052 206.368 129.116 207.226C119.356 208.638 107.759 207.163 100.5 199C100.848 198.635 102.77 198.772 103.243 198.73C104.583 199.386 105.598 199.926 106.597 200.494C118.142 207.064 129.847 207.485 141.497 200.988C142.997 200.151 143.604 197.714 144.494 195.801C144.094 195.387 143.825 195.191 143.535 195.003C143.515 195.011 143.471 195.019 143.471 195.019Z" fill="#313534"/>
<path d="M104.596 333.094C100.572 332.847 96.4984 332.91 92.5357 332.278C86.8543 331.372 81.254 329.958 75.2214 328.755C74.8238 328.749 74.7156 328.768 74.6 328.575C74.2272 328.167 73.9702 327.951 73.7131 327.736C72.4377 327.19 71.1623 326.644 69.5894 326.092C64.6112 323.457 64.7813 319.844 66.4085 315.254C72.6278 297.715 74.6767 279.582 73.0122 260.395C72.958 257.624 73.1658 255.503 73.3006 253.315C73.2275 253.247 73.2761 253.053 73.393 252.796C73.51 252.35 73.5101 252.162 73.4826 251.58C73.3738 249.876 73.2927 248.566 73.34 246.937C74.1206 246.083 74.7725 245.547 75.4593 245.387C76.2687 256.511 77.0434 267.258 77.5068 278.117C76.935 279.017 76.6745 279.804 76.3168 281.017C75.2123 291.52 74.8159 301.517 70.9257 311.303C66.1188 323.394 66.9827 324.273 79.7833 327.746C87.9374 329.959 96.3173 331.34 104.596 333.094Z" fill="#5C5858"/>
<path d="M45.4551 236.498C49.7471 229.063 53.7327 221.427 58.4197 214.249C62.8398 207.48 69.5972 203.497 77.3398 201.385C82.4427 199.992 87.6409 198.949 93.2076 198.005C94.0504 198.827 94.4818 199.394 94.8687 200.259C94.7242 200.731 94.6244 200.906 94.0881 200.979C80.4286 201.519 67.9564 204.261 59.8679 215.942C55.2797 222.569 51.7025 229.896 47.4736 237.019C47.0387 237.322 46.8588 237.557 46.4684 237.674C45.9512 237.172 45.7031 236.835 45.4551 236.498Z" fill="#313534"/>
<path d="M45.1921 236.747C45.7028 236.835 45.9509 237.172 46.6931 237.716C47.1872 237.924 47.6445 237.979 47.744 238.065C47.8435 238.151 47.8435 238.415 47.7558 238.698C47.6266 239.173 47.5848 239.365 47.186 239.636C44.8916 240.934 43.3767 242.399 46.0946 244.189C53.0315 248.757 60.0392 253.22 67.0825 257.623C70.0383 259.471 71.3519 258.032 71.7641 254.723C72.3194 254.216 72.6692 253.961 73.0827 253.598C73.1467 253.49 73.3737 253.383 73.3737 253.383C73.1659 255.503 72.958 257.624 72.6476 260.116C72.4102 260.849 72.2756 261.21 71.9322 261.775C70.6401 261.727 69.5567 261.474 67.8279 260.928C60.9944 256.691 54.8064 252.748 48.6184 248.804C47.7528 248.511 46.8873 248.218 45.7354 247.921C39.4532 244.554 42.8596 240.743 45.1921 236.747Z" fill="#313534"/>
<path d="M94.913 199.961C94.4816 199.394 92.9745 198.915 92.5 198.069C96.2584 196.314 101.135 194.75 105.26 193.117C105.61 193.163 105.636 193.365 105.528 194.105C104.488 195.417 103.581 196.19 102.524 197.041C102.314 197.213 102.182 197.352 102.208 197.394C102.319 197.574 102.476 197.724 102.693 198.069C102.771 198.253 102.91 198.627 102.91 198.627C102.77 198.772 102.631 198.918 101.973 199.126C99.1207 198.145 96.7257 196.591 94.913 199.961Z" fill="#313534"/>
<path d="M47.8438 238.415C47.8438 238.415 47.8438 238.151 47.7755 237.797C47.6948 237.265 47.6824 237.086 47.6699 236.907C51.7025 229.896 55.2797 222.569 59.8679 215.942C67.9564 204.261 80.4286 201.519 94.1191 200.953C94.5867 201.028 94.5343 200.967 94.5576 201.257C94.9161 201.699 95.2515 201.852 95.595 201.972C95.6033 201.94 95.5397 201.957 95.5745 202.243C95.9357 202.687 96.2618 202.845 96.5903 202.969C96.5925 202.934 96.5469 202.986 96.5752 203.248C96.8888 203.7 97.174 203.89 97.5532 204.315C97.9341 204.711 98.2211 204.871 98.6116 205.256C98.9353 205.75 99.2183 205.904 99.5641 205.943C113.601 218.231 141.508 216.417 153.854 202.593C154.97 201.343 157.368 200.525 159.094 200.641C177.941 201.911 190.408 212.026 197.793 229.032C198.982 231.769 200.415 234.399 201.652 237.538C201.569 237.998 201.587 238.346 201.231 238.454C193.542 243.219 186.208 247.876 178.561 252.219C175.321 244.206 182.134 238.801 183.3 231.694C180.589 234.996 178.166 237.948 175.704 240.896C175.665 240.891 175.589 240.909 175.694 240.499C175.799 238.273 175.799 236.458 175.799 234.643C175.332 234.639 174.865 234.634 174.398 234.63C174.398 236.805 174.398 238.979 174.281 241.589C174.242 246.031 174.32 250.038 174.397 254.045C174.332 254.753 174.266 255.461 174.145 256.956C173.886 262.141 173.682 266.539 173.17 271.2C172.673 274.293 172.485 277.123 172.067 280.218C169.428 288.299 167.018 296.114 164.501 303.974C164.395 304.019 164.381 304.305 164.381 304.305C164.381 304.305 164.614 303.936 164.909 303.755C166.006 302.154 166.987 300.804 167.578 299.3C169.979 293.203 172.261 287.058 174.635 280.902C174.683 280.872 174.792 280.838 174.714 281.234C174.783 282.418 174.929 283.204 175.076 284.339C175.224 285.366 175.372 286.043 175.385 287.104C176.251 291.762 177.252 296.037 178.312 300.686C178.688 302.016 179.007 302.972 179.132 304.172C178.83 304.594 178.721 304.772 178.486 305.173C178.261 305.979 178.162 306.562 178.064 307.145C178.118 307.154 178.173 307.162 178.227 307.17C178.339 306.41 178.452 305.65 178.818 304.89C179.238 304.924 179.404 304.96 179.642 305.37C180.724 308.716 182.079 311.621 182.653 314.673C183.318 318.207 183.296 321.87 183.571 325.476C183.571 325.476 183.541 325.462 183.544 325.442C183.548 325.421 183.357 325.192 182.884 324.992C171.132 327.565 159.853 330.34 148.574 333.114C148.16 333.117 147.745 333.12 146.585 333.117C141.422 333.492 137.004 333.874 132.587 334.256C129.57 334.227 126.553 334.199 122.66 334.088C117.021 333.792 112.259 333.578 107.497 333.364C106.774 333.263 106.051 333.162 104.962 333.077C96.3176 331.34 87.9377 329.959 79.7836 327.746C66.983 324.273 66.1191 323.394 70.926 311.303C74.8162 301.517 75.2126 291.52 76.5726 281.322C79.5331 287.342 82.1407 293.48 84.7485 299.619C85.214 299.408 85.6793 299.197 86.1447 298.987C83.3693 291.993 80.5939 284.999 77.8184 278.005C77.0437 267.258 76.269 256.511 75.5488 244.943C75.2726 240.498 74.9417 236.873 74.6108 233.249C74.2081 233.284 73.8053 233.319 73.4026 233.354C73.4026 236.188 73.4026 239.022 73.4026 242.707C71.4924 239.639 70.0142 237.265 68.5359 234.891C68.2889 235.03 68.0419 235.169 67.7949 235.307C69.6006 239.29 71.4061 243.273 73.2118 247.256C73.293 248.566 73.3741 249.876 73.1975 251.77C72.2655 252.463 71.5913 252.572 70.5779 252.451C62.7739 247.619 55.3088 243.017 47.8438 238.415ZM90.7206 306.056L90.8767 306.088C90.8767 306.088 90.5948 305.942 90.5035 305.789L90.3375 305.747C90.3375 305.747 90.6211 305.915 90.7206 306.056ZM174.175 314.146C173.92 314.349 173.723 314.599 172.978 315.034C172.51 315.654 172.042 316.274 170.994 316.968C170.518 317.278 170.041 317.587 169.352 318.014L169.359 318.341C169.359 318.341 169.647 317.98 170.224 317.901C170.692 317.587 171.16 317.273 172.236 316.818C172.708 316.2 173.181 315.581 174.066 314.715C174.326 314.514 174.521 314.263 174.86 313.85L174.858 313.536C174.858 313.536 174.586 313.897 174.175 314.146ZM88.7052 303.103L88.9248 303.143C88.9248 303.143 88.5948 302.942 88.4785 302.442C88.1548 302.129 87.8312 301.816 87.5074 301.502C87.4021 301.622 87.2968 301.741 87.1914 301.86C87.6688 302.211 88.1461 302.563 88.7052 303.103ZM154.271 324.203C157.817 323.282 161.363 322.361 164.909 321.44C164.835 321.282 164.761 321.124 164.687 320.965C152.109 322.729 139.531 324.493 126.953 326.257C127 326.648 127.048 327.04 127.095 327.432C135.883 326.44 144.67 325.449 154.271 324.203ZM177.641 225.482C177.925 223.064 178.21 220.645 178.494 218.227C178.088 218.181 177.682 218.135 177.276 218.09C176.427 222.834 175.579 227.578 174.731 232.322C175.249 232.434 175.767 232.547 176.286 232.66C176.722 230.547 177.159 228.435 177.641 225.482Z" fill="#7F7F7F"/>
<path d="M175.52 286.721C175.372 286.043 175.224 285.365 175.251 284.079C174.5 282.5 174.883 278.841 175.252 278C177.374 276.5 177 280.922 177.374 280.905C180.5 293.569 183.5 306.267 186.842 318.874C187.682 322.042 187.398 323.967 183.858 325.22C183.295 321.869 183.317 318.207 182.653 314.673C182.079 311.621 180.724 308.715 179.674 305.18C179.62 304.346 179.517 304.117 179.326 303.927C179.007 302.972 178.688 302.016 178.412 300.26C177.476 295.213 176.498 290.967 175.52 286.721Z" fill="#5C5858"/>
<path d="M173.478 270.936C173.682 266.538 173.886 262.141 174.253 257.299C174.812 257.381 175.206 257.908 175.628 259.058C175.888 261.068 176.121 262.455 176.354 263.842C176.391 264.959 176.428 266.076 176.224 267.883C175.566 270.062 175.15 271.552 174.643 272.732C174.195 271.927 173.837 271.432 173.478 270.936Z" fill="#5C5858"/>
<path d="M174.733 273.042C175.15 271.552 175.566 270.062 176.172 268.299C176.646 271.399 176.93 274.772 176.903 278.533C176.233 278.882 175.874 278.845 175.512 278.442C175.25 276.398 174.991 274.72 174.733 273.042Z" fill="#5C5858"/>
<path d="M176.44 263.542C176.121 262.455 175.888 261.068 175.671 259.314C176.288 259.453 176.89 259.958 177.507 260.787C177.19 261.82 176.858 262.531 176.44 263.542Z" fill="#5C5858"/>
<path d="M148.897 333.324C159.853 330.339 171.131 327.565 182.74 324.952C172.514 330.845 161.102 333.134 148.897 333.324Z" fill="#5C5858"/>
<path d="M95.4961 198C97.3534 194.332 99.1993 197.638 101.762 199.345C103.496 200.5 119.353 208.638 129.113 207.226C135.049 206.368 140.496 202.918 145.496 199.345C147.845 197.666 147.996 197.5 149.496 195.5C149.877 196.068 154.115 198.777 154.496 199.345C152.58 201.199 150.008 203.258 147.845 204.756C134.641 213.903 120.681 214.171 106.292 207.855C104.322 206.99 102.794 205.618 100.5 204.541C100.118 204.459 100.087 204.214 100 204C99.7256 203.518 99.9642 203.624 99.6295 203.537C99.6152 203.516 99.5 203 99 203C98.5 203 97.9978 202.871 97.3698 202.789C96.9022 202.848 96.7228 202.917 96.5433 202.986C96.5433 202.986 96.0317 202.752 95.9961 202.5C95.6333 202.09 95.8634 202.115 95.5361 201.957C95.5361 201.957 94.996 201.957 94.496 201.5C94.1254 201.091 94.9691 199.533 95 200.5C95 200.5 94.5831 201.028 94.5521 201.054C94.6209 200.906 95.3517 198.472 95.4961 198Z" fill="#311A08"/>
<path d="M201.587 238.346C201.587 238.346 201.569 237.998 201.71 237.894C205.839 241.653 205.957 242.954 201.695 245.833C194.969 250.376 188.039 254.618 180.453 259.462C179.745 257.503 179.292 256.248 179.217 254.544C181.919 252.881 184.456 251.95 186.523 250.394C191.658 246.53 196.579 242.381 201.587 238.346Z" fill="#311A08"/>
<path d="M201.231 238.454C196.579 242.381 191.658 246.53 186.523 250.394C184.456 251.95 181.918 252.881 179.271 254.214C178.88 254.14 178.812 253.948 178.753 253.306C178.76 252.856 178.875 252.534 178.875 252.534C186.208 247.876 193.542 243.219 201.231 238.454Z" fill="#5C5858"/>
<path d="M178.561 252.219C178.875 252.534 178.761 252.856 178.685 253.009C177.848 253.174 177.088 253.186 175.93 252.666C175.603 248.39 175.673 244.645 175.742 240.9C178.166 237.948 180.589 234.996 183.3 231.693C182.134 238.801 175.32 244.206 178.561 252.219Z" fill="#5C5858"/>
<path d="M175.704 240.896C175.673 244.645 175.603 248.39 175.554 252.607C175.309 253.363 175.044 253.646 174.587 253.988C174.319 250.038 174.242 246.031 174.479 241.547C175.051 240.976 175.316 240.923 175.589 240.909C175.589 240.909 175.665 240.891 175.704 240.896Z" fill="#5C5858"/>
<path d="M77.5071 278.117C80.5939 284.999 83.3693 291.993 86.1447 298.987C85.6793 299.197 85.214 299.408 84.7485 299.619C82.1407 293.48 79.5331 287.341 76.6699 280.897C76.6748 279.804 76.9353 279.017 77.5071 278.117Z" fill="#5C5858"/>
<path d="M73.3403 246.937C71.4061 243.273 69.6006 239.29 67.7949 235.307C68.0419 235.169 68.2889 235.03 68.5359 234.891C70.0142 237.265 71.4924 239.639 73.4026 242.707C73.4026 239.022 73.4026 236.188 73.4026 233.354C73.8053 233.319 74.2081 233.284 74.6108 233.249C74.9416 236.873 75.2726 240.498 75.5142 244.566C74.7728 245.547 74.1208 246.083 73.3403 246.937Z" fill="#5C5858"/>
<path d="M70.917 252.681C71.5913 252.572 72.2655 252.463 73.2252 252.163C73.5104 252.162 73.5103 252.35 72.9646 252.79C72.1346 253.019 71.8505 252.996 71.4685 252.987C71.1564 252.973 71.0051 252.866 70.917 252.681Z" fill="#5C5858"/>
<path d="M71.5662 252.972C71.8503 252.996 72.1345 253.019 72.8475 253.047C73.2762 253.053 73.2277 253.247 73.3008 253.315C73.3739 253.383 73.1468 253.49 72.7377 253.378C72.0743 253.169 71.8202 253.071 71.5662 252.972Z" fill="#B6B6B6"/>
<path d="M47.4733 237.019C47.6821 237.086 47.6945 237.265 47.6757 237.711C47.6445 237.979 47.1872 237.924 46.9622 237.881C46.8585 237.557 47.0384 237.322 47.4733 237.019Z" fill="#41494C"/>
<path d="M71.5586 254.974C71.3522 258.032 70.0386 259.471 67.0828 257.623C60.0395 253.22 53.0318 248.757 46.0949 244.189C43.377 242.399 44.8919 240.934 47.4041 239.928C55.8389 245.086 63.6988 250.03 71.5586 254.974Z" fill="#311A08"/>
<path d="M71.7642 254.723C63.6986 250.03 55.8387 245.086 47.7611 239.85C47.5849 239.365 47.6267 239.173 47.7559 238.698C55.3087 243.017 62.7738 247.619 70.5777 252.451C71.005 252.866 71.1562 252.973 71.4683 252.987C71.8201 253.071 72.0743 253.169 72.6737 253.486C72.6693 253.961 72.3195 254.216 71.7642 254.723Z" fill="#5C5858"/>
<path d="M153.864 324.33C144.67 325.449 135.882 326.44 127.095 327.432C127.048 327.04 127 326.648 126.952 326.257C139.531 324.493 152.109 322.729 164.687 320.965C164.761 321.124 164.835 321.282 164.909 321.44C161.363 322.361 157.817 323.282 153.864 324.33Z" fill="#5C5858"/>
<path d="M174.757 278.946C174.752 279.392 174.747 279.837 174.664 280.607C172.261 287.058 169.979 293.203 167.578 299.3C166.986 300.804 166.006 302.154 164.908 303.753C164.611 303.932 164.608 303.929 164.608 303.929C167.018 296.114 169.427 288.299 172.383 280.099C173.538 279.458 174.148 279.202 174.757 278.946Z" fill="#5C5858"/>
<path d="M177.618 225.902C177.159 228.435 176.722 230.547 176.285 232.66C175.767 232.547 175.249 232.434 174.731 232.322C175.579 227.578 176.427 222.834 177.275 218.089C177.682 218.135 178.088 218.181 178.494 218.227C178.209 220.645 177.925 223.064 177.618 225.902Z" fill="#5C5858"/>
<path d="M175.385 287.104C176.498 290.967 177.477 295.213 178.354 299.885C177.252 296.036 176.251 291.762 175.385 287.104Z" fill="#B6B6B6"/>
<path d="M174.949 278.926C174.148 279.202 173.538 279.458 172.613 279.833C172.485 277.123 172.673 274.293 173.17 271.2C173.837 271.432 174.195 271.927 174.643 272.732C174.991 274.72 175.25 276.398 175.512 278.442C175.515 278.808 175.141 278.905 174.949 278.926Z" fill="#5C5858"/>
<path d="M175.694 240.499C175.316 240.923 175.051 240.976 174.596 241.112C174.398 238.979 174.398 236.805 174.398 234.63C174.865 234.634 175.332 234.639 175.799 234.643C175.799 236.458 175.799 238.273 175.694 240.499Z" fill="#5C5858"/>
<path d="M173.654 314.962C173.181 315.581 172.708 316.199 171.919 316.871C171.603 316.925 171.574 316.894 171.574 316.894C172.042 316.274 172.51 315.654 173.297 314.983C173.616 314.931 173.654 314.962 173.654 314.962Z" fill="#5C5858"/>
<path d="M178.564 304.891C178.452 305.65 178.339 306.41 178.227 307.17C178.173 307.162 178.118 307.153 178.064 307.145C178.162 306.562 178.261 305.979 178.476 305.157C178.593 304.918 178.564 304.891 178.564 304.891Z" fill="#906451"/>
<path d="M88.6235 302.914C88.1461 302.563 87.6688 302.211 87.1914 301.86C87.2968 301.741 87.4021 301.622 87.5074 301.502C87.8312 301.816 88.1548 302.129 88.545 302.687C88.6116 302.931 88.6235 302.914 88.6235 302.914Z" fill="#C68263"/>
<path d="M171.616 316.942C171.16 317.273 170.692 317.587 169.916 317.919C169.609 317.936 169.564 317.897 169.564 317.897C170.041 317.587 170.518 317.278 171.284 316.931C171.574 316.894 171.603 316.925 171.616 316.942Z" fill="#5C5858"/>
<path d="M173.6 314.912C173.723 314.599 173.92 314.349 174.395 314.039C174.615 313.931 174.65 313.96 174.65 313.96C174.521 314.263 174.326 314.514 173.86 314.839C173.654 314.962 173.616 314.931 173.6 314.912Z" fill="#5C5858"/>
<path d="M179.132 304.172C179.517 304.117 179.62 304.346 179.602 304.805C179.404 304.959 179.238 304.924 178.818 304.89C178.564 304.891 178.593 304.918 178.603 304.933C178.721 304.772 178.83 304.594 179.132 304.172Z" fill="#5C5858"/>
<path d="M174.6 313.914C174.586 313.897 174.858 313.536 174.858 313.536C174.858 313.536 174.86 313.85 174.755 313.905C174.65 313.96 174.615 313.931 174.6 313.914Z" fill="#5C5858"/>
<path d="M93.1119 307.435C93.0955 307.436 93.1284 307.434 93.1119 307.435V307.435Z" fill="#C68263"/>
<path d="M90.6032 305.937C90.5948 305.942 90.8766 306.088 90.8766 306.088C90.8766 306.088 90.7205 306.056 90.6708 305.986C90.621 305.915 90.6115 305.932 90.6032 305.937Z" fill="#C68263"/>
<path d="M67.1179 232.435C67.1121 232.453 67.1236 232.417 67.1179 232.435V232.435Z" fill="#99603F"/>
<path d="M167.133 319.468C167.091 319.489 167.175 319.446 167.133 319.468V319.468Z" fill="#EDAE53"/>
<path d="M169.628 317.958C169.647 317.98 169.358 318.341 169.358 318.341C169.358 318.341 169.352 318.014 169.458 317.955C169.564 317.897 169.609 317.936 169.628 317.958Z" fill="#5C5858"/>
<path d="M28.5204 369.76C28.3525 369.827 28.1124 369.637 27.8088 369.184C27.9736 369.124 28.2079 369.318 28.5204 369.76Z" fill="#D19275"/>
<path d="M26.2261 376.774C25.9348 376.343 25.8131 375.783 25.6914 375.223C25.8984 375.193 26.1055 375.164 26.3125 375.134C26.3402 375.638 26.368 376.141 26.2261 376.774Z" fill="#D19275"/>
<path d="M27.3579 379.926C27.1931 380.037 27.025 379.982 26.8569 379.926C27.0228 379.87 27.1888 379.815 27.3579 379.926Z" fill="#4F352F"/>
</svg>
