<svg width="257" height="592" viewBox="0 0 257 592" fill="none" xmlns="http://www.w3.org/2000/svg">
<path d="M19.6149 552.937C19.8352 552.688 20.0504 552.459 20.4552 552.085C20.6261 551.923 20.6001 551.909 20.517 552.15C20.1515 552.557 19.8693 552.725 19.5869 552.892C19.5869 552.892 19.5909 552.941 19.6149 552.937Z" fill="#656771"/>
<path d="M86.999 562.911C92.2981 561.543 98.0403 560.197 104.193 558.848C98.8831 560.208 93.1627 561.57 86.999 562.911Z" fill="#7F818D"/>
<path d="M233.883 569.844C234.03 569.492 234.517 569.09 235.297 568.54C235.135 568.859 234.679 569.327 233.883 569.844Z" fill="#858B96"/>
<path d="M231.858 570.866C232.025 570.531 232.499 570.178 233.29 569.835C233.126 570.18 232.646 570.515 231.858 570.866Z" fill="#858B96"/>
<path d="M73.8037 327.973C73.9702 327.951 74.2273 328.167 74.5701 328.621C74.402 328.643 74.1482 328.427 73.8037 327.973Z" fill="#151F2F"/>
<path d="M193.605 471.95C193.629 472.389 193.652 472.828 193.366 473.585C193.057 473.903 192.567 473.914 192.231 473.974C189.452 476.462 189.597 480.049 187.111 482.432C181.782 487.541 173.338 488.12 166.611 488.932C156.657 491.423 144.607 491.189 136.611 482.932C136.947 480.463 136.889 475.646 137.611 473.585C140.797 474.541 144.983 475.841 147.781 476.793C148.132 476.387 148.484 475.982 148.835 475.576C145.447 471.35 142.058 467.125 138.661 462.454C137.638 454.65 136.545 447.301 135.625 439.93C134.297 429.283 133.036 418.628 131.853 407.965C130.707 397.634 128.715 387.278 128.111 376.929C134.489 376.919 141.382 376.929 147.293 376.929C147.34 376.511 147.387 376.093 147.434 375.675C142.396 374.916 137.358 374.157 131.368 373.254C133.391 371.819 135.109 371.185 135.833 369.963C137.252 367.563 138.946 364.87 139.052 362.238C139.331 355.296 138.675 348.321 138.775 341.364C138.791 340.213 140.597 338.322 141.827 338.087C147.182 337.064 152.76 337.027 158.005 335.662C162.543 334.481 164.187 336.255 165.876 339.931C169.862 348.603 175.146 356.057 185.448 358.118C186.307 358.29 187.405 359.879 187.491 360.887C188.008 366.992 188.687 373.131 188.523 379.237C188.114 394.472 188.436 409.452 187.622 425C186.463 427.597 184.184 430.072 183.319 432.401C177.932 446.889 166.683 455.111 153.083 460.854C150.43 461.975 145.327 461.776 146.584 465.71C148.044 470.281 152.137 466.744 154.591 465.664C166.122 460.588 176.575 454.106 182.51 442.218C183.823 439.59 186.277 435.972 188 434C188.343 442.126 188.109 451.192 188.785 458.839C188.968 460.906 190.758 462.83 191.811 464.82C191.811 464.82 191.722 464.854 191.675 465.174C190.943 468.058 190.337 470.597 193.605 471.95Z" fill="#8B4513"/>
<path d="M138.612 473.929C138.277 475.993 137.943 478.057 137.366 480.799C137.34 483.373 136.931 485.697 137.883 487.091C141.473 492.349 146.417 496.431 152.906 496.744C162.815 497.223 172.869 497.311 182.162 492.875C185.747 491.164 189.052 488.497 192.5 486.5C191.931 487.654 191.701 489.753 190.773 490.312C184.896 493.851 185.347 499.394 185.643 505.782C185.563 507.044 185.594 507.51 185.251 508.096C178.525 509.174 172.172 510.132 165.396 511.1C160.54 511.775 156.109 512.44 151.418 513.058C150.986 512.98 150.812 512.951 150.5 512.584C149.431 508.913 148.009 505.623 147.718 502.235C147.446 499.075 146.524 497.232 143.678 495.61C134.662 490.475 133.041 485.857 134.915 475.764C135.872 470.61 136.569 465.158 135.961 460.009C133.971 443.175 131.34 426.417 128.914 409.635C128.701 408.164 128.185 406.737 127.809 405.29C126.041 413 125.442 420.561 124.587 428.094C123.725 435.691 122.829 443.298 121.547 450.832C120.059 459.586 119.367 468.142 121.508 477.002C123.713 486.124 121.617 489.616 113.637 494.898C111.996 495.984 110.259 497.671 109.667 499.447C108.218 503.8 107.412 508.366 106.039 512.863C105.325 512.944 104.918 513.008 104.292 513.001C104.072 512.929 103.631 512.787 103.638 512.435C104.098 509.896 104.44 507.679 105.026 505.528C106.322 500.776 104.666 499.595 99.9546 500.408C96.8332 500.947 93.4897 500.323 90.2572 500.07C84.2483 499.599 78.2481 499.019 72.2802 498.488C70.7373 506.367 70.9873 506.95 78.3714 508.283C81.7578 508.893 85.2801 508.73 88.7239 509.081C89.0634 509.116 89.2852 510.302 89.1206 510.918C82.2967 509.914 75.9137 508.945 69.5307 507.975C69.6894 505.654 69.7228 503.316 70.0353 501.016C70.5353 497.336 69.7355 494.775 66.5087 492.131C63.9707 490.051 62.4342 486.088 61.6717 482.688C60.8944 479.223 60.8833 475.233 61.7891 471.804C66.0888 455.522 64.0257 439.022 64.0928 422.589C64.1892 398.959 63.9789 375.318 64.6897 351.705C64.94 343.396 67.518 335.156 69.4602 326.492C71.1626 326.644 72.438 327.19 73.804 327.973C74.1485 328.427 74.4023 328.643 74.6861 328.814C74.716 328.768 74.8241 328.749 74.7657 329.059C74.6724 329.577 74.6375 329.785 74.2629 330.057C72.7102 331.603 70.7704 332.929 70.4113 334.595C68.8904 341.651 67.8393 348.808 66.6162 356.326C66.6148 357.787 66.6132 358.849 66.3583 360.241C65.9499 362.371 65.6186 364.175 65.6691 365.968C65.9248 375.051 66.2807 384.13 66.5995 393.21C66.9357 402.785 67.2697 412.359 67.3516 422.246C67.264 426.339 67.4291 430.119 67.3477 434.205C67.0111 435.98 66.8593 437.447 66.8417 438.916C66.7525 446.337 66.93 453.77 66.5534 461.175C66.2856 466.445 65.2882 471.678 64.6131 477.372C63.4975 488.116 68.5391 493.277 77.2589 494.823C84.689 496.14 92.36 496.871 99.8893 496.653C108.644 496.4 115.628 492.187 119.6 483.498C118.935 479.697 118.267 476.315 117.818 472.664C117.881 469.567 117.726 466.737 117.576 463.456C119 450.668 120.651 438.352 121.778 425.988C123.266 409.662 124.343 393.3 125.669 376.637C126.703 376.531 127.665 376.739 128.626 376.948C129.696 387.287 130.707 397.633 131.853 407.965C133.036 418.628 134.297 429.283 135.626 439.929C136.546 447.301 137.638 454.65 138.645 462.87C138.629 467.13 138.62 470.529 138.612 473.929ZM181.369 499.41C172.801 499.586 164.22 500.116 155.668 499.813C150.034 499.613 150.632 502.852 150.576 506.461C150.506 510.942 153.301 511.323 156.532 510.828C164.182 509.655 171.818 508.372 179.429 506.968C184.122 506.101 184.704 504.328 181.369 499.41Z" fill="#6C3C0C"/>
<path d="M183.547 325.421C185.685 337.016 188.248 348.554 189.82 360.226C190.971 368.776 190.821 377.5 191.38 386.536C191.25 393.623 190.991 400.321 190.294 407.717C190.083 414.256 190.312 420.097 190.54 425.938C190.602 431.961 190.663 437.984 190.324 444.659C190.167 447.179 190.41 449.047 190.653 450.915C191.005 455.324 191.356 459.734 191.76 464.482C190.758 462.83 188.968 460.906 188.785 458.839C188.109 451.192 187.964 443.498 187.783 435.003C188.318 430.982 190.308 427.546 186.621 424.924C187.283 409.695 188.114 394.472 188.523 379.237C188.687 373.131 188.008 366.992 187.491 360.887C187.405 359.879 186.307 358.29 185.448 358.118C175.146 356.057 169.862 348.603 165.876 339.931C164.187 336.255 162.543 334.481 158.005 335.662C152.76 337.027 147.182 337.064 141.827 338.087C140.597 338.322 138.791 340.213 138.775 341.364C138.675 348.32 139.331 355.296 139.052 362.238C138.946 364.87 137.252 367.563 135.833 369.963C135.109 371.185 133.391 371.819 131.368 373.254C137.358 374.157 142.396 374.916 147.434 375.675C147.387 376.093 147.34 376.511 147.293 376.929C141.382 376.929 135.47 376.929 129.093 376.938C127.664 376.739 126.703 376.531 125.207 376.629C120.599 376.935 116.527 376.935 112.454 376.935C112.479 376.253 112.505 375.571 112.53 374.89C115.487 374.89 118.51 375.253 121.371 374.729C122.714 374.484 124.731 372.55 124.758 371.345C124.953 362.528 124.537 353.698 124.7 344.88C124.781 340.519 123.05 339.121 118.871 338.836C111.772 338.353 104.668 337.543 97.6525 336.359C90.448 335.143 90.426 334.847 87.5533 341.7C83.5551 351.239 76.1246 358.045 66 360.5C66.0016 359.438 66.6145 357.787 67.0056 356.327C76.3007 355.576 84.4076 343.872 86.2188 336.812C86.4562 335.886 84.3021 333.85 82.8555 333.099C80.265 331.754 76.7677 331.003 74 330C74.0348 329.792 73.337 328.5 75 328.5C81.0911 329.393 86.8544 331.372 92.5358 332.278C96.4984 332.91 100.572 332.847 104.962 333.077C106.051 333.162 106.774 333.263 107.69 333.686C112.801 334.094 117.719 334.18 123.086 334.218C126.553 334.199 129.57 334.227 132.935 334.472C137.765 334.219 142.246 333.751 147.029 333.203C147.745 333.12 148.16 333.117 148.897 333.324C161.102 333.134 172.329 330.692 183.029 325C183.172 325.039 183.547 325.421 183.547 325.421ZM185.374 344.816C184.596 341.772 183.883 338.711 183.029 335.69C181.23 329.325 181.144 329.302 174.935 331.067C165.842 333.651 165.532 333.817 169.923 342.013C173.291 348.302 177.803 353.795 186.555 354.847C186.167 351.402 185.844 348.529 185.374 344.816ZM127.962 340.122C127.846 348.393 127.619 356.665 127.712 364.933C127.731 366.555 128.988 368.164 129.673 369.779C131.616 368.271 135.136 366.861 135.238 365.238C135.791 356.405 135.501 347.519 135.501 338.215C132.666 338.721 130.583 339.093 127.962 340.122Z" fill="#6C3C0C"/>
<path d="M192.618 486.64C189.081 488.928 185.747 491.164 182.162 492.875C172.869 497.311 162.815 497.223 152.906 496.744C146.417 496.431 141.473 492.349 137.883 487.091C136.931 485.697 137.34 483.373 137.365 481.204C145.603 488.784 155.461 488.66 165.566 487.441C172.292 486.63 179.231 486.421 184.56 481.312C187.046 478.929 189.207 476.088 192 474C192.767 475.786 193.428 477.606 193.845 479.051C193.805 479.477 193.766 479.903 193.399 480.915C192.94 482.71 192.807 483.92 192.675 485.129C192.686 485.536 192.696 485.942 192.618 486.64Z" fill="#8B4513"/>
<path d="M190.813 425.626C190.312 420.097 190.083 414.256 190.208 408.173C190.736 413.726 190.911 419.52 190.813 425.626Z" fill="#6C3C0C"/>
<path d="M193.528 472C190.097 470.914 190.703 468.374 191.438 465.443C192.222 467.295 192.956 469.515 193.528 472Z" fill="#6C3C0C"/>
<path d="M190.903 450.654C190.41 449.047 190.167 447.179 190.255 445.123C190.776 446.755 190.965 448.574 190.903 450.654Z" fill="#6C3C0C"/>
<path d="M193.836 478.801C193.112 477.549 192.034 475.29 192 474.29C191.986 473.889 192.892 473.704 193.137 473.71C193.686 475.3 193.838 477.025 193.836 478.801Z" fill="#6C3C0C"/>
<path d="M192.688 484.277C192.551 483.183 193.129 481.987 193.5 480.5C193.627 481.54 193.07 482.844 192.688 484.277Z" fill="#6C3C0C"/>
<path d="M187 423.5C190.84 425.803 188.032 432.428 187.5 436C185.614 438.79 183.823 439.59 182.511 442.218C176.575 454.106 166.122 460.588 154.591 465.664C152.138 466.744 148.044 470.281 146.584 465.71C145.327 461.776 150.43 461.975 153.084 460.854C166.684 455.111 177.933 446.889 183.319 432.401C184.185 430.072 185.842 426.097 187 423.5Z" fill="#6C3C0C"/>
<path d="M138.112 473.932C137.732 470.528 138.587 465.247 138.612 461.432C142.016 465.242 146.223 471.206 149.612 475.432C149.26 475.838 148.463 477.026 148.112 477.432C145.313 476.48 141.297 474.888 138.112 473.932Z" fill="#8B4513"/>
<path d="M66.358 360.241C76.736 357.456 83.5551 351.239 87.5533 341.7C90.426 334.847 90.448 335.143 97.6525 336.359C104.668 337.543 111.772 338.353 118.871 338.836C123.05 339.121 124.781 340.519 124.7 344.88C124.537 353.698 124.953 362.528 124.758 371.345C124.731 372.55 122.714 374.484 121.371 374.729C118.51 375.253 115.487 374.889 112.53 374.889C112.505 375.571 112.479 376.253 112.454 376.935C116.527 376.935 121.576 375.923 126.111 375.932C125.32 392.287 123.265 409.662 121.777 425.988C120.65 438.352 120.247 452.13 118.5 465C115.025 469.363 110.632 471.732 107.487 475.563C107.94 475.973 108.393 476.383 108.846 476.794C110.118 475.662 111.228 474.165 112.71 473.503C114.139 472.864 116.855 472.155 118.5 472C119.168 475.382 119.768 480.695 120 484.5C113.077 486.125 105.794 486.627 99.2601 487.462C88.8436 488.792 78.0173 489.593 69.5 482C67.8104 480.494 65.3463 479.33 63.5 478C64.1718 472.751 66.2853 466.445 66.5531 461.175C66.9297 453.77 66.7522 446.337 66.8414 438.916C66.859 437.447 66.9308 432.681 67.6042 431C69.8308 433.793 71.5032 440.126 73.2059 443.097C80.3885 455.632 92.5454 461.755 104.993 467.367C106.067 467.852 108.041 466.342 109.596 465.758C109.576 465.132 109.556 464.506 109.536 463.879C105.73 462.12 101.896 460.418 98.1233 458.591C84.939 452.207 74.6305 443.163 70.3109 428.536C69.6407 426.267 67.7549 426.697 66.8414 424.5C66.5066 414.925 66.9354 402.785 66.5992 393.21C66.2804 384.13 65.9246 375.051 65.6688 365.968C65.6183 364.175 65.9496 362.371 66.358 360.241Z" fill="#8B4513"/>
<path d="M63.5 477C65.3497 477.885 68.4432 479.437 70.1327 480.943C78.6501 488.536 88.8437 488.792 99.2602 487.462C105.794 486.628 113.58 485.206 120.5 484C116.964 492.265 108.643 496.4 99.8891 496.653C92.3598 496.871 84.6888 496.14 77.2587 494.823C68.5389 493.277 62.3844 487.744 63.5 477Z" fill="#8B4513"/>
<path d="M96.5881 512.945C94.5633 512.599 92.5386 512.252 90.1275 511.928C89.7097 511.784 89.6782 511.618 89.604 511.203C89.2849 510.302 89.0631 509.116 88.7236 509.081C85.2797 508.73 81.7575 508.893 78.371 508.283C70.987 506.95 70.737 506.367 72.2799 498.488C78.2477 499.019 84.248 499.6 90.2569 500.07C93.4893 500.323 96.8328 500.947 99.9543 500.408C104.666 499.595 106.322 500.776 105.026 505.528C104.439 507.679 104.098 509.897 103.638 512.435C102.286 512.933 100.942 513.079 98.8337 513.148C97.576 513.028 97.0821 512.987 96.5881 512.945Z" fill="#8B4513"/>
<path d="M74.2627 330.057C77.3702 330.996 80.2651 331.754 82.8556 333.099C84.3022 333.85 86.4563 335.886 86.2189 336.812C84.4077 343.872 75.295 358.148 66 358.5C66.8334 351.379 68.8903 341.651 70.4111 334.595C70.7703 332.929 72.7101 331.603 74.2627 330.057Z" fill="#8B4513"/>
<path d="M182 499C184.965 503.729 184.194 506.634 179.5 507.5C171.889 508.904 164.182 509.655 156.532 510.828C153.301 511.323 149.93 510.981 150 506.5C150.056 502.891 148.866 498.8 154.5 499C163.051 499.303 173.062 498.988 182 499Z" fill="#8B4513"/>
<path d="M67.3512 422.246C68.5176 424.131 69.6406 426.267 70.3108 428.536C74.6304 443.163 84.9389 452.207 98.1232 458.591C101.896 460.418 105.73 462.12 109.536 463.879C109.556 464.506 109.576 465.132 109.596 465.758C108.041 466.342 106.067 467.852 104.993 467.367C92.5453 461.755 80.3884 455.632 73.2058 443.098C71.5031 440.126 69.9108 437.091 67.9308 433.992C66.4999 430.5 66.5 426.5 67.3512 422.246Z" fill="#6C3C0C"/>
<path d="M117.817 472.664C115.953 473.088 114.139 472.864 112.71 473.503C111.228 474.165 110.119 475.662 108.846 476.794C108.393 476.383 107.94 475.973 107.487 475.563C110.632 471.732 113.777 467.901 117.247 463.989C117.726 466.737 117.881 469.567 117.817 472.664Z" fill="#8B4513"/>
<path d="M185.447 345.236C185.844 348.529 186.167 351.402 186.555 354.847C177.803 353.795 173.291 348.302 169.923 342.014C165.532 333.817 165.842 333.651 174.935 331.067C181.145 329.302 181.23 329.325 183.029 335.69C183.883 338.711 184.597 341.773 185.447 345.236Z" fill="#8B4513"/>
<path d="M127.713 338.215C130.065 337.515 133.666 338.721 136.5 338.215C136.5 347.519 135.791 356.405 135.238 365.238C135.137 366.861 131.616 368.271 129.674 369.779C128.988 368.164 127.731 366.555 127.713 364.933C127.62 356.665 127.328 346.815 127.713 338.215Z" fill="#8B4513"/>
<path d="M107.69 333.686C112.259 333.578 117.021 333.792 122.21 334.137C117.719 334.18 112.801 334.094 107.69 333.686Z" fill="#5C3A30"/>
<path d="M132.935 334.472C137.004 333.874 141.421 333.492 146.283 333.197C142.246 333.751 137.765 334.219 132.935 334.472Z" fill="#5C3A30"/>
<path d="M144.494 195.801C144.341 195.832 144.058 195.646 143.665 195.227C143.825 195.191 144.094 195.387 144.494 195.801Z" fill="#4F352F"/>
<path d="M27.6089 384.934C27.8162 385.169 28.0448 385.389 28.2211 385.645C28.2615 385.704 28.1212 385.887 28.0641 386.013C27.9121 385.794 27.7601 385.575 27.6121 385.14C27.6162 384.924 27.6113 384.932 27.6089 384.934Z" fill="#845F4E"/>
<path d="M31.6576 379.561C30.9442 377.859 30.2561 375.771 29.5854 373.285C30.2963 374.983 30.9895 377.079 31.6576 379.561Z" fill="#D19275"/>
<path d="M29.6168 372.604C29.2949 372.171 28.9475 371.38 28.5986 370.246C28.597 369.903 29.0664 369.988 29.2975 370.044C29.5496 370.816 29.5704 371.531 29.6168 372.604Z" fill="#D19275"/>
<path d="M32.6208 381.638C32.3018 381.468 31.969 380.993 31.623 380.212C31.9421 380.382 32.2747 380.857 32.6208 381.638Z" fill="#D19275"/>
<path d="M102.524 197.041C102.675 196.963 102.626 197.424 102.621 197.655C102.476 197.724 102.319 197.574 102.208 197.394C102.182 197.352 102.314 197.213 102.524 197.041Z" fill="#4F352F"/>
<path d="M130.602 168.916C130.954 168.734 131.321 168.573 131.689 168.411C131.486 168.587 131.283 168.763 130.866 168.956C130.652 168.973 130.617 168.936 130.602 168.916Z" fill="#6B4131"/>
<path d="M117.579 167.956C117.553 167.979 117.171 167.686 117.171 167.686C117.171 167.686 117.525 167.664 117.588 167.773C117.651 167.882 117.605 167.933 117.579 167.956Z" fill="#6B4131"/>
<path d="M115.142 166.477C115.094 166.502 115.189 166.451 115.142 166.477V166.477Z" fill="#6B4131"/>
<path d="M164.612 303.934C164.614 303.936 164.38 304.305 164.38 304.305C164.38 304.305 164.395 304.019 164.501 303.974C164.608 303.929 164.611 303.932 164.612 303.934Z" fill="#CD9271"/>
<path d="M90.621 305.915L90.3374 305.747C90.3374 305.747 90.5034 305.788 90.5575 305.86C90.6115 305.932 90.621 305.915 90.621 305.915Z" fill="#C68263"/>
<path d="M88.6032 302.936C88.5948 302.942 88.9247 303.143 88.9247 303.143C88.9247 303.143 88.7051 303.103 88.6642 303.008C88.6235 302.914 88.6115 302.931 88.6032 302.936Z" fill="#C68263"/>
<path d="M93.1119 307.435C93.0955 307.436 93.1284 307.434 93.1119 307.435V307.435Z" fill="#C68263"/>
<path d="M90.6032 305.937C90.5948 305.942 90.8766 306.088 90.8766 306.088C90.8766 306.088 90.7205 306.056 90.6708 305.986C90.621 305.915 90.6115 305.932 90.6032 305.937Z" fill="#C68263"/>
<path d="M67.1179 232.435C67.1121 232.453 67.1236 232.417 67.1179 232.435V232.435Z" fill="#99603F"/>
<path d="M167.133 319.468C167.091 319.489 167.175 319.446 167.133 319.468V319.468Z" fill="#EDAE53"/>
<path d="M169.628 317.958C169.647 317.98 169.358 318.341 169.358 318.341C169.358 318.341 169.352 318.014 169.458 317.955C169.564 317.897 169.609 317.936 169.628 317.958Z" fill="#EDAE53"/>
<path d="M28.5204 369.76C28.3525 369.827 28.1124 369.637 27.8088 369.184C27.9736 369.124 28.2079 369.318 28.5204 369.76Z" fill="#D19275"/>
<path d="M26.2261 376.774C25.9348 376.343 25.8131 375.783 25.6914 375.223C25.8984 375.193 26.1055 375.164 26.3125 375.134C26.3402 375.638 26.368 376.141 26.2261 376.774Z" fill="#D19275"/>
<path d="M27.3579 379.926C27.1931 380.037 27.025 379.982 26.8569 379.926C27.0228 379.87 27.1888 379.815 27.3579 379.926Z" fill="#4F352F"/>
</svg>
