<svg width="257" height="592" viewBox="0 0 257 592" fill="none" xmlns="http://www.w3.org/2000/svg">
<path d="M239.652 555.902C244.728 558.5 249.914 560.908 254.83 563.777C257.156 565.135 257.032 567.562 254.822 569.143C251.482 571.532 248.14 574.11 244.42 575.744C229.037 582.5 212.516 584.6 196.079 586.981C170.071 590.749 143.893 592.655 117.664 591.744C97.816 591.055 78.0199 588.776 58.2124 587.07C41.5913 585.638 25.4008 582.197 9.92734 575.827C7.51083 574.832 5.07309 573.53 3.12924 571.82C-1.26724 567.952 -1.07584 564.414 3.98739 561.469C7.96518 559.155 12.4662 557.74 17.0778 556.299C16.6079 560.74 15.2592 564.92 19.7487 567.888C19.7118 567.919 19.6384 567.856 19.7516 568.086C20.1396 568.513 20.4145 568.708 20.656 568.91C20.6225 568.916 20.636 568.849 20.7909 569.165C23.1117 570.626 25.1593 572.18 27.4638 572.845C38.1098 575.918 49.0551 575.88 59.8956 574.613C63.5879 574.182 67.0182 571.508 70.5951 569.881C70.622 569.903 70.5565 569.882 70.8729 569.903C71.6518 569.568 72.1145 569.211 72.5907 568.894C72.6043 568.932 72.5611 568.862 72.9341 568.931C74.3919 568.286 75.477 567.571 76.5843 566.885C76.6065 566.913 76.5645 566.865 76.9456 566.927C79.4149 565.943 81.5029 564.898 83.606 563.881C83.6212 563.909 83.5608 563.886 83.9071 563.908C85.0396 563.571 85.826 563.213 86.6128 562.887C86.6131 562.919 86.5559 562.89 86.9991 562.911C93.1628 561.57 98.8831 560.208 104.608 558.879C104.612 558.912 104.546 558.901 104.851 558.874C105.642 558.519 106.127 558.19 106.611 557.895C106.61 557.93 106.541 557.923 106.77 557.804C107.199 557.411 107.4 557.138 107.603 556.897C107.604 556.929 107.54 556.916 107.832 556.801C108.498 555.984 108.872 555.281 109.272 554.225C109.097 552.589 108.896 551.306 108.627 549.781C108.562 549.37 108.564 549.203 108.804 548.749C109.315 547.274 109.59 546.085 110.316 544.901C122.598 545.236 134.426 545.566 146.33 546.231C146.432 547.023 146.459 547.48 146.31 548.149C146.353 548.959 146.572 549.557 146.768 550.296C146.747 550.436 146.622 550.693 146.535 551.054C146.394 551.909 146.341 552.401 146.154 553.134C146.576 554.223 147.132 555.072 147.655 555.922C147.622 555.922 147.642 555.858 147.666 556.196C148.354 556.981 149.017 557.428 149.65 557.902C149.62 557.929 149.655 557.856 149.694 558.132C150.055 558.565 150.377 558.721 150.666 558.896C150.633 558.914 150.651 558.841 150.795 559.185C159.182 561.315 167.424 563.101 175.638 564.904C175.61 564.921 175.631 564.859 175.717 565.202C178.428 566.657 181.052 567.77 183.648 568.902C183.62 568.92 183.621 568.853 183.774 569.125C184.51 569.562 185.092 569.727 185.645 569.908C185.615 569.923 185.64 569.86 185.793 570.129C186.525 570.559 187.104 570.722 187.65 570.875C187.616 570.866 187.663 570.815 187.715 571.181C189.322 572.341 190.796 573.534 192.444 573.864C202.174 575.819 211.999 576.1 221.762 574.301C225.135 573.679 228.319 572.028 231.602 570.879C231.613 570.911 231.551 570.883 231.858 570.866C232.646 570.515 233.126 570.18 233.608 569.879C233.609 569.913 233.544 569.895 233.883 569.845C234.679 569.327 235.135 568.859 235.712 568.189C236.336 567.622 236.839 567.258 237.719 566.838C242.782 563.751 239.553 559.588 239.652 555.902Z" fill="#999CBA"/>
<g opacity="0.98">
<path d="M193.605 471.95C193.629 472.389 193.652 472.828 193.366 473.585C193.057 473.903 192.567 473.914 192.231 473.974C189.452 476.462 189.597 480.049 187.111 482.432C181.782 487.541 173.338 488.12 166.611 488.932C156.657 491.423 144.607 491.189 136.611 482.932C136.947 480.463 136.889 475.646 137.611 473.585C140.797 474.541 144.983 475.841 147.781 476.793C148.132 476.387 148.484 475.982 148.835 475.576C145.447 471.35 142.058 467.125 138.661 462.454C137.638 454.65 136.545 447.301 135.625 439.93C134.297 429.283 133.036 418.628 131.853 407.965C130.707 397.634 128.715 387.278 128.111 376.929C134.489 376.919 141.382 376.929 147.293 376.929C147.34 376.511 147.387 376.093 147.434 375.675C142.396 374.916 137.358 374.157 131.368 373.254C133.391 371.819 135.109 371.185 135.833 369.963C137.252 367.563 138.946 364.87 139.052 362.238C139.331 355.296 138.675 348.321 138.775 341.364C138.791 340.213 140.597 338.322 141.827 338.087C147.182 337.064 152.76 337.027 158.005 335.662C162.543 334.481 164.187 336.255 165.876 339.931C169.862 348.603 175.146 356.057 185.448 358.118C186.307 358.29 187.405 359.879 187.491 360.887C188.008 366.992 188.687 373.131 188.523 379.237C188.114 394.472 188.436 409.452 187.622 425C186.463 427.597 184.184 430.072 183.319 432.401C177.932 446.889 166.683 455.111 153.083 460.854C150.43 461.975 145.327 461.776 146.584 465.71C148.044 470.281 152.137 466.744 154.591 465.664C166.122 460.588 176.575 454.106 182.51 442.218C183.823 439.59 186.277 435.972 188 434C188.343 442.126 188.109 451.192 188.785 458.839C188.968 460.906 190.758 462.83 191.811 464.82C191.811 464.82 191.722 464.854 191.675 465.174C190.943 468.058 190.337 470.597 193.605 471.95Z" fill="#0E2949"/>
<path d="M138.612 473.929C138.277 475.993 137.943 478.057 137.366 480.799C137.34 483.373 136.931 485.697 137.883 487.091C141.473 492.349 146.417 496.431 152.906 496.744C162.815 497.223 172.869 497.311 182.162 492.875C185.747 491.164 189.052 488.497 192.5 486.5C191.931 487.654 191.701 489.753 190.773 490.312C184.896 493.851 185.347 499.394 185.643 505.782C185.563 507.044 185.594 507.51 185.251 508.096C178.525 509.174 172.172 510.132 165.396 511.1C160.54 511.775 156.109 512.44 151.418 513.058C150.986 512.98 150.812 512.951 150.5 512.584C149.431 508.913 148.009 505.623 147.718 502.235C147.446 499.075 146.524 497.232 143.678 495.61C134.662 490.475 133.041 485.857 134.915 475.764C135.872 470.61 136.569 465.158 135.961 460.009C133.971 443.175 131.34 426.417 128.914 409.635C128.701 408.164 128.185 406.737 127.809 405.29C126.041 413 125.442 420.561 124.587 428.094C123.725 435.691 122.829 443.298 121.547 450.832C120.059 459.586 119.367 468.142 121.508 477.002C123.713 486.124 121.617 489.616 113.637 494.898C111.996 495.984 110.259 497.671 109.667 499.447C108.218 503.8 107.412 508.366 106.039 512.863C105.325 512.944 104.918 513.008 104.292 513.001C104.072 512.929 103.631 512.787 103.638 512.435C104.098 509.896 104.44 507.679 105.026 505.528C106.322 500.776 104.666 499.595 99.9546 500.408C96.8332 500.947 93.4897 500.323 90.2572 500.07C84.2483 499.599 78.2481 499.019 72.2802 498.488C70.7373 506.367 70.9873 506.95 78.3714 508.283C81.7578 508.893 85.2801 508.73 88.7239 509.081C89.0634 509.116 89.2852 510.302 89.1206 510.918C82.2967 509.914 75.9137 508.945 69.5307 507.975C69.6894 505.654 69.7228 503.316 70.0353 501.016C70.5353 497.336 69.7355 494.775 66.5087 492.131C63.9707 490.051 62.4342 486.088 61.6717 482.688C60.8944 479.223 60.8833 475.233 61.7891 471.804C66.0888 455.522 64.0257 439.022 64.0928 422.589C64.1892 398.959 63.9789 375.318 64.6897 351.705C64.94 343.396 67.518 335.156 69.4602 326.492C71.1626 326.644 72.438 327.19 73.804 327.973C74.1485 328.427 74.4023 328.643 74.6861 328.814C74.716 328.768 74.8241 328.749 74.7657 329.059C74.6724 329.577 74.6375 329.785 74.2629 330.057C72.7102 331.603 70.7704 332.929 70.4113 334.595C68.8904 341.651 67.8393 348.808 66.6162 356.326C66.6148 357.787 66.6132 358.849 66.3583 360.241C65.9499 362.371 65.6186 364.175 65.6691 365.968C65.9248 375.051 66.2807 384.13 66.5995 393.21C66.9357 402.785 67.2697 412.359 67.3516 422.246C67.264 426.339 67.4291 430.119 67.3477 434.205C67.0111 435.98 66.8593 437.447 66.8417 438.916C66.7525 446.337 66.93 453.77 66.5534 461.175C66.2856 466.445 65.2882 471.678 64.6131 477.372C63.4975 488.116 68.5391 493.277 77.2589 494.823C84.689 496.14 92.36 496.871 99.8893 496.653C108.644 496.4 115.628 492.187 119.6 483.498C118.935 479.697 118.267 476.315 117.818 472.664C117.881 469.567 117.726 466.737 117.576 463.456C119 450.668 120.651 438.352 121.778 425.988C123.266 409.662 124.343 393.3 125.669 376.637C126.703 376.531 127.665 376.739 128.626 376.948C129.696 387.287 130.707 397.633 131.853 407.965C133.036 418.628 134.297 429.283 135.626 439.929C136.546 447.301 137.638 454.65 138.645 462.87C138.629 467.13 138.62 470.529 138.612 473.929ZM181.369 499.41C172.801 499.586 164.22 500.116 155.668 499.813C150.034 499.613 150.632 502.852 150.576 506.461C150.506 510.942 153.301 511.323 156.532 510.828C164.182 509.655 171.818 508.372 179.429 506.968C184.122 506.101 184.704 504.328 181.369 499.41Z" fill="#0F1A2F"/>
<path d="M183.547 325.421C185.685 337.016 188.248 348.554 189.82 360.226C190.971 368.776 190.821 377.5 191.38 386.536C191.25 393.623 190.991 400.321 190.294 407.717C190.083 414.256 190.312 420.097 190.54 425.938C190.602 431.961 190.663 437.984 190.324 444.659C190.167 447.179 190.41 449.047 190.653 450.915C191.005 455.324 191.356 459.734 191.76 464.482C190.758 462.83 188.968 460.906 188.785 458.839C188.109 451.192 187.964 443.498 187.783 435.003C188.318 430.982 190.308 427.546 186.621 424.924C187.283 409.695 188.114 394.472 188.523 379.237C188.687 373.131 188.008 366.992 187.491 360.887C187.405 359.879 186.307 358.29 185.448 358.118C175.146 356.057 169.862 348.603 165.876 339.931C164.187 336.255 162.543 334.481 158.005 335.662C152.76 337.027 147.182 337.064 141.827 338.087C140.597 338.322 138.791 340.213 138.775 341.364C138.675 348.32 139.331 355.296 139.052 362.238C138.946 364.87 137.252 367.563 135.833 369.963C135.109 371.185 133.391 371.819 131.368 373.254C137.358 374.157 142.396 374.916 147.434 375.675C147.387 376.093 147.34 376.511 147.293 376.929C141.382 376.929 135.47 376.929 129.093 376.938C127.664 376.739 126.703 376.531 125.207 376.629C120.599 376.935 116.527 376.935 112.454 376.935C112.479 376.253 112.505 375.571 112.53 374.89C115.487 374.89 118.51 375.253 121.371 374.729C122.714 374.484 124.731 372.55 124.758 371.345C124.953 362.528 124.537 353.698 124.7 344.88C124.781 340.519 123.05 339.121 118.871 338.836C111.772 338.353 104.668 337.543 97.6525 336.359C90.448 335.143 90.426 334.847 87.5533 341.7C83.5551 351.239 76.1246 358.045 66 360.5C66.0016 359.438 66.6145 357.787 67.0056 356.327C76.3007 355.576 84.4076 343.872 86.2188 336.812C86.4562 335.886 84.3021 333.85 82.8555 333.099C80.265 331.754 76.7677 331.003 74 330C74.0348 329.792 73.337 328.5 75 328.5C81.0911 329.393 86.8544 331.372 92.5358 332.278C96.4984 332.91 100.572 332.847 104.962 333.077C106.051 333.162 106.774 333.263 107.69 333.686C112.801 334.094 117.719 334.18 123.086 334.218C126.553 334.199 129.57 334.227 132.935 334.472C137.765 334.219 142.246 333.751 147.029 333.203C147.745 333.12 148.16 333.117 148.897 333.324C161.102 333.134 172.329 330.692 183.029 325C183.172 325.039 183.547 325.421 183.547 325.421ZM185.374 344.816C184.596 341.772 183.883 338.711 183.029 335.69C181.23 329.325 181.144 329.302 174.935 331.067C165.842 333.651 165.532 333.817 169.923 342.013C173.291 348.302 177.803 353.795 186.555 354.847C186.167 351.402 185.844 348.529 185.374 344.816ZM127.962 340.122C127.846 348.393 127.619 356.665 127.712 364.933C127.731 366.555 128.988 368.164 129.673 369.779C131.616 368.271 135.136 366.861 135.238 365.238C135.791 356.405 135.501 347.519 135.501 338.215C132.666 338.721 130.583 339.093 127.962 340.122Z" fill="#151F2F"/>
<path d="M192.618 486.64C189.081 488.928 185.747 491.164 182.162 492.875C172.869 497.311 162.815 497.223 152.906 496.744C146.417 496.431 141.473 492.349 137.883 487.091C136.931 485.697 137.34 483.373 137.365 481.204C145.603 488.784 155.461 488.66 165.566 487.441C172.292 486.63 179.231 486.421 184.56 481.312C187.046 478.929 189.207 476.088 192 474C192.767 475.786 193.428 477.606 193.845 479.051C193.805 479.477 193.766 479.903 193.399 480.915C192.94 482.71 192.807 483.92 192.675 485.129C192.686 485.536 192.696 485.942 192.618 486.64Z" fill="#10223B"/>
<path d="M190.813 425.626C190.312 420.097 190.083 414.256 190.208 408.173C190.736 413.726 190.911 419.52 190.813 425.626Z" fill="#858B96"/>
<path d="M193.528 472C190.097 470.914 190.703 468.374 191.438 465.443C192.222 467.295 192.956 469.515 193.528 472Z" fill="#0F1A2F"/>
<path d="M190.903 450.654C190.41 449.047 190.167 447.179 190.255 445.123C190.776 446.755 190.965 448.574 190.903 450.654Z" fill="#858B96"/>
<path d="M193.836 478.801C193.112 477.549 192.034 475.29 192 474.29C191.986 473.889 192.892 473.704 193.137 473.71C193.686 475.3 193.838 477.025 193.836 478.801Z" fill="#0F1A2F"/>
<path d="M192.688 484.277C192.551 483.183 193.129 481.987 193.5 480.5C193.627 481.54 193.07 482.844 192.688 484.277Z" fill="#0F1A2F"/>
<path d="M187 423.5C190.84 425.803 188.032 432.428 187.5 436C185.614 438.79 183.823 439.59 182.511 442.218C176.575 454.106 166.122 460.588 154.591 465.664C152.138 466.744 148.044 470.281 146.584 465.71C145.327 461.776 150.43 461.975 153.084 460.854C166.684 455.111 177.933 446.889 183.319 432.401C184.185 430.072 185.842 426.097 187 423.5Z" fill="#0E1E38"/>
<path d="M138.112 473.932C137.732 470.528 138.587 465.247 138.612 461.432C142.016 465.242 146.223 471.206 149.612 475.432C149.26 475.838 148.463 477.026 148.112 477.432C145.313 476.48 141.297 474.888 138.112 473.932Z" fill="#10223B"/>
<path d="M66.358 360.241C76.736 357.456 83.5551 351.239 87.5533 341.7C90.426 334.847 90.448 335.143 97.6525 336.359C104.668 337.543 111.772 338.353 118.871 338.836C123.05 339.121 124.781 340.519 124.7 344.88C124.537 353.698 124.953 362.528 124.758 371.345C124.731 372.55 122.714 374.484 121.371 374.729C118.51 375.253 115.487 374.889 112.53 374.889C112.505 375.571 112.479 376.253 112.454 376.935C116.527 376.935 121.576 375.923 126.111 375.932C125.32 392.287 123.265 409.662 121.777 425.988C120.65 438.352 120.247 452.13 118.5 465C115.025 469.363 110.632 471.732 107.487 475.563C107.94 475.973 108.393 476.383 108.846 476.794C110.118 475.662 111.228 474.165 112.71 473.503C114.139 472.864 116.855 472.155 118.5 472C119.168 475.382 119.768 480.695 120 484.5C113.077 486.125 105.794 486.627 99.2601 487.462C88.8436 488.792 78.0173 489.593 69.5 482C67.8104 480.494 65.3463 479.33 63.5 478C64.1718 472.751 66.2853 466.445 66.5531 461.175C66.9297 453.77 66.7522 446.337 66.8414 438.916C66.859 437.447 66.9308 432.681 67.6042 431C69.8308 433.793 71.5032 440.126 73.2059 443.097C80.3885 455.632 92.5454 461.755 104.993 467.367C106.067 467.852 108.041 466.342 109.596 465.758C109.576 465.132 109.556 464.506 109.536 463.879C105.73 462.12 101.896 460.418 98.1233 458.591C84.939 452.207 74.6305 443.163 70.3109 428.536C69.6407 426.267 67.7549 426.697 66.8414 424.5C66.5066 414.925 66.9354 402.785 66.5992 393.21C66.2804 384.13 65.9246 375.051 65.6688 365.968C65.6183 364.175 65.9496 362.371 66.358 360.241Z" fill="#0E2949"/>
<path d="M63.5 477C65.3497 477.885 68.4432 479.437 70.1327 480.943C78.6501 488.536 88.8437 488.792 99.2602 487.462C105.794 486.628 113.58 485.206 120.5 484C116.964 492.265 108.643 496.4 99.8891 496.653C92.3598 496.871 84.6888 496.14 77.2587 494.823C68.5389 493.277 62.3844 487.744 63.5 477Z" fill="#10223B"/>
<path d="M96.5881 512.945C94.5633 512.599 92.5386 512.252 90.1275 511.928C89.7097 511.784 89.6782 511.618 89.604 511.203C89.2849 510.302 89.0631 509.116 88.7236 509.081C85.2797 508.73 81.7575 508.893 78.371 508.283C70.987 506.95 70.737 506.367 72.2799 498.488C78.2477 499.019 84.248 499.6 90.2569 500.07C93.4893 500.323 96.8328 500.947 99.9543 500.408C104.666 499.595 106.322 500.776 105.026 505.528C104.439 507.679 104.098 509.897 103.638 512.435C102.286 512.933 100.942 513.079 98.8337 513.148C97.576 513.028 97.0821 512.987 96.5881 512.945Z" fill="#10223B"/>
<path d="M74.2627 330.057C77.3702 330.996 80.2651 331.754 82.8556 333.099C84.3022 333.85 86.4563 335.886 86.2189 336.812C84.4077 343.872 75.295 358.148 66 358.5C66.8334 351.379 68.8903 341.651 70.4111 334.595C70.7703 332.929 72.7101 331.603 74.2627 330.057Z" fill="#0E2949"/>
<path d="M182 499C184.965 503.729 184.194 506.634 179.5 507.5C171.889 508.904 164.182 509.655 156.532 510.828C153.301 511.323 149.93 510.981 150 506.5C150.056 502.891 148.866 498.8 154.5 499C163.051 499.303 173.062 498.988 182 499Z" fill="#10223B"/>
<path d="M67.3512 422.246C68.5176 424.131 69.6406 426.267 70.3108 428.536C74.6304 443.163 84.9389 452.207 98.1232 458.591C101.896 460.418 105.73 462.12 109.536 463.879C109.556 464.506 109.576 465.132 109.596 465.758C108.041 466.342 106.067 467.852 104.993 467.367C92.5453 461.755 80.3884 455.632 73.2058 443.098C71.5031 440.126 69.9108 437.091 67.9308 433.992C66.4999 430.5 66.5 426.5 67.3512 422.246Z" fill="#0E1E38"/>
<path d="M117.817 472.664C115.953 473.088 114.139 472.864 112.71 473.503C111.228 474.165 110.119 475.662 108.846 476.794C108.393 476.383 107.94 475.973 107.487 475.563C110.632 471.732 113.777 467.901 117.247 463.989C117.726 466.737 117.881 469.567 117.817 472.664Z" fill="#10223B"/>
<path d="M185.447 345.236C185.844 348.529 186.167 351.402 186.555 354.847C177.803 353.795 173.291 348.302 169.923 342.014C165.532 333.817 165.842 333.651 174.935 331.067C181.145 329.302 181.23 329.325 183.029 335.69C183.883 338.711 184.597 341.773 185.447 345.236Z" fill="#0E2949"/>
<path d="M127.713 338.215C130.065 337.515 133.666 338.721 136.5 338.215C136.5 347.519 135.791 356.405 135.238 365.238C135.137 366.861 131.616 368.271 129.674 369.779C128.988 368.164 127.731 366.555 127.713 364.933C127.62 356.665 127.328 346.815 127.713 338.215Z" fill="#0E2949"/>
</g>
<path d="M38.0457 540.095C42.7213 537.483 47.3969 534.87 52.2871 532.528C58.3879 535.845 66.5698 536.378 68.1969 533.857C65.6766 533.172 63.146 532.485 60.6904 531.495C62.0333 530.624 63.301 530.054 64.946 529.378C67.0109 529.702 68.6975 530.137 70.3862 530.563C73.6565 531.39 76.9281 532.212 80.1991 533.036C80.3213 532.451 80.4434 531.867 80.5656 531.283C76.0226 530.815 73.1439 525.033 67.6105 527.453C69.2642 524.179 70.7815 521.452 75.1213 523.15C76.6823 523.761 78.8099 522.923 81.0417 522.764C83.0308 523.065 84.6571 523.348 86.5811 523.817C87.3326 524.657 88.2371 525.361 88.1693 525.955C87.6211 530.757 75.4237 540.456 70.7587 540.104C69.7882 540.031 67.9009 540.747 67.8826 541.164C67.6802 545.748 64.5681 545.746 61.1625 545.235C61.9244 547.386 62.547 549.143 63.2745 551.198C61.1533 551.732 59.6372 552.113 57.7603 552.586C58.4716 554.253 59.0425 555.591 59.2574 556.882C57.7533 556.513 56.605 556.19 55.527 555.488C54.7288 548.859 48.8922 543.63 41.0249 541.864C39.9535 541.623 39.0349 540.702 38.0457 540.095ZM51.6622 537.704C49.4729 537.704 47.2836 537.704 45.0942 537.704C45.1246 538.022 45.155 538.34 45.1854 538.658C50.0474 539.73 54.9093 540.801 59.8101 541.882C59.5835 536.563 55.1627 538.779 51.6622 537.704Z" fill="#364056"/>
<path d="M196.041 527.538C198.56 529.153 201.08 530.767 203.287 532.564C202.173 532.617 201.317 532.237 200.578 532.398C196.652 533.251 192.711 534.102 188.899 535.338C188.365 535.511 188.518 537.8 188.353 539.11C189.39 539.067 190.948 539.445 191.381 538.911C194.05 535.621 195.018 535.716 197.344 539.483C197.941 540.451 199.444 541.679 200.301 541.523C203.951 540.86 207.515 539.723 211.385 538.685C207.065 534.901 202.959 538.321 198.665 538.986C198.001 537.717 197.369 536.509 196.895 535.604C199.278 534.677 201.48 533.82 203.683 532.964C208.089 535.239 212.495 537.515 217.247 540.2C217.582 541 217.571 541.389 217.174 541.862C209.973 542.145 205.214 545.506 202.337 551.554C201.665 552.965 201.508 554.62 200.578 556.347C197.551 556.658 195.06 556.784 192.873 556.714C194.647 556.05 196.117 555.581 198.109 554.946C195.401 551.821 193.491 548.833 190.859 546.765C187.111 543.822 182.648 541.797 178.843 538.915C176.183 536.9 174.113 534.107 172.121 531.7C174.187 531.371 175.913 531.002 177.994 530.586C180.825 530.516 183.634 526.835 185.667 530.988C189.111 529.843 192.576 528.69 196.041 527.538ZM180.82 534.87C182.648 534.398 184.475 533.927 186.303 533.455C186.25 533.066 186.196 532.677 186.142 532.288C183.74 532.651 181.337 533.014 178.934 533.376C179.295 533.885 179.656 534.394 180.82 534.87Z" fill="#364056"/>
<path d="M86.2833 523.63C84.6571 523.348 83.0308 523.065 80.8634 522.445C79.6559 521.672 79.0439 521.015 78.3149 520.837C69.1827 518.607 69.032 518.455 68.3298 509.214C68.5789 508.92 68.8279 508.626 69.3037 508.154C75.9136 508.945 82.2965 509.914 89.1632 511.168C89.6783 511.618 89.7098 511.784 89.4589 512.202C88.212 516.18 87.2477 519.905 86.2833 523.63Z" fill="#F5F5F5"/>
<path d="M68.0155 509.372C69.032 518.456 69.1827 518.607 78.3149 520.837C79.0439 521.015 79.6559 521.672 80.5006 522.426C78.8099 522.923 76.6823 523.761 75.1213 523.15C70.7815 521.452 69.2642 524.179 67.1874 527.516C66.0172 528.446 65.2931 528.966 64.5688 529.485C63.301 530.054 62.0333 530.624 60.2595 531.643C57.6539 532.066 55.5544 532.038 53.4548 532.011C54.5356 531.029 55.6166 530.047 57.2374 528.958C58.0282 528.531 58.2789 528.21 58.5295 527.889C63.9275 524.032 67.6522 519.307 66.9436 512.15C66.8605 511.31 67.4327 510.405 68.0155 509.372Z" fill="#41494C"/>
<path d="M187.922 507.604C188.496 508.682 189.669 509.833 189.547 510.826C188.815 516.803 192.353 520.888 195.215 525.585C193.36 526.002 191.769 526.029 189.832 525.897C187.186 523.454 184.885 521.168 182.881 518.644C184.587 517.269 186.734 516.383 187.229 514.933C187.916 512.919 187.363 510.483 187.486 508.072C187.631 507.916 187.922 507.604 187.922 507.604Z" fill="#565659"/>
<path d="M37.8191 539.995C37.4105 540.84 36.7603 541.991 35.774 542.557C31.6239 544.936 27.3734 547.141 23.1598 549.41C23.3018 550.084 23.4437 550.759 23.5858 551.433C27.116 552.56 30.6461 553.688 34.4009 555.435C34.6171 556.366 34.6085 556.677 34.2053 557.03C29.4005 555.344 24.9906 553.615 20.5903 551.898C20.6 551.909 20.626 551.923 20.626 551.923C22.2458 546.486 27.141 544.806 31.4875 542.549C33.389 541.562 35.4399 540.862 37.8191 539.995Z" fill="#364056"/>
<path d="M217.561 541.779C217.571 541.389 217.582 541 217.571 540.319C224.827 541.659 231.606 544.2 236.446 550.927C236.483 551.502 236.598 551.967 236.33 551.809C235.468 551.787 234.875 551.922 233.818 552.003C233.047 551.91 232.739 551.871 232.622 551.48C231.797 549.67 231.101 547.591 229.705 546.873C225.812 544.873 221.629 543.437 217.561 541.779Z" fill="#364056"/>
<path d="M53.3966 532.067C55.5546 532.038 57.6541 532.066 60.1846 531.945C63.1461 532.485 65.6768 533.172 68.197 533.857C66.5699 536.378 58.3881 535.845 52.7349 532.444C52.968 532.089 53.3383 532.123 53.3966 532.067Z" fill="#D3D4D8"/>
<path d="M190.178 526.055C191.769 526.029 193.36 526.002 195.268 525.936C195.655 526.172 195.725 526.447 195.918 527.13C192.576 528.691 189.111 529.843 185.667 530.988C183.634 526.835 180.825 530.517 178.09 530.371C178.078 529.635 178.325 529.065 178.995 528.384C183.005 527.533 186.592 526.794 190.178 526.055Z" fill="#D3D4D8"/>
<path d="M236.598 551.967C236.598 551.967 236.483 551.502 236.496 551.265C237.445 552.457 238.38 553.886 239.484 555.609C239.553 559.588 242.782 563.751 237.888 566.463C237.319 561.419 236.959 556.693 236.598 551.967Z" fill="#364056"/>
<path d="M19.7858 567.858C15.2593 564.92 16.6079 560.74 17.454 556.271C18.0358 555.004 18.5845 554.141 19.362 553.109C19.591 552.941 19.5869 552.892 19.6493 553.314C19.7365 558.443 19.7611 563.15 19.7858 567.858Z" fill="#364056"/>
<path d="M185.625 507.976C185.594 507.51 185.563 507.044 185.603 506.236C186.297 506.318 186.921 506.744 187.733 507.387C187.921 507.604 187.631 507.916 187.191 508.097C186.376 508.178 186.001 508.077 185.625 507.976Z" fill="#565659"/>
<path d="M58.2842 527.985C58.2789 528.21 58.0282 528.531 57.5444 528.84C57.5538 528.579 57.7964 528.33 58.2842 527.985Z" fill="#364056"/>
<path d="M236.33 551.809C236.958 556.693 237.319 561.419 237.511 566.52C236.839 567.258 236.336 567.622 235.418 568.336C234.517 569.09 234.03 569.492 233.544 569.895C233.544 569.895 233.609 569.913 233.291 569.869C232.499 570.178 232.025 570.531 231.551 570.883C231.551 570.883 231.613 570.911 231.191 570.836C216.404 574.272 202.037 575.006 187.663 570.815C187.663 570.815 187.616 570.866 187.5 570.597C186.803 570.172 186.221 570.016 185.64 569.86C185.64 569.86 185.615 569.923 185.549 569.587C184.862 569.119 184.242 568.986 183.621 568.853C183.621 568.853 183.62 568.92 183.566 568.561C180.884 567.087 178.258 565.973 175.631 564.859C175.631 564.859 175.61 564.921 175.431 564.597C167.052 562.463 158.851 560.652 150.651 558.841C150.651 558.841 150.633 558.914 150.735 558.577C150.443 558.111 150.049 557.984 149.655 557.856C149.655 557.856 149.62 557.928 149.616 557.593C148.956 556.791 148.299 556.325 147.642 555.858C147.642 555.858 147.622 555.922 147.669 555.581C147.851 554.588 147.986 553.936 148.349 552.9C147.925 551.908 147.274 551.3 146.622 550.693C146.622 550.693 146.747 550.436 146.992 550.222C147.237 550.007 147.662 549.806 148.072 549.87C149.777 550.128 151.086 550.252 152.363 550.527C162.121 552.625 171.873 554.752 182.021 557.014C191.467 557.407 200.52 557.655 210.028 558.001C212.296 558.052 214.123 558.14 215.917 557.934C222.417 557.185 229.169 557.159 234.282 552.057C234.875 551.922 235.468 551.786 236.33 551.809ZM182.901 564.216C184.406 564.413 185.912 564.61 187.417 564.807C187.523 564.147 187.628 563.488 187.734 562.828C174.741 559.35 161.748 555.871 148.755 552.393C148.629 552.814 148.504 553.234 148.378 553.655C159.635 557.094 170.892 560.532 182.901 564.216Z" fill="#F5F6F5"/>
<path d="M19.6493 553.313C19.8693 552.725 20.1515 552.557 20.5072 552.138C24.9907 553.615 29.4006 555.344 34.5709 557.243C36.2869 557.599 37.2351 557.857 38.1997 557.961C62.36 560.551 85.5774 555.688 108.567 549.035C108.564 549.203 108.562 549.37 108.467 550.095C105.238 552.026 102.201 553.727 98.9459 554.71C90.6761 557.206 82.2985 559.343 73.9908 561.718C72.3998 562.173 70.9323 563.06 69.4077 563.748C69.5771 564.23 69.7466 564.712 69.9161 565.194C72.0112 564.627 74.1069 564.063 76.2013 563.494C87.0331 560.552 97.8644 557.608 108.374 554.963C107.882 555.813 107.711 556.364 107.54 556.916C107.54 556.916 107.604 556.929 107.314 556.933C106.864 557.265 106.702 557.594 106.541 557.923C106.541 557.923 106.61 557.93 106.3 557.885C105.509 558.193 105.027 558.547 104.546 558.901C104.546 558.901 104.612 558.912 104.197 558.882C98.0404 560.197 92.2982 561.543 86.5559 562.89C86.5559 562.89 86.6132 562.919 86.2689 562.825C85.1367 563.116 84.3488 563.501 83.5608 563.886C83.5608 563.886 83.6212 563.909 83.2384 563.835C80.7585 564.796 78.6616 565.83 76.5646 566.865C76.5646 566.865 76.6066 566.913 76.2419 566.825C74.772 567.446 73.6665 568.154 72.5612 568.862C72.5612 568.862 72.6044 568.932 72.2745 568.84C71.4818 569.125 71.0192 569.503 70.5565 569.882C70.5565 569.882 70.6221 569.903 70.2164 569.89C65.8571 570.945 61.9628 572.433 57.9386 573.002C45.1901 574.805 32.74 573.204 20.636 568.849C20.636 568.849 20.6226 568.916 20.7275 568.568C20.4344 568.099 20.0365 567.977 19.6384 567.856C19.6384 567.856 19.7118 567.919 19.7488 567.888C19.7611 563.15 19.7364 558.443 19.6493 553.313Z" fill="#F5F6F5"/>
<path d="M108.804 548.749C85.5774 555.688 62.36 560.551 38.1997 557.961C37.2351 557.857 36.2869 557.599 34.9657 557.201C34.6087 556.677 34.6172 556.366 34.7045 555.594C41.3688 555.384 47.9541 555.636 54.9981 555.877C56.605 556.19 57.7533 556.513 59.6991 556.871C69.9473 555.295 79.4057 553.728 88.8452 552.054C93.2065 551.28 97.8327 550.833 99.1418 545.245C99.3308 544.439 100.398 543.444 101.228 543.246C106.982 541.874 107.311 538.226 105.854 533.424C105.341 531.736 105.654 529.798 105.598 527.582C105.589 526.405 105.572 525.619 105.528 524.522C105.495 523.792 105.49 523.374 105.745 522.95C106.179 522.941 106.353 522.939 106.526 522.937C107.587 529.969 108.647 537.001 109.786 544.464C109.59 546.085 109.315 547.274 108.804 548.749Z" fill="#353E50"/>
<path d="M181.627 556.87C171.873 554.752 162.121 552.625 152.363 550.527C151.086 550.252 149.777 550.128 147.991 549.596C147.161 548.817 146.823 548.377 146.486 547.937C146.459 547.48 146.432 547.023 146.33 546.231C147.1 540.167 147.945 534.438 149.169 528.867C149.661 529.361 149.774 529.697 149.849 530.454C149.763 532.565 149.713 534.256 149.44 536.143C149.111 536.908 149.005 537.475 148.867 538.42C148.83 539.805 148.827 540.814 148.776 542.176C149.222 543.229 149.714 543.928 150.207 544.627C150.668 544.042 151.13 543.457 151.983 542.875C154.068 543.946 156.944 544.774 157.218 546.129C157.884 549.422 160.053 549.838 162.466 550.438C169.842 552.273 177.219 554.109 184.27 555.957C183.172 556.27 182.399 556.57 181.627 556.87Z" fill="#364056"/>
<path d="M108.696 554.665C97.8644 557.608 87.0331 560.552 76.2013 563.494C74.1069 564.063 72.0112 564.627 69.9161 565.194C69.7466 564.712 69.5771 564.23 69.4077 563.748C70.9323 563.06 72.3998 562.173 73.9908 561.718C82.2985 559.343 90.6761 557.206 98.9459 554.71C102.201 553.727 105.238 552.026 108.535 550.338C108.896 551.306 109.097 552.588 109.181 554.236C109.064 554.601 108.696 554.665 108.696 554.665Z" fill="#364056"/>
<path d="M20.791 569.165C32.7401 573.204 45.1902 574.805 57.9387 573.002C61.9629 572.433 65.8572 570.945 70.1896 569.868C67.0183 571.508 63.588 574.182 59.8958 574.613C49.0553 575.88 38.11 575.918 27.464 572.845C25.1594 572.18 23.1118 570.626 20.791 569.165Z" fill="#364056"/>
<path d="M187.715 571.181C202.037 575.006 216.404 574.272 231.179 570.804C228.319 572.028 225.136 573.679 221.762 574.301C211.999 576.1 202.174 575.819 192.444 573.864C190.797 573.534 189.322 572.341 187.715 571.181Z" fill="#364056"/>
<path d="M150.795 559.185C158.851 560.652 167.052 562.463 175.459 564.58C167.424 563.101 159.182 561.315 150.795 559.185Z" fill="#364056"/>
<path d="M175.717 565.201C178.258 565.973 180.884 567.087 183.594 568.542C181.052 567.77 178.427 566.657 175.717 565.201Z" fill="#364056"/>
<path d="M76.9458 566.927C78.6617 565.83 80.7587 564.796 83.2234 563.807C81.5031 564.898 79.415 565.943 76.9458 566.927Z" fill="#364056"/>
<path d="M72.9341 568.931C73.6665 568.154 74.772 567.446 76.2196 566.797C75.4771 567.571 74.392 568.286 72.9341 568.931Z" fill="#364056"/>
<path d="M148.122 553.284C147.986 553.936 147.851 554.588 147.702 555.58C147.132 555.072 146.576 554.223 146.613 553.232C147.512 553.155 147.816 553.219 148.122 553.284Z" fill="#364056"/>
<path d="M146.31 548.149C146.823 548.377 147.161 548.817 147.58 549.532C147.662 549.806 147.237 550.007 147.014 550.081C146.571 549.557 146.352 548.959 146.31 548.149Z" fill="#364056"/>
<path d="M83.9072 563.908C84.3489 563.501 85.1368 563.115 86.2686 562.792C85.8262 563.213 85.0398 563.571 83.9072 563.908Z" fill="#364056"/>
<path d="M147.666 556.196C148.299 556.325 148.956 556.791 149.646 557.567C149.017 557.428 148.354 556.981 147.666 556.196Z" fill="#364056"/>
<path d="M70.873 569.903C71.0193 569.503 71.4819 569.125 72.261 568.801C72.1146 569.211 71.652 569.568 70.873 569.903Z" fill="#364056"/>
<path d="M183.774 569.125C184.242 568.986 184.862 569.119 185.579 569.572C185.092 569.727 184.51 569.562 183.774 569.125Z" fill="#364056"/>
<path d="M148.349 552.9C147.816 553.219 147.512 553.155 146.747 552.992C146.341 552.401 146.394 551.909 146.535 551.054C147.274 551.3 147.925 551.908 148.349 552.9Z" fill="#364056"/>
<path d="M185.793 570.129C186.221 570.016 186.802 570.172 187.533 570.606C187.104 570.722 186.525 570.559 185.793 570.129Z" fill="#364056"/>
<path d="M19.7515 568.086C20.0364 567.977 20.4343 568.099 20.7609 568.562C20.4144 568.708 20.1395 568.512 19.7515 568.086Z" fill="#7F818D"/>
<path d="M149.694 558.132C150.049 557.984 150.443 558.111 150.768 558.558C150.377 558.721 150.055 558.565 149.694 558.132Z" fill="#364056"/>
<path d="M105.485 522.956C105.49 523.374 105.495 523.792 105.34 524.757C105.317 526.194 105.453 527.084 105.589 527.974C105.654 529.798 105.341 531.736 105.854 533.424C107.311 538.226 106.982 541.874 101.228 543.246C100.398 543.444 99.3308 544.439 99.1417 545.245C97.8326 550.833 93.2064 551.28 88.8452 552.054C79.4056 553.728 69.9473 555.295 60.0549 556.918C59.0425 555.591 58.4716 554.253 57.7603 552.586C59.6372 552.113 61.1533 551.732 63.2745 551.198C62.547 549.143 61.9244 547.386 61.1625 545.234C64.5681 545.746 67.6802 545.748 67.8826 541.164C67.9009 540.747 69.7882 540.031 70.7587 540.104C75.4237 540.456 87.6211 530.757 88.1693 525.955C88.2371 525.361 87.3326 524.657 86.5811 523.817C87.2477 519.905 88.212 516.18 89.8452 512.18C92.5388 512.252 94.5635 512.598 96.5258 513.197C96.7007 513.878 96.9382 514.307 97.1759 514.736C97.7136 514.25 98.2513 513.764 99.1934 513.251C100.942 513.079 102.286 512.933 103.631 512.787C103.631 512.787 104.072 512.929 104.327 513.399C104.188 516.395 106.041 520.904 100.406 518.942C96.9685 517.745 95.2406 519.701 94.3164 522.253C93.9371 523.301 95.2853 524.974 95.8475 526.363C97.7532 525.568 99.866 525.061 101.5 523.887C102.845 522.92 103.422 520.39 105.485 522.956Z" fill="#315C8D"/>
<path d="M149.61 522.944C149.655 521.806 149.7 520.668 150.232 519.018C151.039 516.705 151.358 514.906 151.677 513.106C156.109 512.441 160.54 511.775 165.478 511.418C168.515 514.832 171.046 517.936 173.466 521.36C172.797 523.623 167.248 521.256 169.546 526.052C169.735 527.492 170.131 528.73 170.137 529.943C165.399 529.263 167.041 525.848 166.605 523.306C166.17 520.766 166.047 516.688 164.639 516.117C161.982 515.039 158.5 515.995 155.361 516.105C155.394 516.569 155.427 517.032 155.459 517.496C156.076 517.642 156.851 517.601 157.279 517.967C158.761 519.232 160.645 520.418 161.342 522.071C161.788 523.128 160.676 525.986 159.799 526.209C158.202 526.614 156.245 525.715 154.466 525.254C153.238 524.935 152.057 524.437 150.676 523.807C150.201 523.377 149.906 523.161 149.61 522.944Z" fill="#3B5173"/>
<path d="M105.745 522.95C103.421 520.39 102.845 522.92 101.5 523.887C99.8658 525.061 97.753 525.568 95.8474 526.363C95.2851 524.975 93.937 523.301 94.3163 522.253C95.2405 519.701 96.9684 517.746 100.406 518.942C106.041 520.904 104.188 516.395 104.547 513.471C104.918 513.009 105.325 512.944 106.039 512.863C106.416 515.956 106.485 519.065 106.54 522.556C106.352 522.94 106.179 522.942 105.745 522.95Z" fill="#364056"/>
<path d="M151.418 513.058C151.358 514.906 151.039 516.705 150.371 518.704C150.162 517.188 150.302 515.473 150.541 513.339C150.812 512.951 150.985 512.98 151.418 513.058Z" fill="#364056"/>
<path d="M52.0782 537.787C55.1627 538.779 59.5835 536.563 59.8101 541.882C54.9093 540.801 50.0474 539.73 45.1854 538.658C45.155 538.34 45.1246 538.022 45.0942 537.704C47.2836 537.704 49.4729 537.704 52.0782 537.787Z" fill="#D3D4D8"/>
<path d="M64.946 529.378C65.2931 528.966 66.0172 528.446 67.1646 527.864C73.1439 525.033 76.0226 530.815 80.5656 531.283C80.4434 531.867 80.3213 532.451 80.1991 533.036C76.9281 532.212 73.6565 531.39 70.3862 530.563C68.6975 530.137 67.0109 529.703 64.946 529.378Z" fill="#D3D4D8"/>
<path d="M150.855 524.019C152.057 524.437 153.238 524.935 154.466 525.253C156.245 525.715 158.202 526.614 159.799 526.209C160.676 525.986 161.788 523.128 161.342 522.071C160.645 520.418 158.761 519.232 157.279 517.967C156.851 517.601 156.076 517.642 155.459 517.496C155.427 517.032 155.394 516.569 155.361 516.105C158.5 515.994 161.982 515.039 164.639 516.117C166.047 516.688 166.17 520.765 166.606 523.306C167.041 525.848 165.399 529.263 170.322 530.2C171.232 530.736 171.567 530.991 171.888 531.355C171.875 531.464 171.78 531.661 171.78 531.661C174.113 534.107 176.183 536.9 178.843 538.915C182.648 541.797 187.111 543.822 190.859 546.765C193.491 548.833 195.401 551.821 198.109 554.946C196.117 555.581 194.647 556.05 192.468 556.696C189.37 556.564 186.983 556.254 184.595 555.945C177.219 554.109 169.842 552.273 162.466 550.438C160.053 549.838 157.884 549.422 157.218 546.129C156.944 544.774 154.068 543.946 151.77 542.656C150.384 542.229 149.604 542.026 148.823 541.822C148.827 540.814 148.83 539.805 149.102 538.335C149.467 537.232 149.565 536.589 149.663 535.946C149.713 534.256 149.763 532.565 150.084 530.376C150.468 529.239 150.581 528.599 150.698 527.563C150.753 526.119 150.804 525.069 150.855 524.019Z" fill="#2F5E95"/>
<path d="M203.717 532.974C201.48 533.821 199.278 534.678 196.895 535.605C197.368 536.509 198.001 537.717 198.665 538.986C202.959 538.321 207.065 534.901 211.385 538.685C207.515 539.723 203.951 540.86 200.301 541.523C199.444 541.679 197.941 540.451 197.343 539.484C195.017 535.716 194.05 535.621 191.38 538.911C190.947 539.445 189.39 539.067 188.353 539.11C188.518 537.8 188.365 535.511 188.899 535.338C192.71 534.102 196.652 533.251 200.578 532.398C201.317 532.238 202.173 532.617 203.373 532.899C203.77 533.052 203.751 532.984 203.717 532.974Z" fill="#D3D4D8"/>
<path d="M200.578 556.348C203.665 556.089 206.216 556.016 209.183 556.462C209.589 557.29 209.581 557.597 209.572 557.904C200.52 557.655 191.467 557.407 182.021 557.015C182.399 556.57 183.172 556.27 184.269 555.957C186.982 556.254 189.37 556.564 192.163 556.892C195.059 556.784 197.551 556.658 200.578 556.348Z" fill="#252D45"/>
<path d="M172.121 531.701C171.78 531.662 171.875 531.464 172.228 531.325C173.759 530.652 175.58 530.424 176.006 529.531C177.981 525.385 177.843 525.319 182.093 525.229C180.819 526.412 179.695 527.454 178.573 528.496C178.325 529.065 178.078 529.635 177.735 530.419C175.913 531.003 174.187 531.371 172.121 531.701Z" fill="#364056"/>
<path d="M180.419 534.886C179.656 534.394 179.295 533.885 178.934 533.376C181.337 533.014 183.739 532.651 186.142 532.288C186.196 532.677 186.249 533.066 186.303 533.455C184.475 533.927 182.648 534.398 180.419 534.886Z" fill="#D3D4D8"/>
<path d="M178.995 528.384C179.695 527.454 180.818 526.411 182.093 525.229C177.842 525.319 177.981 525.385 176.005 529.531C175.58 530.424 173.759 530.652 172.241 531.216C171.566 530.991 171.232 530.736 170.713 530.224C170.131 528.73 169.735 527.492 169.922 526.044C173.072 525.174 175.638 524.513 178.638 523.74C177.391 522.566 176.612 521.834 175.834 521.102C177.844 520.366 179.854 519.631 182.225 518.889C184.885 521.168 187.186 523.454 189.832 525.898C186.592 526.794 183.005 527.533 178.995 528.384Z" fill="#364056"/>
<path d="M210.028 558.001C209.581 557.596 209.589 557.289 209.605 556.522C216.982 554.724 224.353 553.387 232.077 551.941C232.739 551.871 233.047 551.91 233.818 552.003C229.169 557.159 222.417 557.185 215.917 557.934C214.123 558.14 212.296 558.052 210.028 558.001Z" fill="#364056"/>
<path d="M150.676 523.806C150.804 525.069 150.753 526.119 150.331 527.58C149.715 527.985 149.471 527.978 149.226 527.97C149.299 526.571 149.372 525.172 149.527 523.358C149.906 523.161 150.201 523.377 150.676 523.806Z" fill="#364056"/>
<path d="M149.251 527.99C149.471 527.978 149.715 527.985 150.327 527.975C150.581 528.599 150.468 529.239 150.12 529.956C149.773 529.697 149.661 529.361 149.395 528.513C149.242 528.001 149.277 528.01 149.251 527.99Z" fill="#3B5173"/>
<path d="M182.525 564.093C170.892 560.532 159.635 557.094 148.378 553.655C148.504 553.234 148.629 552.813 148.755 552.393C161.748 555.871 174.741 559.35 187.734 562.828C187.628 563.488 187.523 564.147 187.417 564.806C185.912 564.609 184.406 564.413 182.525 564.093Z" fill="#364056"/>
<path d="M105.598 527.582C105.453 527.084 105.317 526.194 105.368 525.069C105.572 525.62 105.589 526.405 105.598 527.582Z" fill="#364056"/>
<path d="M148.776 542.176C149.604 542.026 150.384 542.23 151.378 542.653C151.13 543.457 150.668 544.042 150.206 544.627C149.714 543.928 149.221 543.229 148.776 542.176Z" fill="#3B5173"/>
<path d="M149.44 536.144C149.565 536.589 149.467 537.232 149.135 537.959C149.005 537.475 149.111 536.908 149.44 536.144Z" fill="#3B5173"/>
<path d="M96.5259 513.197C97.0824 512.987 97.5763 513.028 98.4297 513.174C98.2515 513.764 97.7137 514.25 97.176 514.736C96.9384 514.307 96.7008 513.878 96.5259 513.197Z" fill="#364056"/>
<path d="M175.458 521.071C176.612 521.834 177.391 522.566 178.638 523.74C175.638 524.513 173.072 525.174 170.13 525.842C167.248 521.256 172.797 523.623 173.466 521.36C174.078 521.041 174.58 521.041 175.458 521.071Z" fill="#364056"/>
<path d="M143.471 195.019C143.533 194.731 143.594 194.443 143.753 193.723C151.506 195.418 159.079 197.936 166.836 199.582C179.267 202.218 188.89 208.45 195.161 219.604C199.067 226.55 202.965 233.5 206.821 240.474C207.975 242.56 209.132 244.593 205.931 246.28C205.179 246.677 205.313 248.753 205.128 250.435C204.489 250.327 203.761 249.84 202.407 249.182C195.204 252.85 188.608 256.655 182.079 260.575C181.35 261.013 181.009 262.099 180.488 262.884C180.039 262.902 179.589 262.92 178.802 262.945C178.181 262.514 177.898 262.075 177.554 261.049C176.89 259.958 176.289 259.453 175.644 258.691C175.206 257.908 174.812 257.381 174.309 256.512C174.266 255.461 174.331 254.753 174.587 253.988C175.044 253.647 175.309 253.363 175.951 253.139C177.088 253.186 177.848 253.174 178.677 253.46C178.812 253.948 178.88 254.14 178.893 254.662C179.292 256.248 179.745 257.503 180.452 259.462C188.039 254.618 194.969 250.376 201.695 245.833C205.957 242.954 205.838 241.653 201.793 237.435C200.415 234.399 198.982 231.769 197.793 229.032C190.408 212.027 177.941 201.912 159.094 200.641C157.368 200.525 154.97 201.343 153.854 202.593C141.508 216.417 110.373 219.363 99.0003 206C96.4994 204 91.794 197.285 98 202.593C106 205.593 104.627 207.135 106.597 208C120.986 214.316 134.644 213.903 147.848 204.756C150.011 203.258 151.715 201.097 153.632 199.243C153.251 198.675 152.871 198.108 152.49 197.54C150.419 198.417 148.345 199.287 146.277 200.173C140.57 202.618 135.052 206.368 129.116 207.226C119.356 208.638 107.759 207.163 100.5 199C100.848 198.635 102.77 198.773 103.243 198.73C104.583 199.386 105.598 199.926 106.597 200.495C118.142 207.064 129.847 207.485 141.497 200.988C142.997 200.151 143.604 197.714 144.494 195.801C144.094 195.387 143.825 195.191 143.535 195.003C143.515 195.011 143.471 195.019 143.471 195.019Z" fill="#313534"/>
<path d="M104.596 333.094C100.572 332.847 96.4984 332.91 92.5357 332.278C86.8543 331.372 81.254 329.958 75.2214 328.755C74.8238 328.749 74.7156 328.768 74.6 328.575C74.2272 328.167 73.9702 327.951 73.7131 327.736C72.4377 327.19 71.1623 326.644 69.5894 326.092C64.6112 323.457 64.7813 319.844 66.4085 315.254C72.6278 297.715 74.6767 279.582 73.0122 260.395C72.958 257.624 73.1658 255.503 73.3006 253.315C73.2275 253.247 73.2761 253.053 73.393 252.796C73.51 252.35 73.5101 252.162 73.4826 251.58C73.3738 249.876 73.2927 248.566 73.34 246.937C74.1206 246.083 74.7725 245.547 75.4593 245.387C76.2687 256.511 77.0434 267.258 77.5068 278.117C76.935 279.017 76.6745 279.804 76.3168 281.017C75.2123 291.52 74.8159 301.517 70.9257 311.303C66.1188 323.394 66.9827 324.273 79.7833 327.746C87.9374 329.959 96.3173 331.34 104.596 333.094Z" fill="#EDAE53"/>
<path d="M45.4551 236.498C49.7471 229.063 53.7327 221.427 58.4197 214.249C62.8398 207.48 69.5972 203.497 77.3398 201.385C82.4427 199.992 87.6409 198.949 93.2076 198.005C94.0504 198.827 94.4818 199.394 94.8687 200.259C94.7242 200.731 94.6244 200.906 94.0881 200.979C80.4286 201.519 67.9564 204.261 59.8679 215.942C55.2797 222.569 51.7025 229.896 47.4736 237.019C47.0387 237.322 46.8588 237.557 46.4684 237.674C45.9512 237.172 45.7031 236.835 45.4551 236.498Z" fill="#313534"/>
<path d="M45.1921 236.748C45.7028 236.835 45.9509 237.172 46.6931 237.717C47.1872 237.924 47.6445 237.979 47.744 238.065C47.8435 238.152 47.8435 238.415 47.7558 238.698C47.6266 239.173 47.5848 239.365 47.186 239.636C44.8916 240.934 43.3767 242.399 46.0946 244.189C53.0315 248.757 60.0392 253.22 67.0825 257.623C70.0383 259.471 71.3519 258.033 71.7641 254.723C72.3194 254.216 72.6692 253.961 73.0827 253.598C73.1467 253.49 73.3737 253.383 73.3737 253.383C73.1659 255.503 72.958 257.624 72.6476 260.116C72.4102 260.849 72.2756 261.21 71.9322 261.776C70.6401 261.727 69.5567 261.474 67.8279 260.929C60.9944 256.692 54.8064 252.748 48.6184 248.804C47.7528 248.511 46.8873 248.218 45.7354 247.921C39.4532 244.554 42.8596 240.744 45.1921 236.748Z" fill="#313534"/>
<path d="M94.913 199.961C94.4816 199.394 92.9745 198.915 92.5 198.069C96.2584 196.314 101.135 194.75 105.26 193.117C105.61 193.163 105.636 193.365 105.528 194.105C104.488 195.417 103.581 196.19 102.524 197.041C102.314 197.213 102.182 197.352 102.208 197.394C102.319 197.574 102.476 197.724 102.693 198.069C102.771 198.253 102.91 198.627 102.91 198.627C102.77 198.772 102.631 198.918 101.973 199.126C99.1207 198.145 96.7257 196.591 94.913 199.961Z" fill="#313534"/>
<path d="M47.8438 238.415C47.8438 238.415 47.8438 238.152 47.7755 237.798C47.6948 237.265 47.6824 237.086 47.6699 236.907C51.7025 229.896 55.2797 222.569 59.8679 215.942C67.9564 204.261 80.4286 201.519 94.1191 200.953C94.5867 201.028 94.5343 200.967 94.5576 201.257C94.9161 201.699 95.2515 201.852 95.595 201.972C95.6033 201.941 95.5397 201.957 95.5745 202.243C95.9357 202.687 96.2618 202.845 96.5903 202.969C96.5925 202.934 96.5469 202.986 96.5752 203.248C96.8888 203.7 97.174 203.89 97.5532 204.315C97.9341 204.711 98.2211 204.871 98.6116 205.256C98.9353 205.75 99.2183 205.904 99.5641 205.943C113.601 218.231 141.508 216.417 153.854 202.593C154.97 201.343 157.368 200.525 159.094 200.641C177.941 201.912 190.408 212.027 197.793 229.032C198.982 231.769 200.415 234.399 201.652 237.538C201.569 237.998 201.587 238.347 201.231 238.454C193.542 243.219 186.208 247.876 178.561 252.219C175.321 244.207 182.134 238.802 183.3 231.694C180.589 234.996 178.166 237.948 175.704 240.896C175.665 240.891 175.589 240.909 175.694 240.499C175.799 238.273 175.799 236.458 175.799 234.643C175.332 234.639 174.865 234.634 174.398 234.63C174.398 236.805 174.398 238.98 174.281 241.589C174.242 246.031 174.32 250.038 174.397 254.045C174.332 254.753 174.266 255.461 174.145 256.956C173.886 262.141 173.682 266.539 173.17 271.2C172.673 274.293 172.485 277.123 172.067 280.218C169.428 288.299 167.018 296.114 164.501 303.974C164.395 304.019 164.381 304.305 164.381 304.305C164.381 304.305 164.614 303.936 164.909 303.755C166.006 302.154 166.987 300.804 167.578 299.3C169.979 293.203 172.261 287.058 174.635 280.902C174.683 280.872 174.792 280.838 174.714 281.235C174.783 282.418 174.929 283.204 175.076 284.339C175.224 285.366 175.372 286.043 175.385 287.104C176.251 291.762 177.252 296.037 178.312 300.686C178.688 302.017 179.007 302.972 179.132 304.172C178.83 304.594 178.721 304.772 178.486 305.173C178.261 305.979 178.162 306.562 178.064 307.146C178.118 307.154 178.173 307.162 178.227 307.17C178.339 306.41 178.452 305.651 178.818 304.89C179.238 304.924 179.404 304.96 179.642 305.37C180.724 308.716 182.079 311.621 182.653 314.673C183.318 318.207 183.296 321.87 183.571 325.476C183.571 325.476 183.541 325.462 183.544 325.442C183.548 325.421 183.357 325.192 182.884 324.992C171.132 327.566 159.853 330.34 148.574 333.114C148.16 333.117 147.745 333.121 146.585 333.117C141.422 333.493 137.004 333.874 132.587 334.256C129.57 334.227 126.553 334.199 122.66 334.088C117.021 333.792 112.259 333.578 107.497 333.364C106.774 333.263 106.051 333.162 104.962 333.077C96.3176 331.34 87.9377 329.959 79.7836 327.746C66.983 324.273 66.1191 323.394 70.926 311.303C74.8162 301.517 75.2126 291.52 76.5726 281.322C79.5331 287.342 82.1407 293.48 84.7485 299.619C85.214 299.408 85.6793 299.198 86.1447 298.987C83.3693 291.993 80.5939 284.999 77.8184 278.005C77.0437 267.258 76.269 256.511 75.5488 244.943C75.2726 240.498 74.9417 236.873 74.6108 233.249C74.2081 233.284 73.8053 233.319 73.4026 233.354C73.4026 236.188 73.4026 239.022 73.4026 242.707C71.4924 239.639 70.0142 237.265 68.5359 234.892C68.2889 235.03 68.0419 235.169 67.7949 235.307C69.6006 239.29 71.4061 243.273 73.2118 247.256C73.293 248.566 73.3741 249.876 73.1975 251.77C72.2655 252.463 71.5913 252.572 70.5779 252.451C62.7739 247.619 55.3088 243.017 47.8438 238.415ZM90.7206 306.056L90.8767 306.088C90.8767 306.088 90.5948 305.942 90.5035 305.789L90.3375 305.747C90.3375 305.747 90.6211 305.915 90.7206 306.056ZM174.175 314.146C173.92 314.349 173.723 314.599 172.978 315.034C172.51 315.654 172.042 316.274 170.994 316.968C170.518 317.278 170.041 317.587 169.352 318.014L169.359 318.342C169.359 318.342 169.647 317.98 170.224 317.901C170.692 317.587 171.16 317.273 172.236 316.818C172.708 316.2 173.181 315.581 174.066 314.716C174.326 314.514 174.521 314.263 174.86 313.85L174.858 313.536C174.858 313.536 174.586 313.897 174.175 314.146ZM88.7052 303.103L88.9248 303.144C88.9248 303.144 88.5948 302.942 88.4785 302.442C88.1548 302.129 87.8312 301.816 87.5074 301.502C87.4021 301.622 87.2968 301.741 87.1914 301.86C87.6688 302.211 88.1461 302.563 88.7052 303.103ZM154.271 324.203C157.817 323.282 161.363 322.361 164.909 321.44C164.835 321.282 164.761 321.124 164.687 320.965C152.109 322.729 139.531 324.493 126.953 326.257C127 326.648 127.048 327.04 127.095 327.432C135.883 326.44 144.67 325.449 154.271 324.203ZM177.641 225.482C177.925 223.064 178.21 220.646 178.494 218.227C178.088 218.181 177.682 218.135 177.276 218.09C176.427 222.834 175.579 227.578 174.731 232.322C175.249 232.435 175.767 232.547 176.286 232.66C176.722 230.547 177.159 228.435 177.641 225.482Z" fill="#F0C679"/>
<path d="M175.52 286.721C175.372 286.043 175.224 285.365 175.251 284.079C174.5 282.5 174.883 278.841 175.252 278C177.374 276.5 177 280.922 177.374 280.905C180.5 293.569 183.5 306.267 186.842 318.874C187.682 322.042 187.398 323.967 183.858 325.22C183.295 321.869 183.317 318.207 182.653 314.673C182.079 311.621 180.724 308.715 179.674 305.18C179.62 304.346 179.517 304.117 179.326 303.927C179.007 302.972 178.688 302.016 178.412 300.26C177.476 295.213 176.498 290.967 175.52 286.721Z" fill="#EDAE53"/>
<path d="M173.478 270.936C173.682 266.538 173.886 262.141 174.253 257.299C174.812 257.381 175.206 257.908 175.628 259.058C175.888 261.068 176.121 262.455 176.354 263.842C176.391 264.959 176.428 266.076 176.224 267.883C175.566 270.062 175.15 271.552 174.643 272.732C174.195 271.927 173.837 271.432 173.478 270.936Z" fill="#EDAE53"/>
<path d="M174.733 273.042C175.15 271.552 175.566 270.062 176.172 268.299C176.646 271.399 176.93 274.772 176.903 278.533C176.233 278.882 175.874 278.845 175.512 278.442C175.25 276.398 174.991 274.72 174.733 273.042Z" fill="#EDAE53"/>
<path d="M176.44 263.542C176.121 262.455 175.888 261.068 175.671 259.314C176.288 259.453 176.89 259.958 177.507 260.787C177.19 261.82 176.858 262.531 176.44 263.542Z" fill="#EDAE53"/>
<path d="M148.897 333.324C159.853 330.339 171.131 327.565 182.74 324.952C172.514 330.845 161.102 333.134 148.897 333.324Z" fill="#EDAE53"/>
<path d="M95.4961 198C97.3534 194.332 99.1993 197.638 101.762 199.345C103.496 200.5 119.353 208.638 129.113 207.226C135.049 206.368 140.496 202.918 145.496 199.345C147.845 197.666 147.996 197.5 149.496 195.5C149.877 196.068 154.115 198.777 154.496 199.345C152.58 201.199 150.008 203.258 147.845 204.756C134.641 213.903 120.681 214.171 106.292 207.855C104.322 206.99 102.794 205.618 100.5 204.541C100.118 204.459 100.087 204.214 100 204C99.7256 203.518 99.9642 203.624 99.6295 203.537C99.6152 203.516 99.5 203 99 203C98.5 203 97.9978 202.871 97.3698 202.789C96.9022 202.848 96.7228 202.917 96.5433 202.986C96.5433 202.986 96.0317 202.752 95.9961 202.5C95.6333 202.09 95.8634 202.115 95.5361 201.957C95.5361 201.957 94.996 201.957 94.496 201.5C94.1254 201.091 94.9691 199.533 95 200.5C95 200.5 94.5831 201.028 94.5521 201.054C94.6209 200.906 95.3517 198.472 95.4961 198Z" fill="#315C8D"/>
<path d="M201.587 238.346C201.587 238.346 201.569 237.998 201.71 237.894C205.839 241.653 205.957 242.954 201.695 245.833C194.969 250.376 188.039 254.618 180.453 259.462C179.745 257.503 179.292 256.248 179.217 254.545C181.919 252.881 184.456 251.95 186.523 250.394C191.658 246.53 196.579 242.381 201.587 238.346Z" fill="#43719D"/>
<path d="M201.231 238.454C196.579 242.381 191.658 246.53 186.523 250.394C184.456 251.95 181.918 252.881 179.271 254.214C178.88 254.14 178.812 253.948 178.753 253.306C178.76 252.856 178.875 252.534 178.875 252.534C186.208 247.876 193.542 243.219 201.231 238.454Z" fill="#41494C"/>
<path d="M178.561 252.219C178.875 252.534 178.761 252.856 178.685 253.009C177.848 253.174 177.088 253.186 175.93 252.666C175.603 248.39 175.673 244.645 175.742 240.9C178.166 237.948 180.589 234.996 183.3 231.693C182.134 238.801 175.32 244.206 178.561 252.219Z" fill="#EDAE53"/>
<path d="M175.704 240.896C175.673 244.645 175.603 248.39 175.554 252.607C175.309 253.363 175.044 253.647 174.587 253.988C174.319 250.038 174.242 246.031 174.479 241.547C175.051 240.977 175.316 240.923 175.589 240.909C175.589 240.909 175.665 240.891 175.704 240.896Z" fill="#EDAE53"/>
<path d="M77.5071 278.117C80.5939 284.999 83.3693 291.993 86.1447 298.987C85.6793 299.197 85.214 299.408 84.7485 299.619C82.1407 293.48 79.5331 287.341 76.6699 280.897C76.6748 279.804 76.9353 279.017 77.5071 278.117Z" fill="#EDAE53"/>
<path d="M73.3403 246.937C71.4061 243.273 69.6006 239.29 67.7949 235.307C68.0419 235.168 68.2889 235.03 68.5359 234.891C70.0142 237.265 71.4924 239.639 73.4026 242.707C73.4026 239.022 73.4026 236.188 73.4026 233.354C73.8053 233.319 74.2081 233.284 74.6108 233.249C74.9416 236.873 75.2726 240.497 75.5142 244.566C74.7728 245.546 74.1208 246.083 73.3403 246.937Z" fill="#EDAE53"/>
<path d="M70.917 252.681C71.5913 252.572 72.2655 252.463 73.2252 252.163C73.5104 252.162 73.5103 252.35 72.9646 252.79C72.1346 253.019 71.8505 252.996 71.4685 252.987C71.1564 252.973 71.0051 252.866 70.917 252.681Z" fill="#99603F"/>
<path d="M71.5662 252.972C71.8503 252.995 72.1345 253.019 72.8475 253.047C73.2762 253.053 73.2277 253.246 73.3008 253.314C73.3739 253.382 73.1468 253.49 72.7377 253.378C72.0743 253.169 71.8202 253.071 71.5662 252.972Z" fill="#F0C679"/>
<path d="M47.4733 237.019C47.6821 237.086 47.6945 237.265 47.6757 237.711C47.6445 237.979 47.1872 237.924 46.9622 237.881C46.8585 237.557 47.0384 237.322 47.4733 237.019Z" fill="#41494C"/>
<path d="M71.5586 254.974C71.3522 258.032 70.0386 259.471 67.0828 257.623C60.0395 253.22 53.0318 248.757 46.0949 244.189C43.377 242.399 44.8919 240.934 47.4041 239.928C55.8389 245.086 63.6988 250.03 71.5586 254.974Z" fill="#43719D"/>
<path d="M71.7642 254.723C63.6986 250.03 55.8387 245.086 47.7611 239.85C47.5849 239.365 47.6267 239.173 47.7559 238.698C55.3087 243.017 62.7738 247.619 70.5777 252.451C71.005 252.866 71.1562 252.973 71.4683 252.987C71.8201 253.071 72.0743 253.169 72.6737 253.486C72.6693 253.961 72.3195 254.216 71.7642 254.723Z" fill="#41494C"/>
<path d="M153.864 324.33C144.67 325.449 135.882 326.44 127.095 327.432C127.048 327.04 127 326.648 126.952 326.257C139.531 324.493 152.109 322.729 164.687 320.965C164.761 321.124 164.835 321.282 164.909 321.44C161.363 322.361 157.817 323.282 153.864 324.33Z" fill="#EDAE53"/>
<path d="M174.757 278.946C174.752 279.392 174.747 279.837 174.664 280.607C172.261 287.058 169.979 293.203 167.578 299.3C166.986 300.804 166.006 302.154 164.908 303.753C164.611 303.932 164.608 303.929 164.608 303.929C167.018 296.114 169.427 288.299 172.383 280.099C173.538 279.458 174.148 279.202 174.757 278.946Z" fill="#EDAE53"/>
<path d="M177.618 225.902C177.159 228.435 176.722 230.547 176.285 232.66C175.767 232.547 175.249 232.434 174.731 232.322C175.579 227.578 176.427 222.834 177.275 218.089C177.682 218.135 178.088 218.181 178.494 218.227C178.209 220.645 177.925 223.064 177.618 225.902Z" fill="#EDAE53"/>
<path d="M175.385 287.104C176.498 290.967 177.477 295.213 178.354 299.885C177.252 296.036 176.251 291.762 175.385 287.104Z" fill="#906451"/>
<path d="M174.949 278.926C174.148 279.202 173.538 279.458 172.613 279.833C172.485 277.123 172.673 274.293 173.17 271.2C173.837 271.432 174.195 271.927 174.643 272.732C174.991 274.72 175.25 276.398 175.512 278.442C175.515 278.808 175.141 278.905 174.949 278.926Z" fill="#EDAE53"/>
<path d="M175.694 240.499C175.316 240.923 175.051 240.976 174.596 241.112C174.398 238.979 174.398 236.805 174.398 234.63C174.865 234.634 175.332 234.639 175.799 234.643C175.799 236.458 175.799 238.273 175.694 240.499Z" fill="#EDAE53"/>
<path d="M173.654 314.962C173.181 315.581 172.708 316.199 171.919 316.871C171.603 316.925 171.574 316.894 171.574 316.894C172.042 316.274 172.51 315.654 173.297 314.982C173.616 314.931 173.654 314.962 173.654 314.962Z" fill="#EDAE53"/>
<path d="M178.564 304.891C178.452 305.65 178.339 306.41 178.227 307.17C178.173 307.162 178.118 307.154 178.064 307.145C178.162 306.562 178.261 305.979 178.476 305.157C178.593 304.918 178.564 304.891 178.564 304.891Z" fill="#906451"/>
<path d="M88.6235 302.914C88.1461 302.563 87.6688 302.211 87.1914 301.86C87.2968 301.741 87.4021 301.622 87.5074 301.502C87.8312 301.816 88.1548 302.129 88.545 302.687C88.6116 302.931 88.6235 302.914 88.6235 302.914Z" fill="#C68263"/>
<path d="M171.616 316.942C171.16 317.273 170.692 317.587 169.916 317.919C169.609 317.936 169.564 317.897 169.564 317.897C170.041 317.587 170.518 317.278 171.284 316.931C171.574 316.894 171.603 316.925 171.616 316.942Z" fill="#EDAE53"/>
<path d="M173.6 314.912C173.723 314.598 173.92 314.349 174.395 314.039C174.615 313.931 174.65 313.96 174.65 313.96C174.521 314.262 174.326 314.514 173.86 314.839C173.654 314.962 173.616 314.931 173.6 314.912Z" fill="#EDAE53"/>
<path d="M179.132 304.172C179.517 304.117 179.62 304.346 179.602 304.805C179.404 304.959 179.238 304.924 178.818 304.89C178.564 304.891 178.593 304.918 178.603 304.933C178.721 304.772 178.83 304.594 179.132 304.172Z" fill="#906451"/>
<path d="M174.6 313.914C174.586 313.897 174.858 313.536 174.858 313.536C174.858 313.536 174.86 313.85 174.755 313.905C174.65 313.96 174.615 313.931 174.6 313.914Z" fill="#EDAE53"/>
<path d="M206.693 393.279C207.374 391.075 207.748 388.889 208.975 387.411C214.582 380.656 215.24 370.078 209.61 361.337C208.12 364.648 206.918 367.416 205.633 370.144C204.31 372.951 203.417 376.736 199.285 375.949C194.677 375.073 195.584 370.972 195.779 367.79C196.374 358.069 198.197 348.735 203.641 340.273C205.018 338.133 205.295 334.469 204.55 331.959C203.24 327.55 201.037 323.324 198.701 319.317C191.591 307.127 186.596 294.197 183.629 280.391C182.412 274.727 180.286 269.259 178.856 263.32C179.589 262.919 180.039 262.902 180.746 263.138C182.845 268.552 185.254 273.588 186.412 278.898C189.127 291.349 193.095 303.251 199.263 314.433C201.99 319.377 204.81 324.362 206.68 329.65C207.741 332.65 208.363 337.343 206.772 339.476C200.095 348.43 199.198 358.833 197.8 369.173C197.6 370.658 198.71 372.32 199.214 373.9C200.42 372.724 201.958 371.737 202.764 370.33C204.495 367.312 205.649 363.959 207.426 360.973C208.614 358.976 210.561 357.632 212.564 360.329C217.375 366.805 216.38 381.849 211.023 388.117C209.711 389.653 209.2 391.873 208.32 393.779C208.783 394.017 209.245 394.255 209.708 394.494C211.086 393.742 213.251 392.013 213.719 392.39C217.831 395.702 218.767 391.202 220.002 389.593C228.625 378.364 230.422 365.625 228.207 351.846C225.705 336.282 223.516 320.656 221.703 304.998C220.039 290.631 217.063 276.911 208.961 264.518C205.944 259.904 204.579 254.21 202.747 249.181C203.761 249.84 204.489 250.327 205.218 250.813C209.059 258.17 212.877 265.539 216.747 272.881C221.825 282.515 223.121 293.047 224.373 303.647C226.224 319.305 228.552 334.909 230.296 350.578C231.175 358.48 231.691 366.485 231.52 374.425C231.276 385.751 223.506 392.866 215.188 398.712C211.523 401.288 208.389 397.411 206.693 393.279ZM212.697 396.783C213.197 396.512 213.698 396.241 214.199 395.97C214.022 395.744 213.845 395.517 213.669 395.29C213.212 395.66 212.755 396.029 212.697 396.783Z" fill="#5C3A30"/>
<path d="M44.2347 395.838C40.2841 400.733 39.7244 400.697 35.111 397.285C24.3245 389.308 19.2503 378.79 20.3764 365.357C20.6683 361.873 20.842 358.379 21.1824 354.901C22.9803 336.532 24.908 318.175 26.6014 299.796C27.6857 288.027 30.6068 276.981 36.7297 266.691C40.1059 261.017 42.3022 254.641 45.5261 248.253C46.8873 248.218 47.7528 248.511 48.3074 248.991C45.0363 255.642 42.5358 262.37 39.0118 268.511C33.246 278.557 30.4752 289.279 29.5023 300.69C28.2777 315.055 26.5924 329.381 25.4197 343.749C24.5748 354.103 24.2424 364.499 23.6773 375.269C24.9875 378.75 26.3018 381.837 27.612 385.14C27.7601 385.575 27.9121 385.794 28.064 386.013C28.1212 385.887 28.2614 385.704 28.221 385.645C28.0448 385.389 27.8161 385.169 27.6086 384.616C27.7308 383.72 27.8507 383.144 28.0317 382.274C30.3653 385.384 32.4652 388.182 34.6298 391.275C35.2943 392.257 35.8937 392.943 36.4934 393.629C36.7275 393.331 36.9616 393.032 37.1959 392.733C36.3581 392.109 35.5205 391.485 34.6855 390.477C33.996 387.367 33.3038 384.641 32.8831 382.116C36.8481 386.824 40.5415 391.331 44.2347 395.838Z" fill="#5C3A30"/>
<path d="M71.7238 261.979C66.8096 283.525 62.4557 305.253 50.5856 324.457C49.2859 326.56 48.4402 328.948 47.4291 331.224C45.6679 335.188 45.9949 338.549 48.9485 342.201C55.804 350.679 56.2545 361.228 56.9772 371.491C57.087 373.052 55.1376 375.827 53.7385 376.12C52.3877 376.403 49.9188 374.561 48.9963 373.02C46.9257 369.561 45.5095 365.711 43.5978 361.517C38.5569 369.266 39.2505 381.11 43.955 387.629C45.1486 389.284 44.7515 392.086 44.7926 394.217C44.0238 392.789 43.812 391.309 43.0294 390.251C37.0608 382.18 36.3148 373.348 39.1102 363.699C40.2789 362.022 41.2528 360.612 42.2267 359.201C43.6067 360.318 45.3331 361.2 46.2844 362.607C47.6633 364.646 48.4684 367.071 49.5443 369.318C50.4246 371.157 51.3427 372.977 52.8197 375.973C54.0763 373.559 55.4257 372.211 55.2244 371.16C53.4866 362.09 53.9612 352.086 47.8286 344.605C42.8234 338.5 43.2345 332.989 46.3366 326.749C47.6687 324.069 48.9485 321.354 50.448 318.769C60.8408 300.851 64.3605 280.876 68.1762 261.059C69.5569 261.474 70.6403 261.727 71.7238 261.979Z" fill="#5C3A30"/>
<path d="M38.9152 363.965C36.3148 373.348 37.0607 382.18 43.0294 390.251C43.812 391.309 44.0238 392.789 44.5089 394.34C44.6712 394.902 44.6788 395.202 44.3875 395.671C40.5416 391.331 36.8482 386.824 32.8807 382.129C32.6064 381.94 32.6345 381.942 32.6209 381.638C32.2747 380.857 31.9422 380.381 31.6035 379.923C31.5972 379.94 31.6325 379.948 31.6577 379.561C30.9896 377.078 30.2963 374.983 29.6016 372.913C29.6003 372.937 29.6422 372.963 29.6168 372.604C29.5704 371.531 28.2601 369.482 28.5 368.5C31.7158 366.366 35.9602 365.832 38.9152 363.965Z" fill="#A76B4C"/>
<path d="M180.746 263.138C181.009 262.099 181.35 261.013 182.079 260.575C188.608 256.655 195.204 252.85 202.121 249.01C204.579 254.21 205.944 259.904 208.96 264.518C217.063 276.911 220.038 290.631 221.702 304.998C223.516 320.656 225.705 336.282 228.206 351.846C230.421 365.625 228.624 378.364 220.002 389.593C218.766 391.202 217.83 395.702 213.719 392.39C213.251 392.013 211.086 393.742 209.708 394.494C209.245 394.256 208.783 394.017 208.32 393.779C209.199 391.873 209.71 389.653 211.023 388.117C216.38 381.849 217.375 366.805 212.564 360.329C210.561 357.632 208.614 358.976 207.426 360.973C205.649 363.959 204.495 367.312 202.764 370.33C201.958 371.737 200.42 372.724 199.214 373.901C198.71 372.32 197.599 370.658 197.8 369.173C199.197 358.834 200.094 348.43 206.771 339.476C208.362 337.343 207.741 332.65 206.68 329.65C204.81 324.362 201.99 319.377 199.263 314.433C193.095 303.251 189.127 291.349 186.412 278.898C185.254 273.589 182.845 268.552 180.746 263.138ZM218.983 383.855C219.083 383.986 219.159 384.153 219.288 384.236C219.394 384.303 219.678 384.305 219.689 384.272C221.134 379.889 222.561 375.5 223.989 371.112C223.475 370.969 222.961 370.825 222.447 370.682C221.313 374.851 220.179 379.02 218.983 383.855ZM216.469 387.384C215.962 388.358 215.455 389.333 214.948 390.307C215.573 390.448 216.197 390.589 216.821 390.73C216.821 389.441 216.821 388.153 216.469 387.384Z" fill="#A4684B"/>
<path d="M212.497 396.591C212.755 396.029 213.212 395.66 213.668 395.29C213.845 395.517 214.022 395.744 214.198 395.97C213.698 396.241 213.197 396.512 212.497 396.591Z" fill="#906451"/>
<path d="M48.3077 248.991C54.8066 252.748 62.4639 256.926 69 261C65.8298 281.111 60.8409 300.852 50.4481 318.769C48.9486 321.354 47.6688 324.069 46.3367 326.749C43.2346 332.989 42.8235 338.5 47.8287 344.605C53.9613 352.086 53.4867 362.09 55.2245 371.16C55.4258 372.211 54.0764 373.559 52.8198 375.973C51.3428 372.977 50.4247 371.157 49.5444 369.318C48.4685 367.071 47.6635 364.646 46.2845 362.607C45.3333 361.2 43.6068 360.318 42.2268 359.201C41.2529 360.612 40.2791 362.022 39.1104 363.699C35.9603 365.833 33.0054 367.7 29.5583 369.777C29.0665 369.988 28.5972 369.903 28.6024 369.922C28.6077 369.94 28.642 369.956 28.5205 369.76C28.208 369.318 27.9738 369.124 27.3148 368.991C25.8494 370.957 24.7655 372.916 23.6816 374.876C24.2427 364.499 24.5751 354.103 25.42 343.749C26.5927 329.381 28.278 315.055 29.5026 300.69C30.4755 289.279 33.2463 278.557 39.0121 268.511C42.5361 262.37 45.0366 255.642 48.3077 248.991Z" fill="#A4684B"/>
<path d="M23.6775 375.269C24.7654 372.916 25.7769 369.766 27.3549 368C28.04 368.446 28.3525 369.827 28.6418 369.955C28.6418 369.955 28.6075 369.94 28.6039 370.264C28.9475 371.38 29.2949 372.171 29.6422 372.963C29.6422 372.963 29.6003 372.937 29.5841 373.31C30.2562 375.771 30.9443 377.859 31.6326 379.948C31.6326 379.948 31.5973 379.94 31.6168 380.229C31.9691 380.993 32.3019 381.468 32.6345 381.942C32.6345 381.942 32.6064 381.94 32.609 381.927C33.304 384.641 33.9962 387.367 34.6561 390.507C34.6237 390.92 34.5652 390.98 34.5652 390.98C32.4653 388.182 30.3655 385.384 28.0319 382.274C27.8508 383.144 27.731 383.72 27.6112 384.614C27.6114 384.932 27.6163 384.924 27.6163 384.924C26.302 381.837 24.9877 378.75 23.6775 375.269ZM26.3956 376.644C26.3679 376.141 26.3401 375.637 26.3124 375.134C26.1053 375.164 25.8983 375.193 25.6913 375.223C25.813 375.783 25.9347 376.343 26.3956 376.644ZM27.3549 379.759C27.189 379.815 27.0229 379.87 26.8571 379.926C27.0251 379.981 27.1932 380.037 27.3549 379.759Z" fill="#A76B4C"/>
<path d="M34.6531 390.891C35.5206 391.485 36.3582 392.109 37.196 392.733C36.9617 393.032 36.7276 393.331 36.4935 393.629C35.8939 392.943 35.2944 392.257 34.6299 391.275C34.5651 390.98 34.6236 390.92 34.6531 390.891Z" fill="#A76B4C"/>
<path d="M219.014 383.522C220.179 379.02 221.313 374.851 222.447 370.682C222.961 370.825 223.475 370.969 223.989 371.112C222.561 375.5 221.134 379.889 219.689 384.272C219.678 384.305 219.394 384.303 219.288 384.236C219.159 384.153 219.083 383.986 219.014 383.522Z" fill="#A76B4C"/>
<path d="M216.645 387.124C216.821 388.152 216.821 389.441 216.821 390.73C216.197 390.589 215.573 390.448 214.949 390.307C215.456 389.333 215.962 388.358 216.645 387.124Z" fill="#A76B4C"/>
<path d="M48.7609 110.973C47.2994 96.2745 45.4111 81.6008 44.5561 66.8671C44.1264 59.4612 47.6126 52.4694 49.4452 45.3465C51.69 36.6208 56 30.6912 60.7481 24.5C66.5 17 73.801 14.831 80.4637 10.1978C86.8492 5.75744 93.6648 3.99636 100.466 2.12818C107.054 0.318847 114.252 0.711172 121.186 0.190428C134.011 -0.77276 146.453 2.02061 158.225 6.24971C167.557 9.60252 176.645 14.717 184.431 20.8414C188.382 23.9484 192.886 29.1393 194.318 33.9489C196.688 41.9069 201.923 48.7469 203.339 56.5855C205.03 65.9435 204.872 75.7827 204.344 85.3489C203.899 93.4254 201.782 101.41 200.03 110.089C199.708 111.848 199.762 112.952 199.685 114.407C198.591 118.166 197.627 121.575 196.358 124.98C195.649 124.925 195.246 124.873 194.867 124.423C195.458 113.406 196.228 102.791 196.455 92.1641C196.515 89.3339 194.978 86.4481 194.067 83.6227C191.7 76.288 188.658 69.1041 187.056 61.6098C185.659 55.0732 184.539 52.0999 177.837 51.096C165.032 49.1776 152.154 47.5257 139.246 46.5598C116.569 44.8629 93.9991 46.2788 71.6954 50.8708C63.3424 52.5905 62.9559 53.2573 61.5395 61.752C61.4068 62.5478 61.0091 63.298 60.7481 64.074C58.1233 71.8774 55.451 79.6656 52.9254 87.5011C52.4792 88.8853 52.4915 90.4757 52.5603 91.9584C53.1297 104.247 53.7623 116.533 54.0622 128.868C53.3291 128.966 52.9094 129.015 52.4649 129.057C52.4403 129.049 52.3878 129.047 52.4517 128.793C52.3833 128.066 52.2508 127.593 52.0548 126.699C51.2422 123.987 50.4932 121.695 49.7242 119.409C49.7039 119.414 49.6646 119.427 49.8111 119.007C49.8873 117.704 49.8172 116.822 49.9162 115.696C49.6439 113.96 49.2025 112.466 48.7609 110.973Z" fill="#241612"/>
<path d="M199.816 114.057C199.762 112.952 199.708 111.848 199.822 110.46C200.899 109.817 201.85 109.538 202.708 109.084C208.88 105.821 215.283 108.228 217.685 114.746C221.611 125.398 213.014 141.736 201.885 144.4C199.595 144.949 197.061 144.48 193.898 144.48C191.907 155.098 186.341 164.556 176.343 170.238C168.154 174.893 159.274 178.418 150.487 181.905C143.075 184.846 142.939 184.503 143.707 193.315C143.594 194.443 143.533 194.731 143.175 194.8C142.395 192.389 141.91 190.195 141.463 187.671C140.444 186.942 139.251 186.003 138.351 186.23C129.421 188.476 120.558 188.92 111.638 186.159C110.792 185.897 109.634 186.647 108.558 187.302C107.582 189.842 106.671 192.007 105.711 193.869C105.636 193.365 105.61 193.163 105.584 192.961C106.827 184.443 106.741 184.69 98.474 181.815C90.8053 179.148 83.0765 176.409 75.8579 172.748C64.2552 166.864 57.2038 157.004 54.3692 144.342C43.2362 146.714 34.6542 138.695 31.0185 126.009C30.9824 124.583 30.7626 123.75 30.5426 122.918C30.5061 121.846 30.4695 120.774 30.7574 119.041C31.182 117.684 31.2822 116.988 31.3824 116.293C31.1656 115.989 31.1457 115.672 31.732 115.133C32.3251 114.927 32.5088 114.93 32.669 115.393C32.594 117.503 32.4867 119.153 32.4992 120.803C32.5743 130.569 37.8924 137.183 45.7886 141.907C50.0866 144.479 53.0145 142.743 53.7286 137.678C53.3614 135.196 52.5055 134.494 52 132C52.0621 131.329 52.4433 129.446 52.4897 129.064C52.9094 129.015 53.3291 128.965 54.1704 129.275C54.9309 131.596 55.3412 133.549 55.5973 135.523C57.5389 150.483 63.2828 163.517 77.4967 170.186C88.7008 175.443 100.659 179.244 112.539 182.841C117.77 184.425 123.678 184.534 129.212 184.205C142.548 183.412 154.701 178.14 166.643 172.681C180.483 166.354 189.758 156.144 192.042 140.502C192.81 135.251 193.9 130.046 194.842 124.821C195.246 124.873 195.649 124.925 196.373 125.404C196.095 129.758 195.507 133.686 194.897 137.61C194.285 141.542 196.186 143.682 199.849 142.556C209.889 139.47 219.141 127.551 216.175 116.195C214.615 110.225 208.448 107.819 203.212 111.146C201.966 111.937 200.942 113.077 199.816 114.057Z" fill="#5C3A30"/>
<path d="M33 115C32.8076 116.067 31.9594 115.55 31.5 115.546C34.2524 107.321 40.7366 105.151 48.4225 110.863C49.2025 112.466 49.0815 110.295 49 112C49.5 113 50 114.5 49 114C48.993 114.005 46.9645 114.371 47 114C43.5 107.5 38.9888 107.145 33 115Z" fill="#5C3A30"/>
<path d="M30.4419 123.151C30.7625 123.75 30.9823 124.583 31.0232 125.641C30.6765 125.039 30.5089 124.211 30.4419 123.151Z" fill="#AF765C"/>
<path d="M31.1241 116.547C31.2822 116.988 31.182 117.684 30.8486 118.647C30.6989 118.211 30.7824 117.506 31.1241 116.547Z" fill="#AF765C"/>
<path d="M194.867 124.423C193.9 130.046 192.809 135.251 192.042 140.502C189.758 156.144 180.483 166.354 166.643 172.681C154.701 178.14 142.548 183.412 129.212 184.205C123.678 184.534 117.77 184.425 112.539 182.841C100.659 179.244 88.7007 175.444 77.4966 170.186C63.2827 163.517 57.5388 150.483 55.5972 135.523C55.3411 133.549 54.9308 131.596 54.4838 129.226C53.7622 116.533 53.1296 104.247 52.5602 91.9584C52.4915 90.4757 52.4791 88.8853 52.9253 87.5011C55.4509 79.6655 58.1232 71.8774 60.7481 64.0739C61.009 63.298 61.4067 62.5478 61.5394 61.752C62.9558 53.2573 63.3423 52.5905 71.6953 50.8708C93.999 46.2788 116.569 44.8629 139.246 46.5598C152.154 47.5257 165.032 49.1776 177.837 51.096C184.539 52.0999 185.659 55.0731 187.056 61.6098C188.658 69.1041 191.7 76.2879 194.067 83.6227C194.978 86.4481 196.515 89.3339 196.455 92.1641C196.227 102.791 195.458 113.406 194.867 124.423ZM73.7799 124.293C74.1061 124.459 74.4321 124.625 74.6251 125.508C75.3524 125.912 76.0798 126.316 76.832 127.336C77.1994 127.406 77.5665 127.476 78.0695 128.228C84.9065 133.282 91.9872 131.461 99.3369 128.773C100.071 128.514 100.804 128.254 102.29 127.971C102.914 127.113 104.142 126.199 104.067 125.407C103.423 118.581 96.2623 110.558 89.5711 109.245C80.9502 107.552 73.5037 111.022 65.4352 114.758C68.0176 117.923 70.1738 120.566 72.741 123.616C73.1115 123.641 73.4818 123.665 73.7799 124.293ZM172.604 126.927C172.604 126.927 172.52 126.913 173.069 126.782C173.242 126.468 173.414 126.153 173.597 125.916C173.597 125.916 173.52 125.924 174.159 125.656C174.308 125.224 174.456 124.792 174.563 124.332C174.563 124.332 174.523 124.258 175.38 124.323C177.113 122.664 178.98 121.122 180.552 119.322C183.562 115.876 182.651 113.057 178.381 112.071C172.511 110.716 166.516 109.317 160.542 109.164C154.688 109.014 149.529 113.748 148.692 118.155C148.692 118.155 148.754 118.031 148.024 117.97C143.835 122.918 143.434 126.238 146.603 128.965C146.603 128.965 146.565 128.869 147 129.18C147.806 129.17 148.612 129.16 149.835 128.984C150.164 128.959 150.427 129.079 151.191 129.913C154.214 130.514 157.348 131.916 160.232 131.515C163.89 131.005 167.343 129.032 171.043 127.768C171.043 127.768 171.024 127.943 171.657 127.697C171.977 127.412 172.297 127.128 172.604 126.927ZM117.524 167.664L117.171 167.686C117.171 167.686 117.553 167.979 117.93 168.606C122.084 171.74 126.318 172.072 131.08 168.939C131.283 168.763 131.486 168.587 131.689 168.411C131.321 168.573 130.954 168.734 129.684 168.901C125.673 168.561 121.662 168.222 117.524 167.664ZM181.332 99.1098C181.916 98.7554 182.499 98.401 183.082 98.0465C181.698 96.4259 180.555 94.4788 178.887 93.2401C170.711 87.1701 161.483 87.4885 152.125 89.3601C148.516 90.0818 144.813 91.5834 145.81 96.0921C146.836 100.735 150.711 98.2143 153.289 97.7939C162.519 96.2888 171.699 94.4955 181.332 99.1098ZM87.3342 96.6476C90.768 97.2197 94.2077 97.7583 97.6334 98.3746C100.244 98.8442 103.323 99.9839 104.14 96.2059C104.883 92.7716 102.398 90.9408 99.3804 90.3675C94.666 89.4719 89.8637 88.2659 85.1337 88.4031C77.3953 88.6276 70.2547 90.9029 65.8641 97.7211C72.8352 97.3112 79.6461 96.9108 87.3342 96.6476ZM126.831 162.877C134.253 161.178 141.674 159.479 150.22 157.523C148.273 155.468 147.139 154.271 146.562 153.662C143.317 155.317 140.834 157.529 138.204 157.722C133.189 158.09 128.09 157.305 123.529 157.029C123.57 156.997 124.289 156.435 125.008 155.874C120.867 155.938 117.087 157.622 113.337 157.557C109.787 157.495 106.269 155.599 102.16 154.332C101.998 154.651 101.371 155.894 100.093 158.426C109.257 160.014 117.597 161.459 126.831 162.877Z" fill="#A4684B"/>
<path d="M199.686 114.407C200.942 113.077 201.967 111.937 203.212 111.146C208.449 107.819 214.616 110.225 216.175 116.195C219.142 127.551 209.889 139.47 199.849 142.556C196.186 143.682 194.286 141.542 194.897 137.61C195.508 133.686 196.095 129.758 196.678 125.408C197.628 121.575 198.591 118.166 199.686 114.407ZM212.531 116.655C212.652 117.357 212.773 118.06 212.893 118.762C213.134 118.699 213.374 118.635 213.614 118.572C213.315 117.666 213.016 116.761 212.556 115.124C210.417 111.719 207.502 112.503 204.724 113.907C201.109 115.736 198.934 120.451 199.776 125.153C202.609 119.536 204.074 112.4 212.531 116.655Z" fill="#A4684B"/>
<path d="M32.6691 115.393C38.2004 106.728 45 107 47.5 115.5C50.2572 118.227 41.1325 112.657 38.2004 112.663C36.8234 112.666 35.4544 116.26 34.0818 118.227C39.0318 113.767 41.5237 113.65 45.5447 118.41C46.1848 119.168 46.5667 120.447 47.3293 120.701C47.9239 120.899 48.9244 119.881 49.7444 119.403C50.4933 121.695 51.2422 123.987 51.7382 126.489C50.6231 125.789 47.5 123.5 49 123.5C49.5 123 52.887 126.042 52.465 126.489C54.0501 127.734 50.8028 127.802 52.3879 129.047C52.3879 129.047 52.4403 129.049 52.465 129.057C52.4434 129.446 52.5 130 52.5 130.5C52.4979 131.032 52.5 130.5 52.5483 132C53.0483 133 52.7753 133.836 53.5749 134.5C55.1381 135.798 51.6507 137.091 53.5749 137.955C53.0146 142.743 50.0867 144.479 45.7886 141.907C37.8925 137.183 32.5744 130.569 32.4993 120.803C32.4867 119.153 32.594 117.503 32.6691 115.393Z" fill="#A4684B"/>
<path d="M49 120.5C48.2001 120.972 47.9238 120.9 47.3292 120.701C46.5667 120.447 46.1848 119.168 45.5447 118.41C41.5237 113.65 37 116.27 34.0818 118.227C34.5 115.763 36.8234 112.666 38.2003 112.663C41.1324 112.657 42.7562 114.252 46 115.5C46.3092 115.654 47.2799 116.161 47.3292 116.5C48.0297 117.779 48.5 118 49 119.5C49 119.5 48.9797 120.505 49 120.5Z" fill="#5C3A30"/>
<path d="M50.5 120.507C48 121.5 48 119 47 115.5C47 115.5 46.5 112.5 49.5 114C50 115 50.5762 119.204 50.5 120.507Z" fill="#5C3A30"/>
<path d="M103.243 198.73C102.91 198.627 102.771 198.253 102.698 197.838C102.626 197.424 102.675 196.963 102.675 196.963C103.581 196.19 103.911 195.509 105 194.5C106.094 192.1 107.718 189.366 109 187C111.286 187.708 113.022 189.206 114.99 189.984C124.107 193.588 132.893 190.944 141.497 187.5C141.982 189.694 142.395 192.389 143.175 194.8C143.471 195.019 143.515 195.011 143.645 195.236C144.058 195.646 144.341 195.832 144.625 196.018C143.604 197.714 142.997 200.151 141.497 200.988C129.848 207.485 118.142 207.064 106.597 200.494C105.598 199.926 104.583 199.386 103.243 198.73Z" fill="#A4684B"/>
<path d="M141.463 187.671C132.821 191.446 124.107 193.588 114.99 189.984C113.022 189.206 111.151 188.184 108.928 187.101C109.634 186.647 110.792 185.897 111.638 186.159C120.557 188.92 129.421 188.476 138.351 186.23C139.251 186.003 140.444 186.942 141.463 187.671Z" fill="#A76B4C"/>
<path d="M72.3303 123.208C70.174 120.566 68.0177 117.923 65.4353 114.758C73.5038 111.022 80.9503 107.552 89.5712 109.245C96.2625 110.558 103.423 118.581 104.067 125.407C104.142 126.199 102.914 127.113 102.029 127.585C101.106 124.589 100.444 121.978 99.7816 119.368C99.4906 119.448 99.3827 123.128 99.0917 123.208C98.4554 126.302 97.636 125.798 96.983 128.973C97.8081 128.973 98.4498 128.973 99.0917 128.973C91.9873 131.461 84.9066 133.282 78.0038 127.879C77.938 127.53 76.3943 127.006 76.6115 126.932C75.0455 122.182 75.7207 118.115 78.0038 113.432C70.8356 115.03 70.4364 116.051 72.8998 122.682C72.5829 122.974 72.4567 123.091 72.3303 123.208Z" fill="#332520"/>
<path d="M148.786 118.258C149.529 113.748 154.689 109.014 160.542 109.164C166.516 109.317 172.511 110.716 178.381 112.071C182.651 113.057 183.562 115.876 180.552 119.322C178.98 121.121 177.113 122.664 175.183 123.924C175.683 121.146 177.638 118.023 176.776 116.565C175.549 114.491 172.254 113.639 169.842 112.264C169.491 112.628 169.14 112.991 168.789 113.354C173.008 117.743 172.5 122.656 170.885 127.69C167.344 129.032 163.89 131.005 160.232 131.514C157.348 131.916 154.214 130.514 151.174 129.67C151.474 129.473 151.791 129.548 152.108 129.547C152.209 129.547 152.412 129.327 152.396 129.24C151.682 125.492 150.951 121.747 150.16 118.015C150.156 118 149.264 118.173 148.786 118.258ZM151.118 116.783L151.225 116.492C151.225 116.492 150.958 116.573 151.118 116.783Z" fill="#332520"/>
<path d="M181.006 98.9827C171.698 94.4954 162.519 96.2887 153.289 97.7938C150.711 98.2142 146.836 100.735 145.81 96.0921C144.813 91.5833 148.516 90.0818 152.125 89.36C161.483 87.4884 170.711 87.17 178.887 93.24C180.555 94.4787 181.698 96.4259 183.082 98.0464C182.499 98.4009 181.916 98.7553 181.006 98.9827Z" fill="#2D1914"/>
<path d="M86.8959 96.5789C79.6462 96.9107 72.8353 97.3112 65.8643 97.7211C70.2548 90.9028 77.3954 88.6275 85.1338 88.4031C89.8638 88.2659 94.6661 89.4719 99.3805 90.3674C102.399 90.9407 104.883 92.7716 104.14 96.2059C103.323 99.9839 100.244 98.8442 97.6335 98.3746C94.2078 97.7583 90.7681 97.2196 86.8959 96.5789Z" fill="#2D1914"/>
<path d="M126.384 162.891C117.597 161.459 105.776 160.578 96.6113 158.99C97.8895 156.458 101.998 154.651 102.16 154.332C106.269 155.599 109.787 157.495 113.337 157.557C117.087 157.622 118.47 154.396 122.611 154.332H130.111C134.672 154.608 133.189 158.09 138.204 157.722C140.834 157.53 143.317 155.317 146.562 153.662C147.139 154.271 152.164 156.371 154.111 158.426C145.566 160.382 134.253 161.178 126.384 162.891ZM128.604 160.836C130.516 160.431 132.428 160.026 134.341 159.621C134.333 159.41 134.325 159.2 134.317 158.99C128.57 158.99 122.824 158.99 117.077 158.99C117.077 159.619 117.078 160.248 117.078 160.878C120.631 160.878 124.184 160.878 128.604 160.836Z" fill="#774333"/>
<path d="M170.964 127.729C172.5 122.656 173.008 117.744 168.789 113.354C169.14 112.991 169.491 112.628 169.842 112.264C172.254 113.639 175.549 114.491 176.776 116.566C177.638 118.023 175.683 121.146 174.755 123.891C174.523 124.258 174.563 124.332 174.298 124.528C173.862 125.125 173.691 125.525 173.52 125.924C173.52 125.924 173.597 125.916 173.296 125.909C172.837 126.239 172.678 126.576 172.52 126.913C172.52 126.913 172.604 126.927 172.259 126.911C171.617 127.244 171.32 127.593 171.024 127.943C171.024 127.943 171.043 127.768 170.964 127.729Z" fill="#D3D4D8"/>
<path d="M148.739 118.207C149.264 118.173 150.156 118 150.16 118.015C150.951 121.747 151.682 125.492 152.396 129.24C152.412 129.327 152.209 129.547 152.108 129.548C151.791 129.548 151.474 129.473 150.891 129.386C150.428 129.079 150.164 128.959 149.275 129.005C147.998 128.974 147.281 128.921 146.565 128.869C146.565 128.869 146.603 128.965 146.554 128.614C147.255 124.852 148.005 121.441 148.755 118.031C148.755 118.031 148.693 118.155 148.739 118.207Z" fill="#D3D4D8"/>
<path d="M99.2142 128.873C98.4497 128.973 97.808 128.973 96.9829 128.973C97.6359 125.798 98.2721 122.704 98.9083 119.61C99.1993 119.529 99.4905 119.448 99.7815 119.368C100.443 121.978 101.106 124.589 101.653 127.597C100.804 128.254 100.071 128.514 99.2142 128.873Z" fill="#D3D4D8"/>
<path d="M132 168.27C133.5 171 117.767 173 117.767 168.27C117.605 167.933 117.651 167.882 117.651 167.882C121.662 168.222 122.022 167.913 126.5 168.27C126.966 168.287 132 168.27 132 168.27Z" fill="#774333"/>
<path d="M148.389 118C148.005 121.441 147.255 124.852 146.603 128.597C143.435 126.238 143.836 122.918 148.389 118Z" fill="#332520"/>
<path d="M146.783 129.025C147.281 128.922 147.997 128.974 149.066 129.088C148.612 129.161 147.806 129.17 146.783 129.025Z" fill="#332520"/>
<path d="M76.8074 126.721C76.0801 126.316 75.3527 125.912 74.6831 125.157C74.7408 124.805 74.7577 124.79 75.0247 124.902C75.7972 125.583 76.303 126.153 76.8007 126.731C76.7926 126.74 76.8074 126.721 76.8074 126.721Z" fill="#332520"/>
<path d="M77.9358 127.538C77.5665 127.476 77.1993 127.406 76.8196 127.028C76.8071 126.721 76.7923 126.74 77.053 126.76C77.529 127.022 77.7445 127.264 77.9601 127.506C77.9601 127.506 77.9378 127.53 77.9358 127.538Z" fill="#332520"/>
<path d="M173.84 125.79C173.691 125.524 173.862 125.125 174.318 124.542C174.456 124.792 174.308 125.224 173.84 125.79Z" fill="#332520"/>
<path d="M172.795 126.848C172.679 126.576 172.837 126.239 173.291 125.87C173.414 126.153 173.242 126.468 172.795 126.848Z" fill="#332520"/>
<path d="M171.34 127.82C171.32 127.593 171.617 127.244 172.265 126.869C172.297 127.128 171.977 127.412 171.34 127.82Z" fill="#332520"/>
<path d="M73.8525 123.689C73.4821 123.665 73.1117 123.641 72.5359 123.412C72.4568 123.091 72.583 122.974 73.0917 122.833C73.7042 123.057 73.832 123.351 73.8496 123.698C73.8417 123.706 73.8525 123.689 73.8525 123.689Z" fill="#332520"/>
<path d="M74.7498 124.798C74.4324 124.625 74.1063 124.459 73.8164 123.991C73.8525 123.689 73.8417 123.706 74.0792 123.804C74.4637 124.198 74.6107 124.494 74.7577 124.79C74.7577 124.79 74.7408 124.805 74.7498 124.798Z" fill="#332520"/>
<path d="M212.573 117C204.18 113.337 202.609 119.536 199.775 125.153C198.933 120.451 201.109 115.736 204.724 113.907C206.5 111.5 212.45 112.5 212.573 115.541C212.59 115.957 212.573 117 212.573 117Z" fill="#5C3A30"/>
<path d="M213 113.5C215 116 214 119 214 119.5C213.5 121 213.134 118.698 212.893 118.762C213 120 213 116 209 114.5C209 114.5 204 111 213 113.5Z" fill="#5C3A30"/>
<path d="M128.171 160.857C124.184 160.878 120.631 160.878 117.078 160.878C117.078 160.248 117.078 159.619 117.077 158.99C122.824 158.99 128.571 158.99 134.317 158.99C134.325 159.2 134.333 159.41 134.341 159.621C132.429 160.026 130.517 160.431 128.171 160.857Z" fill="#99603F"/>
<path d="M112.571 140C119.87 140.808 119.5 141.56 127.071 141.56C128.412 141.56 130.5 141.56 139 140C139 145.5 127.071 145.5 127.071 145.5C127.071 145.5 112.571 145.5 112.571 140Z" fill="#774333"/>
</svg>
